<svg width="24" height="24" viewBox="0 0 24 24" fill="none" xmlns="http://www.w3.org/2000/svg">
<path fill-rule="evenodd" clip-rule="evenodd" d="M8.3671 3.49201C8.8661 3.88801 9.5391 4.44201 10.2721 5.09901C10.9741 5.72901 11.7451 6.46501 12.4751 7.26001C13.8781 6.06901 14.9611 4.72501 15.5191 3.44501C14.7464 3.12762 13.9344 2.91572 13.1051 2.81501C11.4937 2.61863 9.85902 2.8522 8.3671 3.49201ZM16.8581 4.12601C16.1801 5.63501 14.9571 7.11901 13.4531 8.39701C13.8945 8.94245 14.2946 9.52005 14.6501 10.125C15.0601 10.835 15.4241 11.658 15.7451 12.521C17.5571 11.838 19.4621 11.5 21.2471 11.716C21.2015 10.1889 20.7768 8.6971 20.0111 7.37501C19.2468 6.04651 18.1631 4.92976 16.8581 4.12601ZM21.1701 13.219C19.6341 13.01 17.9151 13.299 16.2261 13.943C16.5161 14.88 16.7611 15.819 16.9591 16.672C17.1714 17.5835 17.3591 18.5005 17.5221 19.422C18.8359 18.4472 19.866 17.1396 20.5061 15.634C20.8361 14.863 21.0591 14.049 21.1701 13.219ZM16.1441 20.269C15.9649 19.1766 15.7497 18.0903 15.4991 17.012C15.3076 16.1848 15.0891 15.364 14.8441 14.551C14.4351 14.755 14.0321 14.978 13.6371 15.218C11.2251 16.686 9.2951 18.688 8.4811 20.555C9.70428 21.0591 11.0215 21.2945 12.3436 21.2454C13.6656 21.1962 14.9617 20.8636 16.1441 20.27V20.269ZM7.1421 19.874C8.1431 17.647 10.3321 15.473 12.8571 13.937C13.3431 13.641 13.8471 13.365 14.3651 13.115C14.0631 12.292 13.7251 11.522 13.3511 10.875C13.0302 10.3301 12.6688 9.80994 12.2701 9.31901C11.9237 9.56661 11.5688 9.80209 11.2061 10.025C8.6361 11.603 5.5481 12.622 2.7521 12.284C2.79809 13.8109 3.22319 15.3023 3.9891 16.624C4.75326 17.9529 5.83701 19.0699 7.1421 19.874ZM2.8301 10.78C3.0041 9.46412 3.45969 8.20119 4.16584 7.07727C4.87198 5.95334 5.81208 4.99482 6.9221 4.26701C7.72912 4.88676 8.51236 5.53689 9.2701 6.21601C9.9301 6.80801 10.6271 7.47601 11.2821 8.18101C11.0021 8.37601 10.7151 8.56601 10.4201 8.74701C7.9731 10.25 5.1871 11.1 2.8301 10.78ZM6.6251 2.69001C8.63795 1.52386 10.9759 1.04504 13.2851 1.32601C14.9426 1.52447 16.5311 2.10677 17.9242 3.02664C19.3172 3.94651 20.4766 5.1786 21.3101 6.62501C22.1457 8.06993 22.6328 9.68979 22.7328 11.3559C22.8328 13.022 22.5429 14.6885 21.8861 16.223C20.9751 18.3638 19.3916 20.1495 17.3751 21.31C12.2331 24.278 5.6591 22.516 2.6901 17.375C-0.277903 12.233 1.4831 5.65801 6.6251 2.69001Z" fill="black"/>
</svg>
