<svg width="813" height="192" viewBox="0 0 813 192" fill="none" xmlns="http://www.w3.org/2000/svg">
<g clip-path="url(#clip0_247_33)">
<path d="M68.481 2.66246C77.6324 2.36765 89.0748 2.21872 102.805 2.21872C116.535 2.21872 126.039 2.34941 131.315 2.60775C136.592 2.86913 141.262 4.92068 145.321 8.76238C149.381 12.6071 151.411 17.0445 151.411 22.0716C151.411 28.208 148.753 32.7183 143.44 35.6026C142.924 35.9005 142.666 36.25 142.666 36.6573C142.666 37.0645 142.924 37.3411 143.44 37.49C147.279 38.5265 150.507 40.7452 153.129 44.1431C155.747 47.5441 157.058 51.5743 157.058 56.2305C157.058 62.0721 154.807 67.3605 150.304 72.0897C145.801 76.8219 138.901 79.3932 129.598 79.7974C120.295 80.2016 113.58 80.4083 109.447 80.4083C105.314 80.4083 91.5113 80.2989 68.038 80.077C65.8958 80.077 64.1632 79.3932 62.8342 78.0255C61.5052 76.6578 60.7314 75.0864 60.5099 73.3115C59.9182 66.8073 59.6239 57.3247 59.6239 44.8634C59.6239 32.4022 59.8818 21.7768 60.3976 12.9779C60.6192 9.35505 61.2442 6.75035 62.2789 5.15774C63.3106 3.56818 65.38 2.73844 68.478 2.66246H68.481ZM104.686 17.5247L104.795 26.6184C104.795 28.0226 105.642 28.7246 107.341 28.7246C114.796 28.7246 118.523 26.6184 118.523 22.4029C118.523 17.5217 115.2 15.0842 108.558 15.0842H107.341C105.569 15.0842 104.683 15.8987 104.683 17.5247H104.686ZM104.795 48.0243L104.686 62.4429C104.686 63.1085 104.908 63.6829 105.351 64.1631C105.794 64.6433 106.382 64.8834 107.123 64.8834C111.626 64.8834 115.334 63.996 118.25 62.221C121.165 60.446 122.622 57.6559 122.622 53.8477C122.622 50.0394 121.108 47.3982 118.083 45.9181C115.646 44.7358 112.988 44.1431 110.112 44.1431C109.374 44.1431 108.634 44.1796 107.897 44.2525C105.83 44.4015 104.795 45.6567 104.795 48.0243Z" fill="white"/>
<path d="M221.385 82.4021C212.452 82.4021 204.372 81.238 197.138 78.9099C189.904 76.5818 184.036 73.4574 179.533 69.5397C175.03 65.622 171.598 61.2423 169.235 56.3976C166.871 51.556 165.691 46.5107 165.691 41.2588C165.691 36.0068 166.889 30.9646 169.289 26.1199C171.686 21.2783 175.118 16.8986 179.588 12.9779C184.054 9.06022 189.901 5.91756 197.138 3.54993C204.372 1.18534 212.307 0 220.942 0C229.578 0 237.218 1.07288 243.86 3.2156C250.502 5.36136 255.855 8.28215 259.915 11.978C268.18 19.5185 272.316 28.4663 272.316 38.8152C272.316 44.0671 271.19 49.2036 268.939 54.2306C266.687 59.2607 263.474 63.8227 259.305 67.9258C255.133 72.0289 249.765 75.3934 243.196 78.0194C236.626 80.6423 229.356 82.1042 221.385 82.399V82.4021ZM243.308 39.3167C243.308 35.8062 242.052 32.7365 239.542 30.1106C237.033 27.4876 233.213 26.1746 228.082 26.1746C222.951 26.1746 218.873 27.5423 215.848 30.2777C212.819 33.0131 211.308 36.3412 211.308 40.2589C211.308 44.1765 212.895 47.3192 216.069 49.6868C219.243 52.0545 223.063 53.2368 227.53 53.2368C231.996 53.2368 235.74 51.7961 238.769 48.9118C241.794 46.0275 243.308 42.8301 243.308 39.3197V39.3167Z" fill="white"/>
<path d="M358.456 2.54999H370.302C372.812 2.54999 374.566 2.95726 375.561 3.76876C376.556 4.5833 377.093 6.24581 377.166 8.75933C377.609 19.9987 377.83 32.0861 377.83 45.0245C377.83 57.9629 377.573 67.4273 377.057 73.4148C376.908 75.1168 376.262 76.6699 375.118 78.0741C373.974 79.4783 372.478 80.1803 370.633 80.1803H352.142C349.557 80.1803 346.717 79.2564 343.616 77.4085C326.49 67.2784 315.715 61.1056 311.285 58.8869C310.399 58.5191 309.68 58.6467 309.125 59.2759C308.573 59.905 308.294 61.0691 308.294 62.7681V75.0773C308.294 76.4815 307.775 77.5908 306.743 78.4054C305.192 79.6637 301.205 80.2898 294.785 80.2898C293.013 80.2898 291.277 80.235 289.581 80.1226C287.882 80.0132 286.498 79.2534 285.43 77.8492C284.359 76.445 283.786 74.9284 283.713 73.3024C283.491 64.4306 283.382 53.2854 283.382 39.8637C283.382 26.4421 283.418 17.701 283.491 13.6344C283.564 9.56779 284.046 6.70171 284.929 5.0392C285.812 3.37669 287.512 2.54391 290.024 2.54391H302.204C304.713 2.54391 307.298 3.246 309.953 4.65016C332.835 16.5552 346.195 23.4666 350.033 25.3905C351.286 25.9832 352.285 26.0561 353.022 25.6124C353.759 25.1686 354.13 24.3571 354.13 23.1718V7.65301C354.13 6.1759 354.518 4.9541 355.292 3.99367C356.065 3.03325 357.118 2.55303 358.447 2.55303L358.456 2.54999Z" fill="white"/>
<path d="M404.074 49.9057L403.743 15.7467C403.743 12.4187 403.78 10.2759 403.853 9.31552C403.925 6.95092 404.499 5.23067 405.57 4.15779C406.638 3.08795 408.726 2.54999 411.827 2.54999H441.499C444.6 2.54999 446.685 3.08795 447.756 4.15779C448.824 5.23067 449.397 6.94789 449.473 9.31552C449.619 13.9748 449.695 19.5732 449.695 26.1169C449.695 32.6605 449.546 40.5901 449.252 49.9057C449.03 64.3242 441.611 73.8251 426.998 78.4084C418.584 81.0709 407.806 82.4021 394.668 82.4021C391.715 82.4021 389.758 81.5146 388.799 79.7396C387.841 77.9647 387.361 74.8798 387.361 70.4788C387.361 66.0779 389.057 63.6951 392.456 63.3243C396.589 62.8076 399.559 61.0508 401.371 58.0571C403.179 55.0634 404.083 52.3462 404.083 49.9057H404.074Z" fill="white"/>
<path d="M516.677 82.4021C507.744 82.4021 499.663 81.238 492.43 78.9099C485.196 76.5818 479.328 73.4574 474.825 69.5397C470.322 65.622 466.89 61.2423 464.526 56.3976C462.163 51.556 460.982 46.5107 460.982 41.2588C460.982 36.0068 462.181 30.9646 464.581 26.1199C466.978 21.2783 470.41 16.8986 474.879 12.9779C479.346 9.06022 485.193 5.91756 492.43 3.54993C499.663 1.18534 507.598 0 516.234 0C524.869 0 532.51 1.07288 539.152 3.2156C545.794 5.36136 551.146 8.28215 555.206 11.978C563.472 19.5185 567.607 28.4663 567.607 38.8152C567.607 44.0671 566.482 49.2036 564.23 54.2306C561.979 59.2607 558.769 63.8227 554.596 67.9258C550.424 72.0289 545.057 75.3934 538.487 78.0194C531.918 80.6423 524.648 82.1042 516.677 82.399V82.4021ZM538.6 39.3167C538.6 35.8062 537.343 32.7365 534.834 30.1106C532.325 27.4876 528.504 26.1746 523.373 26.1746C518.242 26.1746 514.164 27.5423 511.139 30.2777C508.111 33.0131 506.6 36.3412 506.6 40.2589C506.6 44.1765 508.187 47.3192 511.361 49.6868C514.535 52.0545 518.355 53.2368 522.821 53.2368C527.288 53.2368 531.032 51.7961 534.06 48.9118C537.085 46.0275 538.6 42.8301 538.6 39.3197V39.3167Z" fill="white"/>
<path d="M621.639 14.1967L621.418 24.2903V45.6932C621.418 48.7993 622.377 51.2004 624.297 52.9024C626.215 54.6044 628.466 55.4524 631.052 55.4524C633.637 55.4524 635.867 54.6044 637.751 52.9024C639.633 51.2034 640.573 48.7993 640.573 45.6932V12.6436C640.573 9.16963 641.034 6.61964 641.957 4.99056C642.879 3.36453 644.891 2.54999 647.992 2.54999H658.178C660.539 2.54999 662.165 3.25207 663.051 4.65624C664.747 7.16976 665.597 16.8925 665.597 33.8246C665.597 39.3714 665.521 43.6234 665.376 46.5776C665.154 52.5651 663.77 57.9082 661.225 62.6039C658.679 67.2997 655.411 71.0502 651.427 73.8616C643.38 79.5573 634.265 82.4021 624.079 82.4021C610.643 82.4021 599.534 79.2594 590.753 72.9741C586.323 69.795 582.837 65.5612 580.291 60.2758C577.745 54.9904 576.434 48.8358 576.361 41.8119C576.286 38.338 576.252 33.2167 576.252 26.4512C576.252 19.6857 576.343 14.8076 576.528 11.8108C576.71 8.81707 577.302 6.52542 578.3 4.93585C579.296 3.34629 581.307 2.55303 584.336 2.55303H613.899C616.851 2.55303 618.805 3.32805 619.767 4.88115C621.02 6.87798 621.648 9.98417 621.648 14.1967H621.639Z" fill="white"/>
<path d="M751.291 58.8899C752.693 60.37 757.676 65.9502 766.238 75.6365C766.754 76.3022 767.012 76.8948 767.012 77.4115C767.012 79.3354 766.163 80.2958 764.466 80.2958C760.552 80.3688 756.623 80.4052 752.675 80.4052C748.728 80.4052 744.795 80.3688 740.884 80.2958C738.742 80.2958 736.788 79.4479 735.016 77.7458L725.494 63.3273C725.124 62.8836 724.681 62.5887 724.165 62.4398C722.985 61.9961 722.393 62.4793 722.393 63.8804V75.1928C722.393 78.3719 720.305 80.0709 716.136 80.2958C711.964 80.5177 707.406 80.6271 702.464 80.6271C697.521 80.6271 691.54 80.4417 684.528 80.0709C682.386 79.925 680.671 79.1834 679.379 77.8522C678.086 76.521 677.331 75.0074 677.109 73.3054C676.517 66.8012 676.223 56.577 676.223 42.6417C676.223 28.7064 676.445 18.5581 676.888 12.1998C677.331 5.84157 680.541 2.62597 686.521 2.54999C692.129 2.47704 699.769 2.43753 709.439 2.43753C719.11 2.43753 727.117 2.51351 733.465 2.6594C742.616 2.80833 750.108 6.20933 755.94 12.8624C761.769 19.5155 764.688 27.0226 764.688 35.3747C764.688 40.2558 763.562 44.7662 761.311 48.9057C759.059 53.0483 755.718 56.3733 751.291 58.8868V58.8899ZM722.284 25.7309L722.505 46.2493C722.505 47.6535 723.279 48.3556 724.829 48.3556C729.405 48.3556 733.004 47.0791 735.625 44.5291C738.244 41.9791 739.555 38.9671 739.555 35.4901C739.555 32.0132 738.317 29.0225 735.847 26.5059C733.374 23.9924 729.739 22.7341 724.942 22.7341C723.17 22.7341 722.284 23.731 722.284 25.7279V25.7309Z" fill="white"/>
<path d="M166.801 163.974C166.653 165.676 165.934 167.19 164.641 168.521C163.348 169.852 161.598 170.591 159.382 170.74C153.329 171.108 148.347 171.293 144.436 171.293C140.524 171.293 135.909 171.108 130.596 170.74C126.536 170.372 124.397 168.597 124.176 165.415C124.1 164.16 124.027 162.516 123.954 160.479C123.878 158.446 123.787 156.653 123.678 155.1C123.569 153.547 123.162 152.328 122.461 151.44C121.76 150.553 120.522 150.109 118.753 150.109H110.448C108.676 150.109 107.438 150.553 106.74 151.44C106.04 152.328 105.633 153.547 105.524 155.1C105.414 156.653 105.32 158.446 105.248 160.479C105.172 162.513 105.099 164.157 105.026 165.415C104.805 168.594 102.662 170.369 98.6055 170.74C93.2894 171.108 88.4376 171.293 84.047 171.293C79.6564 171.293 74.4313 171.108 68.3809 170.74C66.1659 170.591 64.4121 169.852 63.1225 168.521C61.8299 167.19 61.1107 165.676 60.9621 163.974C60.3704 157.47 60.076 147.006 60.076 132.587C60.076 118.169 60.2217 108.799 60.5191 104.474C60.8134 100.149 61.4779 97.1914 62.5126 95.6019C63.5442 94.0123 65.6136 93.219 68.7117 93.219H95.726C98.3082 93.219 100.505 94.1065 102.313 95.8815C104.122 97.6564 105.026 99.9481 105.026 102.756V126.047C105.026 128.709 106.17 130.04 108.458 130.04H120.747C123.035 130.04 124.179 128.709 124.179 126.047V102.756C124.179 99.9481 125.083 97.6534 126.891 95.8815C128.7 94.1065 130.893 93.219 133.479 93.219H159.055C162.156 93.219 164.219 94.0153 165.254 95.6019C166.285 97.1914 166.95 100.149 167.247 104.474C167.542 108.799 167.69 118.169 167.69 132.587C167.69 147.006 167.393 157.467 166.804 163.974H166.801Z" fill="white"/>
<path d="M189.607 93.3284H219.279C222.38 93.3284 224.429 94.1035 225.424 95.6566C226.419 97.2097 227.084 100.407 227.417 105.249C227.748 110.093 227.915 119.482 227.915 133.417C227.915 147.352 227.621 157.577 227.029 164.081C226.807 165.783 226.049 167.296 224.759 168.628C223.467 169.959 221.749 170.697 219.61 170.846C215.402 171.141 210.532 171.29 204.994 171.29C199.456 171.29 194.216 171.141 189.27 170.846C187.128 170.7 185.414 169.959 184.121 168.628C182.828 167.296 182.073 165.783 181.851 164.081C181.26 157.577 180.965 147.352 180.965 133.417C180.965 119.482 181.132 110.09 181.463 105.249C181.794 100.407 182.458 97.2066 183.456 95.6566C184.452 94.1035 186.5 93.3284 189.601 93.3284H189.607Z" fill="white"/>
<path d="M304.425 111.294C297.783 111.294 293.113 113.014 290.418 116.452C287.724 119.889 286.377 125.342 286.377 132.809C286.377 144.565 289.809 150.443 296.675 150.443C298.077 150.443 298.999 150.407 299.442 150.331C298.556 150.331 297.837 148.778 297.282 145.672C296.727 142.565 296.451 139.313 296.451 135.912C296.451 132.511 297.373 130.311 299.218 129.314C301.063 128.317 303.627 127.816 306.913 127.816C310.199 127.816 312.484 127.834 313.776 127.87C315.066 127.907 316.544 128.056 318.207 128.314C319.866 128.575 321.141 128.961 322.027 129.478C324.093 130.66 325.128 132.435 325.128 134.8V150.99C325.128 156.756 324.093 161.361 322.027 164.798C319.96 168.236 316.086 170.251 310.402 170.843C302.431 171.655 290.252 172.062 273.863 172.062C267.294 172.062 261.666 171.026 256.978 168.956C252.29 166.886 248.654 164.005 246.072 160.306C241.348 153.431 238.987 144.687 238.987 134.077C238.987 123.466 242.383 114.023 249.173 105.741C255.964 97.4619 265.006 93.0245 276.3 92.4318C284.05 91.9881 289.66 91.7662 293.128 91.7662C305.751 91.7662 314.717 92.5413 320.033 94.0944C323.65 95.1308 325.459 98.0516 325.459 102.857C325.459 109.288 323.577 112.507 319.812 112.507C318.631 112.434 316.268 112.212 312.727 111.841C309.183 111.473 306.415 111.285 304.422 111.285L304.425 111.294Z" fill="white"/>
<path d="M445.48 163.974C445.331 165.676 444.612 167.19 443.32 168.521C442.027 169.852 440.273 170.591 438.061 170.74C432.008 171.108 427.025 171.293 423.114 171.293C419.203 171.293 414.588 171.108 409.275 170.74C405.215 170.372 403.076 168.597 402.854 165.415C402.778 164.16 402.706 162.516 402.633 160.479C402.557 158.446 402.466 156.653 402.357 155.1C402.244 153.547 401.838 152.328 401.14 151.44C400.436 150.553 399.201 150.109 397.432 150.109H389.127C387.355 150.109 386.117 150.553 385.419 151.44C384.718 152.328 384.312 153.547 384.202 155.1C384.093 156.653 383.999 158.446 383.926 160.479C383.853 162.513 383.778 164.157 383.705 165.415C383.483 168.594 381.341 170.369 377.284 170.74C371.971 171.108 367.116 171.293 362.726 171.293C358.335 171.293 353.11 171.108 347.06 170.74C344.845 170.591 343.091 169.852 341.801 168.521C340.509 167.19 339.789 165.676 339.641 163.974C339.049 157.47 338.755 147.006 338.755 132.587C338.755 118.169 338.9 108.799 339.198 104.474C339.492 100.149 340.157 97.1914 341.191 95.6019C342.223 94.0123 344.292 93.219 347.39 93.219H374.408C376.99 93.219 379.187 94.1065 380.995 95.8815C382.804 97.6564 383.708 99.9481 383.708 102.756V126.047C383.708 128.709 384.852 130.04 387.14 130.04H399.429C401.716 130.04 402.86 128.709 402.86 126.047V102.756C402.86 99.9481 403.765 97.6534 405.573 95.8815C407.381 94.1065 409.575 93.219 412.16 93.219H437.736C440.838 93.219 442.901 94.0153 443.936 95.6019C444.967 97.1914 445.632 100.149 445.929 104.474C446.223 108.799 446.372 118.169 446.372 132.587C446.372 147.006 446.075 157.467 445.486 163.974H445.48Z" fill="white"/>
<path d="M51.4738 39.885C50.5422 36.2318 46.9163 33.9857 43.269 34.7303C41.5243 32.3019 38.7661 30.7579 35.7713 30.5513C34.5758 26.5698 30.4461 24.2021 26.3862 25.2416C25.8886 25.3692 25.4183 25.5425 24.9722 25.7552C22.5357 23.2539 18.8733 22.0868 15.2504 23.0137C11.3816 24.0046 8.61132 27.1108 7.86185 30.7823C7.77385 30.8035 7.68889 30.8187 7.6009 30.843C2.19682 32.2229 -1.06201 37.7241 0.315556 43.131C1.69313 48.538 7.18823 51.8022 12.5862 50.4223C13.6058 50.161 14.5494 49.7537 15.399 49.2249C17.8356 51.787 21.5435 52.9936 25.2089 52.0575C27.075 51.5803 28.6832 50.6108 29.9363 49.3221C32.1575 50.6412 34.8792 51.1123 37.5767 50.4223C39.2425 49.9968 40.7051 49.1762 41.8884 48.0882C43.266 48.6839 44.8408 48.8449 46.4035 48.4438C50.163 47.4833 52.4326 43.6507 51.4738 39.882V39.885Z" fill="white"/>
<path d="M684.989 117.263C686.473 111.443 692.253 107.859 698.064 109.048C700.846 105.179 705.237 102.717 710.013 102.389C711.918 96.0426 718.5 92.2708 724.969 93.9272C725.761 94.1308 726.513 94.4074 727.223 94.7448C731.104 90.7602 736.942 88.9001 742.714 90.3773C748.879 91.9547 753.291 96.9057 754.49 102.759C754.629 102.79 754.766 102.82 754.905 102.854C763.508 105.054 768.699 113.823 766.502 122.439C764.306 131.056 755.552 136.256 746.949 134.055C745.323 133.639 743.821 132.989 742.468 132.15C738.587 136.235 732.676 138.155 726.835 136.663C723.861 135.903 721.298 134.356 719.304 132.305C715.766 134.405 711.427 135.156 707.127 134.055C704.472 133.378 702.145 132.071 700.258 130.338C698.064 131.287 695.555 131.542 693.063 130.907C687.071 129.375 683.457 123.266 684.986 117.266L684.989 117.263Z" fill="white"/>
<path d="M773.087 27.8493C773.809 25.0167 776.622 23.2751 779.45 23.8526C780.803 21.9713 782.942 20.7707 785.263 20.6127C786.192 17.5247 789.393 15.689 792.543 16.4944C792.928 16.5917 793.295 16.7284 793.641 16.8926C795.532 14.9535 798.372 14.0477 801.178 14.7681C804.179 15.537 806.328 17.9442 806.907 20.792C806.974 20.8072 807.041 20.8224 807.11 20.8376C811.298 21.9074 813.822 26.1746 812.754 30.3689C811.686 34.5632 807.426 37.0919 803.239 36.022C802.447 35.8184 801.715 35.5023 801.057 35.095C799.17 37.0828 796.293 38.0189 793.45 37.2925C792.003 36.9217 790.756 36.171 789.785 35.171C788.064 36.1922 785.952 36.557 783.859 36.022C782.566 35.6908 781.434 35.0555 780.515 34.2136C779.447 34.6756 778.227 34.8002 777.013 34.4902C774.097 33.7456 772.337 30.7731 773.084 27.8523L773.087 27.8493Z" fill="white"/>
<path d="M454.983 159.485C456.161 154.869 460.746 152.027 465.358 152.969C467.564 149.899 471.05 147.945 474.837 147.687C476.348 142.651 481.57 139.66 486.704 140.973C487.332 141.134 487.93 141.353 488.494 141.62C491.574 138.459 496.204 136.985 500.783 138.155C505.674 139.408 509.176 143.334 510.126 147.978C510.235 148.003 510.347 148.027 510.456 148.054C517.281 149.799 521.401 156.756 519.656 163.591C517.915 170.427 510.969 174.554 504.145 172.807C502.856 172.475 501.663 171.962 500.589 171.296C497.509 174.536 492.821 176.062 488.188 174.876C485.83 174.275 483.794 173.047 482.213 171.421C479.406 173.086 475.966 173.682 472.555 172.81C470.449 172.272 468.601 171.235 467.105 169.862C465.367 170.612 463.373 170.816 461.398 170.311C456.646 169.096 453.776 164.251 454.99 159.488L454.983 159.485Z" fill="white"/>
<path d="M56.1981 161.276C55.476 158.443 52.6632 156.701 49.8352 157.279C48.4819 155.397 46.3427 154.197 44.0215 154.039C43.093 150.951 39.8918 149.115 36.7422 149.921C36.3569 150.018 35.9897 150.155 35.6438 150.319C33.7535 148.38 30.9134 147.474 28.1066 148.194C25.1057 148.963 22.9574 151.37 22.3779 154.218C22.3111 154.233 22.2444 154.249 22.1746 154.264C17.9873 155.334 15.4627 159.601 16.5308 163.795C17.5989 167.989 21.859 170.518 26.0463 169.448C26.8383 169.245 27.5696 168.929 28.228 168.521C30.1153 170.509 32.9918 171.445 35.835 170.719C37.2823 170.348 38.5294 169.597 39.5004 168.597C41.2209 169.618 43.3327 169.983 45.4264 169.448C46.719 169.117 47.8508 168.482 48.7702 167.64C49.8383 168.102 51.058 168.226 52.2718 167.916C55.1877 167.172 56.9476 164.199 56.2012 161.279L56.1981 161.276Z" fill="white"/>
<path d="M595.911 151.653C593.839 150.27 591.812 148.778 589.846 147.182C586.602 144.55 583.616 141.724 580.919 138.742C579.244 140.262 577.302 141.474 575.126 142.371C578.255 146.504 582.087 150.443 586.441 153.975C591.894 158.397 597.793 161.877 603.609 164.154C604.061 164.148 604.507 164.136 604.944 164.117C605.09 161.874 605.53 159.634 606.267 157.458C602.76 155.853 599.279 153.902 595.911 151.653Z" fill="#EFC360"/>
<path d="M558.659 143.726C551.031 142.496 542.954 139.125 535.386 134.077C533.456 132.788 531.563 131.393 529.715 129.895C517.217 119.755 509.522 107.173 508.017 96.1611C499.776 92.5139 492.948 92.2556 489.705 95.4924C486.555 98.6351 486.607 105.088 489.829 112.342C496.611 125.576 515.921 139.353 542.844 150.158C555.185 155.112 568.12 158.996 579.757 161.403C573.536 156.291 568.232 150.41 564.26 144.237C562.464 144.207 560.592 144.036 558.656 143.723L558.659 143.726Z" fill="#0066FF"/>
<path d="M520.764 97.4011C523.492 104.003 528.872 110.786 535.914 116.497C542.957 122.211 550.697 126.071 557.713 127.372C563.563 128.457 568.147 127.557 570.293 124.907C572.435 122.257 572.359 117.576 570.086 112.069C567.359 105.467 561.979 98.6837 554.936 92.9728C553.38 91.7115 551.79 90.5383 550.178 89.4624C544.507 85.6754 538.603 83.1102 533.138 82.0981C531.169 81.7334 529.342 81.5936 527.703 81.6696C524.517 82.0526 521.947 83.1771 520.251 84.9825C518.431 87.6905 518.603 92.1705 520.764 97.4011Z" fill="#EFC360"/>
<path d="M633.634 110.057C633.567 110.069 633.503 110.081 633.436 110.093C629.313 110.75 624.965 112.197 620.365 113.728C619.345 114.069 618.31 114.409 617.267 114.753C626.539 123.317 643.337 124.202 649.142 124.506C651.891 124.649 654.006 127.001 653.863 129.758C653.721 132.514 651.372 134.63 648.62 134.487C638.158 133.937 629.719 132.353 622.819 129.645C616.296 127.083 611.28 123.567 607.487 118.898C600.56 110.37 599.291 99.8782 598.066 89.7299C596.558 77.2444 595.256 66.4608 584.536 59.3063C571.916 50.8843 554.806 54.3157 546.398 66.9562C544.999 69.0595 543.91 71.2994 543.139 73.6488C550.454 75.9283 558.113 80.0375 565.31 85.876C581.929 99.3585 590.058 117.163 586.423 129.849C589.239 133.262 592.492 136.475 596.124 139.423C600.903 143.301 606.073 146.483 611.256 148.754C619.727 138.952 634.398 136.751 645.443 144.125C645.571 144.21 645.698 144.298 645.825 144.386C645.944 144.462 646.062 144.538 646.18 144.617C651.287 148.024 654.749 152.99 656.363 158.47C664.153 152.13 668.03 141.839 665.997 131.666C663.021 116.771 648.499 107.081 633.631 110.066L633.634 110.057Z" fill="#0066FF"/>
<path d="M645.516 173.032C649.096 166.588 647.531 158.458 641.844 153.811C641.602 153.674 641.368 153.522 641.144 153.34C640.87 153.118 640.582 152.905 640.291 152.699C633.339 148.331 624.106 150.279 619.527 157.163C614.87 164.163 616.769 173.655 623.757 178.32C630.636 182.909 639.918 181.137 644.651 174.408C644.803 174.165 644.952 173.919 645.088 173.67C645.213 173.442 645.358 173.232 645.513 173.035L645.516 173.032Z" fill="#EFC360"/>
<path d="M657.028 170.011C671.326 162.184 679.008 145.827 675.783 129.697C671.732 109.434 652 96.2371 631.771 100.237C626.876 101.027 622.182 102.586 617.215 104.24C615.352 104.86 613.446 105.492 611.511 106.091C609.459 100.875 608.728 94.8207 607.967 88.5233C606.392 75.4755 604.605 60.6892 590.061 50.9816C572.863 39.5021 549.547 44.1796 538.087 61.4064C535.96 64.6068 534.358 68.0413 533.299 71.6611C531.147 71.4818 529.069 71.4909 527.087 71.6854C521.004 71.9863 516.067 74.2293 512.796 78.2716C512.681 78.4145 512.568 78.5604 512.459 78.7063C512.335 78.8521 512.21 78.998 512.089 79.147C510.517 81.0891 509.388 83.2774 508.672 85.6511C503.96 83.9278 499.566 83.1163 495.57 83.244C490.345 83.4081 485.879 85.1952 482.659 88.4108C476.39 94.6718 475.686 105.188 480.775 116.543C480.808 116.616 480.842 116.689 480.878 116.762C485.135 125.15 492.973 133.347 504.172 141.125C504.794 141.556 505.423 141.985 506.066 142.413C515.293 148.571 526.672 154.431 539.134 159.434C561.587 168.445 585.352 173.959 601.84 174.144C603.5 174.734 605.154 175.247 606.792 175.667C608.689 180.381 611.972 184.59 616.502 187.617C628.475 195.608 644.709 192.353 652.689 180.359C652.753 180.265 652.81 180.168 652.871 180.074C652.974 179.925 653.08 179.773 653.181 179.621C655.174 176.621 656.442 173.348 657.025 170.007L657.028 170.011ZM586.441 153.975C582.087 150.443 578.255 146.504 575.126 142.371C577.302 141.474 579.244 140.262 580.919 138.742C583.616 141.724 586.602 144.55 589.846 147.182C591.812 148.778 593.839 150.27 595.911 151.653C599.279 153.902 602.763 155.853 606.267 157.458C605.53 159.634 605.09 161.874 604.944 164.117C604.507 164.135 604.061 164.148 603.609 164.154C597.793 161.877 591.894 158.397 586.441 153.975ZM527.7 81.6726C529.339 81.5967 531.162 81.7365 533.135 82.1012C538.6 83.1133 544.504 85.6815 550.175 89.4655C551.784 90.5383 553.377 91.7115 554.933 92.9759C561.976 98.6898 567.356 105.471 570.083 112.072C572.359 117.579 572.435 122.257 570.29 124.91C568.147 127.56 563.563 128.46 557.71 127.375C550.694 126.074 542.954 122.214 535.911 116.5C528.869 110.786 523.489 104.006 520.761 97.4042C518.6 92.1765 518.425 87.6935 520.248 84.9855C521.941 83.1832 524.514 82.0556 527.7 81.6726ZM641.144 153.34C641.365 153.522 641.602 153.674 641.844 153.811C647.528 158.458 649.096 166.591 645.516 173.032C645.361 173.232 645.216 173.439 645.091 173.667C644.955 173.916 644.806 174.162 644.654 174.405C639.924 181.137 630.639 182.909 623.76 178.317C616.772 173.652 614.873 164.163 619.53 157.16C624.109 150.279 633.342 148.328 640.294 152.695C640.585 152.902 640.87 153.115 641.147 153.337L641.144 153.34ZM546.395 66.9502C554.803 54.3096 571.913 50.8782 584.533 59.3002C595.253 66.4548 596.555 77.2383 598.063 89.7238C599.288 99.8721 600.557 110.364 607.484 118.892C611.277 123.561 616.293 127.074 622.816 129.639C629.713 132.35 638.152 133.934 648.617 134.481C651.369 134.627 653.715 132.508 653.86 129.752C654.006 126.995 651.891 124.643 649.139 124.5C643.334 124.196 626.536 123.311 617.264 114.747C618.31 114.406 619.342 114.063 620.362 113.722C624.965 112.19 629.31 110.744 633.433 110.087C633.5 110.078 633.564 110.066 633.631 110.051C648.499 107.066 663.021 116.759 665.997 131.651C668.03 141.824 664.153 152.118 656.364 158.455C654.749 152.975 651.287 148.009 646.18 144.602C646.062 144.523 645.944 144.447 645.825 144.371C645.698 144.283 645.571 144.195 645.443 144.109C634.395 136.736 619.727 138.936 611.256 148.738C606.073 146.468 600.903 143.286 596.124 139.408C592.489 136.459 589.239 133.247 586.423 129.834C590.058 117.148 581.929 99.3433 565.31 85.8608C558.113 80.0223 550.455 75.9131 543.139 73.6336C543.91 71.2842 544.996 69.0443 546.398 66.941L546.395 66.9502ZM542.848 150.161C515.924 139.356 496.611 125.579 489.832 112.345C486.61 105.088 486.558 98.6381 489.708 95.4955C492.949 92.2586 499.776 92.5139 508.02 96.1641C509.525 107.179 517.22 119.761 529.718 129.898C531.566 131.396 533.459 132.791 535.389 134.08C542.957 139.131 551.034 142.499 558.662 143.729C560.598 144.043 562.47 144.21 564.267 144.243C568.239 150.419 573.542 156.3 579.763 161.409C568.126 158.999 555.191 155.115 542.851 150.164L542.848 150.161Z" fill="#272525"/>
<path d="M549.462 116.907C549.192 117.178 548.855 117.333 548.443 117.373C548.033 117.415 547.626 117.29 547.229 116.996C546.143 116.19 545.266 115.506 544.598 114.947C543.931 114.385 543.169 113.692 542.316 112.865C541.676 112.221 541.564 111.61 541.983 111.036C542.15 110.811 542.371 110.519 542.65 110.16C542.929 109.802 543.169 109.482 543.372 109.203C543.576 108.923 543.682 108.656 543.688 108.403C543.694 108.151 543.548 107.899 543.245 107.644L541.828 106.452C541.525 106.197 541.251 106.097 541.006 106.148C540.76 106.2 540.514 106.349 540.274 106.598C540.035 106.847 539.762 107.139 539.458 107.476C539.155 107.814 538.906 108.084 538.715 108.288C538.223 108.799 537.604 108.796 536.858 108.276C535.899 107.577 535.043 106.911 534.294 106.282C533.544 105.653 532.68 104.872 531.699 103.939C531.341 103.595 531.15 103.218 531.12 102.805C531.09 102.392 531.184 102.03 531.402 101.72C532.23 100.526 533.678 98.6959 535.738 96.2371C537.801 93.7752 539.164 92.1978 539.834 91.5018C540.502 90.8058 541.039 90.3955 541.443 90.2739C541.846 90.1523 542.313 90.3104 542.841 90.7572L547.45 94.6323C547.89 95.0031 548.139 95.4681 548.194 96.0304C548.249 96.5927 548.076 97.1124 547.672 97.5926L544.34 101.568C543.961 102.021 543.964 102.413 544.356 102.741L546.452 104.504C546.844 104.832 547.229 104.768 547.608 104.316L550.94 100.34C551.34 99.8599 551.823 99.5986 552.387 99.556C552.949 99.5135 553.452 99.6776 553.892 100.048L558.259 103.717C558.787 104.161 559.026 104.595 558.975 105.015C558.923 105.434 558.614 106.033 558.046 106.814C557.479 107.595 556.162 109.215 554.102 111.677C552.041 114.139 550.494 115.88 549.462 116.907Z" fill="#272525"/>
<path d="M628.105 164.123L634.14 158.181C634.735 157.61 635.123 157.245 635.306 157.093C635.739 156.698 636.146 156.507 636.522 156.513C636.899 156.519 637.354 156.802 637.885 157.355L642.994 162.664C643.528 163.221 643.792 163.686 643.783 164.06C643.777 164.436 643.568 164.835 643.158 165.254C642.354 166.084 641.368 167.059 640.2 168.187C639.032 169.314 637.593 170.652 635.882 172.205C633.273 174.649 630.302 174.955 626.967 173.129C625.044 172.08 622.95 170.381 620.689 168.032C620.18 167.503 620.004 167.002 620.152 166.524C620.304 166.047 620.771 165.43 621.557 164.673C622.343 163.917 623.059 163.81 623.712 164.354C624.516 165.005 625.341 165.233 626.184 165.041C627.031 164.85 627.671 164.543 628.105 164.123Z" fill="#272525"/>
</g>
<defs>
<clipPath id="clip0_247_33">
<rect width="813" height="192" fill="white"/>
</clipPath>
</defs>
</svg>
