<svg width="32" height="32" viewBox="0 0 32 32" fill="none" xmlns="http://www.w3.org/2000/svg">
<g clip-path="url(#clip0_10_227)">
<path d="M17.4118 20.6294C17.1945 19.8183 17.5108 19.609 18.4461 19.8553C19.4997 20.1391 20.5612 20.3929 21.6293 20.6165C21.5053 20.1539 21.8756 19.6812 22.7486 19.6952C23.622 19.7102 24.4629 19.6082 24.4629 19.6082C24.4629 19.6082 23.721 18.6898 23.3647 18.2895C22.7999 17.5715 23.0231 17.0148 23.3397 16.8065C23.3397 16.8065 22.784 16.583 22.3733 16.4441C21.5544 16.1677 21.5153 15.5568 22.1479 15.1383C22.9512 14.4272 24.1009 13.6234 24.1009 13.6234C23.6912 13.4841 23.0722 13.0286 23.3188 12.0943C23.5952 11.2754 24.128 10.0155 24.128 10.0155L21.9271 10.6052C21.115 10.8228 20.6975 10.1899 20.5733 9.72624C20.5733 9.72624 19.5478 10.9937 18.7769 11.8217C18.1199 12.618 17.2709 12.2252 17.1386 11.2669C17.0268 10.2261 16.8734 9.19027 16.679 8.16176C16.3396 8.74961 15.4977 8.8518 14.8489 8.28084C13.9587 7.27766 13.0073 6.04187 13.0073 6.04187C13.0073 6.04187 12.8002 7.58808 12.5321 8.90272C12.3709 9.69074 11.5906 10.0232 11.0339 9.79997C11.3798 10.7879 11.765 11.7616 12.1884 12.7189C12.5219 13.4988 11.9821 14.2638 11.0159 13.9023C9.93437 13.5707 8.29636 13.0169 8.29636 13.0169C8.42031 13.4795 8.34334 14.1215 7.56442 14.4548L5.36351 15.0445C5.36351 15.0445 6.45389 15.8695 7.10371 16.4402C7.75251 17.0112 7.47612 17.8301 7.18961 18.1547C7.18961 18.1547 8.50349 18.4241 9.63897 18.4922C10.427 18.6535 10.7833 19.0538 10.0967 19.7358C9.92633 20.0294 9.44068 20.5319 9.44068 20.5319C9.93412 20.5231 10.4068 20.8933 10.2757 21.7978C10.1683 22.3223 9.98504 23.4887 9.98504 23.4887C9.98504 23.4887 10.7331 23.0403 11.5131 22.7068C12.2622 22.2582 12.7339 22.6287 12.9431 22.9451C12.9431 22.9451 14.1156 21.7616 15.3192 20.6942C15.8902 20.0455 16.4158 20.1525 16.6017 20.8464L17.1295 22.816C17.4399 23.9746 17.518 25.1953 17.3568 25.9834C11.9896 26.8001 6.47053 23.8101 4.98091 18.2507C3.46017 12.5753 6.96773 6.66856 12.8745 5.08584C18.7823 3.50285 24.7733 6.86442 26.294 12.5399C27.7217 17.8679 24.7304 23.3862 19.5577 25.3936L19.9301 26.7835C26.03 24.5276 29.5596 18.2426 27.9149 12.1045C26.1457 5.50178 19.1899 1.77953 12.3558 3.6107C5.63696 5.41102 1.47415 12.1125 3.21222 18.5991C4.73296 24.2745 10.2909 27.8745 16.246 27.3971C17.2352 27.38 17.8451 27.341 18.5789 27.7647C18.8485 26.4519 18.3428 24.1039 18.0012 22.8292L17.4118 20.6294Z" fill="#FF0000"/>
</g>
<defs>
<clipPath id="clip0_10_227">
<rect width="25.5419" height="25.5419" fill="white" transform="translate(0 6.61072) rotate(-15)"/>
</clipPath>
</defs>
</svg>
