<svg width="743" height="370" viewBox="0 0 743 370" fill="none" xmlns="http://www.w3.org/2000/svg">
<g clip-path="url(#clip0_60_126)" filter="url(#filter0_d_60_126)">
<path d="M589.361 158.475C588.797 156.263 586.602 154.904 584.393 155.354C583.335 153.885 581.668 152.95 579.853 152.825C579.13 150.413 576.629 148.98 574.169 149.612C573.867 149.689 573.583 149.793 573.314 149.922C571.838 148.408 569.621 147.703 567.427 148.264C565.085 148.862 563.407 150.746 562.953 152.965C562.901 152.976 562.846 152.987 562.794 153.002C559.527 153.837 557.553 157.168 558.387 160.44C559.22 163.712 562.547 165.687 565.815 164.853C566.431 164.694 567.003 164.446 567.519 164.129C568.994 165.68 571.241 166.411 573.461 165.842C574.59 165.554 575.563 164.967 576.323 164.188C577.666 164.986 579.314 165.27 580.948 164.853C581.955 164.594 582.84 164.099 583.56 163.442C584.393 163.8 585.348 163.9 586.293 163.656C588.568 163.073 589.944 160.753 589.361 158.475Z" fill="white"/>
<path d="M77.4861 101.312L77.3533 28.1402C78.0688 20.6841 81.2555 16.777 86.9097 16.4151C90.9484 16.3265 117.818 16.2785 167.525 16.2785C172.91 16.2785 175.599 20.2779 175.599 28.2731C175.599 32.3169 173.22 34.3369 168.466 34.3369H139.125C137.24 34.3369 135.736 34.9684 134.618 36.224C133.497 37.4833 132.936 39.1451 132.936 41.2095V50.7779C132.936 53.5623 134.102 54.9546 136.436 54.9546H158.777C160.93 54.9546 162.546 55.4494 163.623 56.4354C164.7 57.4251 165.238 59.6926 165.238 63.2415C165.238 66.7904 164.722 69.0579 163.689 70.0476C162.657 71.0373 160.975 71.5285 158.644 71.5285H138.59C136.348 71.5285 134.799 72.0676 133.947 73.146C133.095 74.2243 132.667 75.9304 132.667 78.2681V101.445C132.667 104.591 131.996 106.925 130.649 108.45C129.303 109.979 127.555 110.74 125.401 110.74H87.1789C84.6672 110.74 82.5132 109.909 80.7207 108.247C78.9245 106.585 77.8475 104.274 77.4897 101.308L77.4861 101.312Z" fill="white"/>
<path d="M243.431 48.8908L243.298 75.8418C243.298 79.797 243.903 82.7365 245.116 84.6679C246.326 86.5993 248.86 87.5669 252.721 87.5669H286.772C290.899 87.6592 292.965 90.8019 292.965 96.9986C292.965 101.763 292.378 105.219 291.216 107.376C290.051 109.532 287.672 110.655 284.083 110.744C271.432 111.102 258.914 111.283 246.532 111.283C234.151 111.283 218.357 111.191 199.16 111.013C195.929 111.013 193.306 110.227 191.285 108.654C189.268 107.084 188.124 104.905 187.855 102.117C187.136 94.3028 186.778 81.9721 186.778 65.1286C186.778 48.2851 186.981 36.922 187.383 31.0354C187.785 25.1526 188.615 21.2455 189.873 19.3104C191.127 17.379 193.594 16.4151 197.275 16.4151H233.343C237.113 16.4151 239.602 17.4048 240.812 19.3805C242.022 21.3562 242.763 24.5469 243.032 28.9489C243.302 33.3509 243.434 39.9982 243.434 48.8908H243.431Z" fill="white"/>
<path d="M414.082 16.4151C415.874 16.4151 416.774 17.3125 416.774 19.1109C416.774 20.2779 416.28 21.5372 415.295 22.8851L385.147 70.7234C385.147 77.9985 384.922 88.6009 384.476 102.527C384.383 104.503 383.535 106.323 381.92 107.985C380.304 109.647 378.15 110.57 375.458 110.747C370.342 111.106 364.197 111.287 357.02 111.287C349.842 111.287 343.248 111.106 337.236 110.747C334.543 110.57 332.389 109.647 330.777 107.985C329.162 106.323 328.31 104.506 328.221 102.527C328.041 93.4534 327.952 84.0217 327.952 74.228L300.766 28.5464C299.419 26.482 298.748 24.7722 298.748 23.4243C298.748 18.9337 300.946 16.6847 305.343 16.6847L351.369 16.4151C353.969 16.4151 355.921 16.8176 357.223 17.6264C358.521 18.4351 360.07 20.097 361.866 22.6118L370.076 40.2641C371.511 42.2398 372.702 43.2295 373.643 43.2295C374.583 43.2295 375.731 42.4208 377.073 40.8032L390.801 19.2439C392.324 17.3568 394.253 16.4151 396.588 16.4151H414.085H414.082Z" fill="white"/>
<path d="M125.401 223.736C109.25 223.736 96.4845 219.626 87.1125 211.406C77.7368 203.185 73.049 191.575 73.049 176.57C73.049 167.408 74.5501 159.369 77.5561 152.448C80.562 145.531 84.7999 140.007 90.2734 135.874C101.128 127.702 115.442 123.61 133.205 123.61C144.691 123.61 156.173 125.183 167.658 128.326C172.054 129.762 174.253 133.311 174.253 138.973C174.253 146.698 171.829 150.561 166.987 150.561C166.179 150.561 163.531 150.203 159.046 149.483C154.557 148.766 151.418 148.404 149.626 148.404C143.252 148.404 138.343 150.627 134.887 155.074C131.431 159.52 129.705 164.823 129.705 170.976C129.705 177.128 131.321 182.542 134.552 187.213C137.783 191.885 142.175 194.311 147.741 194.488C151.51 194.669 158.194 194.758 167.794 194.758C172.46 194.758 175.016 196.959 175.466 201.361C175.735 202.979 175.868 204.618 175.868 206.28C175.868 207.942 175.735 209.629 175.466 211.332C174.928 214.567 172.416 216.923 167.931 218.408C163.442 219.888 156.984 221.148 148.549 222.182C140.114 223.212 132.398 223.733 125.401 223.733V223.736Z" fill="white"/>
<path d="M318.259 212.554C318.078 214.622 317.204 216.461 315.633 218.079C314.062 219.696 311.934 220.594 309.241 220.775C301.883 221.222 295.827 221.447 291.073 221.447C286.318 221.447 280.708 221.222 274.25 220.775C269.315 220.328 266.715 218.171 266.446 214.305C266.353 212.78 266.265 210.782 266.176 208.307C266.084 205.837 265.974 203.658 265.841 201.771C265.708 199.884 265.214 198.403 264.362 197.325C263.51 196.246 262.005 195.707 259.855 195.707H249.76C247.606 195.707 246.105 196.246 245.253 197.325C244.401 198.403 243.906 199.884 243.774 201.771C243.641 203.658 243.526 205.837 243.438 208.307C243.346 210.778 243.257 212.776 243.169 214.305C242.899 218.168 240.296 220.324 235.364 220.775C228.906 221.222 223.005 221.447 217.668 221.447C212.331 221.447 205.979 221.222 198.625 220.775C195.932 220.594 193.801 219.696 192.233 218.079C190.662 216.461 189.788 214.622 189.607 212.554C188.888 204.651 188.53 191.937 188.53 174.417C188.53 156.898 188.707 145.513 189.069 140.258C189.426 135.003 190.234 131.409 191.492 129.478C192.746 127.547 195.261 126.583 199.027 126.583H231.864C235.003 126.583 237.673 127.661 239.871 129.818C242.07 131.974 243.169 134.759 243.169 138.171V166.47C243.169 169.705 244.559 171.323 247.34 171.323H262.278C265.059 171.323 266.449 169.705 266.449 166.47V138.171C266.449 134.759 267.548 131.971 269.747 129.818C271.945 127.661 274.612 126.583 277.754 126.583H308.843C312.612 126.583 315.12 127.55 316.378 129.478C317.632 131.409 318.44 135.003 318.801 140.258C319.159 145.513 319.34 156.898 319.34 174.417C319.34 191.937 318.978 204.648 318.263 212.554H318.259Z" fill="white"/>
<path d="M339.05 218.552C337.302 216.89 336.177 214.15 335.686 210.331C335.192 206.513 334.945 195.061 334.945 175.968C334.945 156.876 335.259 144.416 335.886 138.574C336.601 131.029 339.788 127.166 345.442 126.985C351.904 126.808 378.685 126.716 425.788 126.716C431.081 126.716 433.729 130.084 433.729 136.823C433.729 142.126 431.394 144.774 426.732 144.774H397.123C395.238 144.774 393.733 145.406 392.616 146.661C391.494 147.921 390.934 149.538 390.934 151.514V161.215C390.934 163.911 392.143 165.259 394.567 165.259H419.061C420.496 165.259 421.595 165.395 422.358 165.661C423.118 165.931 423.815 166.718 424.446 168.021C425.073 169.325 425.386 171.459 425.386 174.421C425.386 177.383 424.87 179.362 423.837 180.352C422.804 181.342 421.123 181.833 418.792 181.833H396.853C394.611 181.833 393.062 182.394 392.21 183.517C391.358 184.639 390.93 186.368 390.93 188.705V195.308C390.93 199.171 392.767 201.102 396.448 201.102H429.96C431.575 201.102 433.01 201.575 434.268 202.517C435.522 203.459 436.152 205.527 436.152 208.717C436.152 211.908 435.389 214.759 433.866 217.274C432.339 219.789 430.546 221.048 428.481 221.048H345.442C342.93 221.048 340.798 220.217 339.05 218.555V218.552Z" fill="white"/>
<path d="M535.479 133.049L579.488 207.569C581.28 210.534 582.18 213.027 582.18 215.047C582.18 217.067 581.373 218.574 579.757 219.56C578.142 220.549 576.257 221.041 574.103 221.041H530.765C526.369 221.041 523.543 220.232 522.286 218.614C521.928 218.075 521.434 217.134 520.807 215.786L516.904 207.432C515.739 204.829 513.002 203.344 508.694 202.986H483.256C481.371 202.986 479.936 203.167 478.948 203.525C477.96 203.883 477.152 204.692 476.525 205.951L471.276 216.868C470.38 218.485 469.392 219.586 468.315 220.169C467.238 220.753 465.666 221.044 463.605 221.044H451.492C447.992 221.044 446.107 219.789 445.838 217.27C445.746 216.912 445.705 216.554 445.705 216.192C445.705 214.127 446.377 212.148 447.723 210.265L489.847 135.882C493.886 128.876 500.432 125.371 509.495 125.371H520.261C527.438 125.371 532.51 127.931 535.468 133.053L535.479 133.049ZM491.872 167.545L485.679 179.809C485.318 180.618 485.141 181.338 485.141 181.966C485.141 184.303 486.262 185.47 488.504 185.47H500.753C502.638 185.47 503.936 184.998 504.656 184.056C505.371 183.114 505.733 182.283 505.733 181.563C505.733 180.843 505.596 180.127 505.331 179.406L500.215 167.818C499.138 165.484 497.747 164.313 496.043 164.313C494.339 164.313 492.949 165.392 491.872 167.548V167.545Z" fill="white"/>
<path d="M650.547 203.662V214.981C650.547 218.843 647.921 220.908 642.672 221.181C637.424 221.451 631.725 221.584 625.581 221.584C619.436 221.584 612.413 221.358 604.517 220.908C601.913 220.73 599.829 219.829 598.258 218.212C596.686 216.594 595.768 214.755 595.499 212.687C594.779 204.784 594.422 192.361 594.422 175.429C594.422 158.497 594.691 146.166 595.229 138.441C595.768 130.715 599.67 126.808 606.94 126.716C615.283 126.535 624.212 126.446 633.721 126.446C643.229 126.446 653.527 126.583 664.607 126.849C675.686 127.118 684.726 131.295 691.727 139.382C698.727 147.47 702.224 156.363 702.224 166.064C702.224 175.765 699.129 183.764 692.937 190.05C686.744 196.339 677.682 199.481 665.75 199.481H655.253C654.088 199.481 653.011 199.884 652.022 200.693C651.034 201.501 650.543 202.491 650.543 203.658L650.547 203.662ZM650.414 154.882L650.683 179.813C650.683 181.519 651.624 182.372 653.509 182.372C659.071 182.372 663.445 180.821 666.632 177.723C669.815 174.624 671.408 170.964 671.408 166.74C671.408 162.515 669.903 158.881 666.901 155.823C663.895 152.769 659.476 151.24 653.645 151.24C651.491 151.24 650.414 152.452 650.414 154.878V154.882Z" fill="white"/>
<path d="M77.4861 321.909L77.3533 248.738C78.0688 241.282 81.2555 237.374 86.9097 237.013C90.9484 236.924 117.818 236.876 167.525 236.876C172.91 236.876 175.599 240.875 175.599 248.871C175.599 252.914 173.22 254.934 168.466 254.934H139.125C137.24 254.934 135.736 255.566 134.618 256.821C133.497 258.081 132.936 259.743 132.936 261.807V271.375C132.936 274.16 134.102 275.552 136.436 275.552H158.777C160.93 275.552 162.546 276.047 163.623 277.033C164.7 278.023 165.238 280.29 165.238 283.839C165.238 287.388 164.722 289.655 163.689 290.645C162.657 291.635 160.975 292.126 158.644 292.126H138.59C136.348 292.126 134.799 292.665 133.947 293.743C133.095 294.822 132.667 296.528 132.667 298.866V322.042C132.667 325.189 131.996 327.523 130.649 329.048C129.303 330.577 127.555 331.338 125.401 331.338H87.1789C84.6672 331.338 82.5132 330.507 80.7207 328.845C78.9245 327.183 77.8475 324.871 77.4897 321.906L77.4861 321.909Z" fill="white"/>
<path d="M273.712 243.35L317.721 317.869C319.513 320.835 320.413 323.328 320.413 325.348C320.413 327.368 319.605 328.874 317.99 329.86C316.374 330.85 314.49 331.341 312.336 331.341H268.998C264.602 331.341 261.776 330.532 260.519 328.915C260.157 328.376 259.667 327.434 259.04 326.086L255.137 317.733C253.972 315.129 251.235 313.645 246.927 313.286H221.489C219.604 313.286 218.169 313.467 217.181 313.826C216.192 314.184 215.385 314.993 214.758 316.252L209.509 327.168C208.613 328.786 207.624 329.886 206.547 330.47C205.47 331.053 203.899 331.345 201.838 331.345H189.725C186.225 331.345 184.34 330.089 184.071 327.571C183.979 327.213 183.938 326.854 183.938 326.492C183.938 324.428 184.609 322.449 185.956 320.565L228.08 246.182C232.119 239.177 238.665 235.672 247.728 235.672H258.494C265.671 235.672 270.743 238.231 273.701 243.353L273.712 243.35ZM230.105 277.845L223.912 290.11C223.551 290.918 223.374 291.638 223.374 292.266C223.374 294.604 224.495 295.771 226.737 295.771H238.986C240.871 295.771 242.169 295.298 242.888 294.356C243.604 293.415 243.965 292.584 243.965 291.864C243.965 291.144 243.833 290.427 243.563 289.707L238.448 278.119C237.371 275.785 235.98 274.614 234.276 274.614C232.572 274.614 231.182 275.692 230.105 277.849V277.845Z" fill="white"/>
<path d="M423.907 305.472C425.611 307.271 431.667 314.051 442.076 325.82C442.703 326.629 443.016 327.349 443.016 327.977C443.016 330.315 441.984 331.482 439.922 331.482C435.164 331.57 430.388 331.615 425.589 331.615C420.791 331.615 416.011 331.57 411.256 331.482C408.652 331.482 406.277 330.451 404.123 328.383L392.549 310.864C392.099 310.325 391.561 309.967 390.934 309.786C389.499 309.246 388.78 309.834 388.78 311.536V325.281C388.78 329.144 386.242 331.208 381.174 331.482C376.103 331.751 370.563 331.884 364.555 331.884C358.547 331.884 351.277 331.659 342.753 331.208C340.149 331.031 338.065 330.13 336.494 328.512C334.923 326.895 334.005 325.056 333.735 322.988C333.016 315.085 332.658 302.662 332.658 285.73C332.658 268.798 332.928 256.467 333.466 248.741C334.005 241.016 337.907 237.109 345.176 237.016C351.992 236.928 361.28 236.88 373.034 236.88C384.789 236.88 394.522 236.972 402.238 237.149C413.362 237.33 422.469 241.463 429.558 249.546C436.643 257.63 440.191 266.752 440.191 276.9C440.191 282.831 438.823 288.311 436.086 293.341C433.349 298.374 429.288 302.414 423.907 305.469V305.472ZM388.647 265.182L388.916 290.113C388.916 291.819 389.857 292.673 391.741 292.673C397.303 292.673 401.678 291.121 404.864 288.023C408.047 284.925 409.641 281.265 409.641 277.04C409.641 272.816 408.136 269.182 405.134 266.124C402.128 263.07 397.709 261.541 391.878 261.541C389.724 261.541 388.647 262.752 388.647 265.179V265.182Z" fill="white"/>
<path d="M459.909 328.849C458.161 327.187 457.036 324.447 456.545 320.628C456.051 316.81 455.804 305.358 455.804 286.265C455.804 267.173 456.117 254.713 456.744 248.871C457.46 241.326 460.647 237.463 466.301 237.282C472.763 237.105 499.544 237.013 546.647 237.013C551.94 237.013 554.588 240.381 554.588 247.12C554.588 252.423 552.253 255.071 547.591 255.071H517.981C516.097 255.071 514.592 255.703 513.474 256.958C512.353 258.217 511.792 259.835 511.792 261.811V271.512C511.792 274.208 513.002 275.556 515.425 275.556H539.92C541.354 275.556 542.453 275.692 543.217 275.958C543.977 276.228 544.674 277.014 545.304 278.318C545.932 279.622 546.245 281.756 546.245 284.718C546.245 287.68 545.729 289.659 544.696 290.649C543.663 291.638 541.981 292.13 539.65 292.13H517.712C515.47 292.13 513.921 292.691 513.069 293.814C512.217 294.936 511.789 296.665 511.789 299.002V305.605C511.789 309.468 513.626 311.399 517.306 311.399H550.819C552.434 311.399 553.869 311.872 555.126 312.814C556.381 313.755 557.011 315.824 557.011 319.014C557.011 322.205 556.248 325.056 554.724 327.571C553.198 330.086 551.405 331.345 549.34 331.345H466.301C463.789 331.345 461.657 330.514 459.909 328.852V328.849Z" fill="white"/>
<path d="M590.051 331.478C583.368 329.772 578.654 328.066 575.921 326.356C573.184 324.65 571.366 323.438 570.47 322.718C568.135 320.831 566.97 318.228 566.97 314.904C566.97 312.3 567.283 309.83 567.91 307.492C569.076 303.09 571.185 300.889 574.236 300.889C575.22 300.982 578.385 302.012 583.726 303.988C589.063 305.963 593.26 306.953 596.31 306.953C600.887 306.953 603.174 305.158 603.174 301.561C603.174 299.405 602.053 297.407 599.81 295.564C597.568 293.725 594.853 291.949 591.667 290.243C588.48 288.536 585.275 286.583 582.044 284.382C578.813 282.181 576.076 279.127 573.834 275.22C571.591 271.313 570.47 266.752 570.47 261.541C570.47 252.918 574.686 246.156 583.121 241.259C591.552 236.363 602.455 233.914 615.825 233.914C629.195 233.914 639.803 235.284 647.655 238.024C655.504 240.765 659.432 244.561 659.432 249.41C659.432 252.914 658.624 255.991 657.009 258.642C655.393 261.294 653.689 262.616 651.893 262.616C651.266 262.616 649.178 261.921 645.634 260.526C642.09 259.133 638.881 258.435 636.011 258.435C630.357 258.435 627.532 260.636 627.532 265.038C627.532 267.195 628.878 269.171 631.57 270.969C634.263 272.768 637.512 274.496 641.33 276.158C645.143 277.82 648.979 279.684 652.837 281.749C656.695 283.817 659.97 286.646 662.663 290.239C665.355 293.832 666.702 298.19 666.702 303.308C666.702 308.427 665.064 313.102 661.789 317.323C658.514 321.548 654.183 324.823 648.802 327.161C638.125 331.744 625.743 334.033 611.657 334.033C603.941 334.033 596.738 333.18 590.055 331.474L590.051 331.478Z" fill="white"/>
<path d="M304.97 60.7709C304.092 57.3291 300.673 55.2131 297.236 55.9147C295.591 53.6288 292.99 52.1701 290.169 51.9781C289.04 48.226 285.149 45.9955 281.321 46.9741C280.852 47.0923 280.406 47.2585 279.985 47.4579C277.688 45.1018 274.235 44.0013 270.824 44.8765C267.176 45.8109 264.565 48.7357 263.86 52.1959C263.779 52.2144 263.698 52.2329 263.613 52.2513C258.523 53.5513 255.454 58.7361 256.753 63.8324C258.051 68.9286 263.229 72.0012 268.319 70.7012C269.282 70.4538 270.171 70.0698 270.971 69.5749C273.265 71.9901 276.762 73.1275 280.218 72.2449C281.977 71.7944 283.493 70.8822 284.673 69.6672C286.765 70.9081 289.332 71.3512 291.877 70.7012C293.448 70.2987 294.824 69.5269 295.941 68.504C297.239 69.0653 298.722 69.2167 300.197 68.84C303.742 67.9352 305.881 64.3236 304.974 60.7746L304.97 60.7709Z" fill="white"/>
<path d="M15.7842 105.023C15.9206 104.99 16.0534 104.961 16.1899 104.931C17.3554 99.2366 21.6523 94.4136 27.6568 92.881C33.2778 91.4445 38.9615 93.254 42.742 97.1316C43.4354 96.8029 44.1694 96.5333 44.9366 96.3376C51.2362 94.7275 57.6465 98.3946 59.5017 104.573C64.1527 104.89 68.4275 107.287 71.1384 111.054C76.7999 109.898 82.4246 113.384 83.8704 119.049C85.3605 124.891 81.8382 130.833 76.0033 132.325C73.5764 132.946 71.131 132.695 68.9955 131.775C67.1587 133.463 64.8904 134.733 62.3049 135.394C58.1186 136.465 53.8955 135.734 50.4506 133.692C48.5106 135.69 46.0099 137.193 43.1182 137.935C37.4309 139.39 31.6734 137.518 27.8966 133.544C26.5762 134.36 25.1119 134.995 23.5296 135.398C15.1534 137.54 6.62975 132.477 4.49053 124.09C2.35131 115.703 7.40799 107.169 15.7842 105.027V105.023Z" fill="white"/>
<path d="M665.772 269.917C667.096 264.724 672.256 261.526 677.446 262.586C679.928 259.133 683.852 256.936 688.116 256.644C689.816 250.979 695.692 247.615 701.468 249.092C702.176 249.273 702.847 249.521 703.481 249.82C706.949 246.263 712.16 244.605 717.313 245.92C722.816 247.327 726.758 251.747 727.824 256.969C727.95 256.999 728.071 257.021 728.197 257.054C735.876 259.019 740.512 266.844 738.55 274.533C736.588 282.222 728.772 286.864 721.093 284.899C719.644 284.53 718.301 283.946 717.091 283.196C713.628 286.841 708.35 288.559 703.135 287.225C700.479 286.546 698.192 285.168 696.411 283.337C693.254 285.213 689.381 285.881 685.542 284.899C683.17 284.293 681.093 283.126 679.408 281.583C677.449 282.428 675.211 282.657 672.983 282.089C667.635 280.722 664.404 275.271 665.772 269.917Z" fill="white"/>
<path d="M654.932 73.6741C655.81 70.2322 659.229 68.1162 662.667 68.8179C664.312 66.5319 666.912 65.0732 669.733 64.8812C670.862 61.1292 674.753 58.8986 678.582 59.8773C679.05 59.9954 679.496 60.1616 679.917 60.361C682.215 58.0049 685.667 56.9044 689.079 57.7797C692.726 58.714 695.338 61.6388 696.042 65.0991C696.123 65.1175 696.204 65.136 696.289 65.1545C701.379 66.4544 704.448 71.6393 703.15 76.7355C701.851 81.8318 696.673 84.9043 691.583 83.6044C690.62 83.3569 689.731 82.9729 688.931 82.478C686.637 84.8932 683.14 86.0306 679.684 85.148C677.925 84.6975 676.409 83.7853 675.229 82.5703C673.138 83.8112 670.571 84.2543 668.026 83.6044C666.455 83.2018 665.079 82.43 663.961 81.4071C662.663 81.9684 661.18 82.1198 659.705 81.7431C656.16 80.8384 654.021 77.2267 654.929 73.6778L654.932 73.6741Z" fill="white"/>
<path d="M133.707 350.23C134.585 346.789 138.004 344.673 141.441 345.374C143.086 343.088 145.687 341.63 148.508 341.438C149.637 337.685 153.528 335.455 157.356 336.434C157.825 336.552 158.271 336.718 158.692 336.917C160.989 334.561 164.442 333.461 167.853 334.336C171.501 335.27 174.112 338.195 174.817 341.655C174.898 341.674 174.979 341.692 175.064 341.711C180.154 343.011 183.223 348.196 181.924 353.292C180.626 358.388 175.448 361.461 170.358 360.161C169.395 359.913 168.506 359.529 167.706 359.034C165.412 361.45 161.915 362.587 158.459 361.704C156.7 361.254 155.184 360.342 154.004 359.127C151.913 360.367 149.345 360.811 146.801 360.161C145.229 359.758 143.854 358.986 142.736 357.963C141.438 358.525 139.955 358.676 138.48 358.299C134.935 357.395 132.796 353.783 133.703 350.234L133.707 350.23Z" fill="white"/>
<path d="M558.475 114.492C555.543 113.742 552.618 112.845 549.723 111.811C544.943 110.101 540.384 108.066 536.091 105.732C534.778 108.148 533.037 110.323 530.905 112.228C536.154 115.707 542.136 118.676 548.547 120.973C556.58 123.846 564.742 125.46 572.329 125.726C572.845 125.534 573.35 125.342 573.845 125.146C573.111 122.513 572.716 119.773 572.687 116.977C568.021 116.549 563.244 115.718 558.475 114.496V114.492Z" fill="#EFC360"/>
<path d="M512.563 120.416C503.32 122.077 492.702 121.468 481.991 118.728C479.261 118.03 476.528 117.192 473.806 116.22C455.398 109.632 441.515 98.3096 435.363 86.2891C424.442 85.4287 416.508 87.8845 414.093 92.9032C411.743 97.7779 414.395 105.153 421.008 112.173C434.102 124.611 461.79 132.624 497.013 134.164C513.157 134.87 529.555 134.113 543.87 132.185C534.682 128.832 526.232 124.227 519.199 118.746C517.126 119.433 514.913 119.995 512.567 120.416H512.563Z" fill="#0066FF"/>
<path d="M450.485 82.574C456.265 89.0441 465.165 94.6499 475.536 98.365C485.908 102.076 496.342 103.384 504.91 102.047C512.058 100.932 516.956 98.0548 518.347 94.1514C519.741 90.248 517.771 84.9154 512.951 79.5163C507.171 73.0463 498.271 67.4367 487.9 63.7253C485.605 62.9055 483.311 62.2001 481.032 61.6203C473.006 59.567 465.202 59.002 458.526 60.0434C456.121 60.4201 453.971 60.9962 452.123 61.7422C448.623 63.4668 446.126 65.7933 444.909 68.5446C443.905 72.3852 445.908 77.4519 450.489 82.574H450.485Z" fill="#EFC360"/>
<path d="M585.024 51.5977C584.954 51.6383 584.884 51.6789 584.81 51.7196C580.343 54.1347 575.94 57.5433 571.277 61.155C570.245 61.9564 569.197 62.7651 568.135 63.5776C582.213 69.6598 601.835 63.9025 608.614 61.9121C611.827 60.9704 615.198 62.8131 616.138 66.0297C617.079 69.2462 615.239 72.6216 612.026 73.5633C599.803 77.1491 589.49 78.7334 580.487 78.4084C571.975 78.0982 564.808 76.0892 558.582 72.2671C547.211 65.2837 541.539 53.7618 536.058 42.6202C529.312 28.912 523.484 17.0761 508.314 13.1912C490.455 8.61931 472.209 19.4507 467.647 37.3319C466.887 40.3084 466.537 43.3144 466.599 46.3168C475.909 45.9844 486.343 47.6056 496.943 51.3983C521.423 60.1579 537.902 77.2968 538.831 93.3057C543.434 96.0828 548.454 98.4573 553.806 100.374C560.847 102.893 568.054 104.458 574.91 104.972C580.686 90.3218 596.631 81.8835 612.262 85.8866C612.443 85.9346 612.623 85.9826 612.804 86.0306C612.97 86.0712 613.14 86.1082 613.306 86.1525C620.531 88.0026 626.499 92.2975 630.552 97.933C636.941 87.5263 637.254 74.1615 630.833 63.3191C621.431 47.4431 600.884 42.1844 585.028 51.5977H585.024Z" fill="#0066FF"/>
<path d="M623.958 119.012C625.474 110.182 620.41 101.493 612.022 98.4537C611.69 98.3946 611.358 98.3133 611.03 98.1952C610.628 98.0511 610.211 97.9219 609.795 97.8037C600.065 95.599 590.261 101.552 587.775 111.287C585.249 121.191 591.239 131.306 601.127 133.839C610.86 136.332 620.797 130.556 623.519 120.933C623.596 120.593 623.666 120.249 623.725 119.91C623.777 119.599 623.862 119.3 623.958 119.009V119.012Z" fill="#EFC360"/>
<path d="M635.952 110.906C649.208 96.1714 651.447 74.3203 641.263 57.126C628.472 35.526 600.541 28.347 578.946 41.0876C573.649 43.9644 568.891 47.6463 563.86 51.5423C561.972 53.0047 560.043 54.4966 558.062 55.9627C553.614 50.8111 550.343 44.1638 546.938 37.2506C539.89 22.9257 531.897 6.6916 511.317 1.42547C486.977 -4.80451 462.114 9.95615 455.896 34.3258C454.742 38.8534 454.284 43.4363 454.528 48.0118C451.99 48.6729 449.607 49.5186 447.413 50.5415C440.556 53.3408 435.795 57.9015 433.67 63.8508C433.596 64.0613 433.526 64.2755 433.456 64.486C433.371 64.7039 433.287 64.9181 433.209 65.1397C432.187 67.998 431.771 70.9634 431.904 73.9732C425.807 73.8956 420.44 74.7376 415.907 76.4918C409.98 78.7851 405.576 82.6331 403.175 87.6186C398.502 97.3199 401.918 109.662 412.319 120.63C412.385 120.7 412.455 120.77 412.525 120.837C420.776 128.739 433.062 134.977 449.032 139.382C449.917 139.626 450.813 139.866 451.721 140.099C464.777 143.441 480.184 145.572 496.486 146.285C525.863 147.57 555.333 144.309 574.32 137.879C576.46 137.887 578.562 137.809 580.613 137.628C584.685 142.27 590.14 145.775 596.554 147.415C613.498 151.75 630.811 141.476 635.141 124.511C635.174 124.378 635.203 124.241 635.233 124.108C635.292 123.894 635.351 123.68 635.406 123.466C636.491 119.223 636.627 114.961 635.952 110.895V110.906ZM548.546 120.969C542.132 118.676 536.154 115.703 530.905 112.225C533.037 110.319 534.778 108.148 536.091 105.729C540.384 108.063 544.943 110.097 549.723 111.807C552.618 112.845 555.543 113.739 558.475 114.488C563.241 115.707 568.021 116.542 572.686 116.97C572.716 119.762 573.111 122.506 573.845 125.139C573.35 125.335 572.845 125.527 572.329 125.719C564.742 125.453 556.58 123.843 548.546 120.966V120.969ZM452.119 61.7459C453.967 60.9999 456.117 60.4238 458.522 60.0471C465.194 59.0057 472.999 59.5707 481.028 61.624C483.304 62.2075 485.602 62.9092 487.896 63.729C498.267 67.4404 507.167 73.0463 512.947 79.52C517.767 84.9191 519.737 90.2516 518.343 94.1551C516.949 98.0585 512.054 100.935 504.906 102.051C496.338 103.387 485.908 102.08 475.533 98.3687C465.161 94.6573 456.261 89.0514 450.482 82.5777C445.904 77.4519 443.902 72.3852 444.901 68.5483C446.118 65.797 448.615 63.4705 452.115 61.7459H452.119ZM611.034 98.1988C611.362 98.317 611.694 98.3983 612.026 98.4573C620.413 101.493 625.477 110.186 623.961 119.016C623.866 119.308 623.784 119.603 623.729 119.917C623.67 120.26 623.6 120.6 623.523 120.94C620.801 130.564 610.864 136.336 601.131 133.847C591.239 131.317 585.249 121.198 587.779 111.294C590.265 101.559 600.072 95.6027 609.798 97.8111C610.215 97.9292 610.628 98.0585 611.034 98.2025V98.1988ZM467.647 37.3356C472.213 19.4544 490.455 8.623 508.314 13.1949C523.484 17.0761 529.312 28.9157 536.058 42.6239C541.542 53.7654 547.211 65.2837 558.582 72.2707C564.808 76.0929 571.971 78.1019 580.487 78.4121C589.487 78.7408 599.803 77.1528 612.026 73.567C615.239 72.6253 617.083 69.2499 616.139 66.0334C615.198 62.8131 611.827 60.9704 608.614 61.9158C601.835 63.9062 582.213 69.6598 568.135 63.5813C569.197 62.7688 570.245 61.9601 571.278 61.1587C575.94 57.547 580.343 54.1384 584.81 51.7233C584.88 51.6863 584.954 51.6457 585.024 51.6014C600.88 42.1881 621.428 47.4468 630.829 63.3228C637.25 74.1652 636.937 87.53 630.549 97.9366C626.495 92.3049 620.528 88.0063 613.302 86.1562C613.136 86.1119 612.967 86.0749 612.801 86.0343C612.62 85.9863 612.439 85.9346 612.258 85.8903C596.627 81.8908 580.683 90.3255 574.907 104.975C568.05 104.458 560.843 102.896 553.802 100.378C548.451 98.461 543.431 96.0865 538.828 93.3094C537.898 77.3005 521.419 60.1616 496.94 51.402C486.339 47.6093 475.901 45.9844 466.596 46.3205C466.533 43.3144 466.883 40.3084 467.643 37.3356H467.647ZM497.017 134.168C461.794 132.628 434.109 124.614 421.012 112.177C414.399 105.156 411.751 97.7815 414.096 92.9069C416.512 87.8882 424.446 85.4324 435.367 86.2928C441.519 98.3133 455.402 109.64 473.81 116.224C476.528 117.195 479.265 118.034 481.994 118.732C492.702 121.472 503.32 122.081 512.567 120.419C514.913 119.998 517.129 119.437 519.202 118.75C526.24 124.23 534.686 128.835 543.873 132.189C529.559 134.116 513.161 134.873 497.017 134.168Z" fill="#272525"/>
<path d="M491.237 93.3759C491.038 93.7932 490.71 94.1071 490.256 94.3213C489.803 94.5355 489.286 94.5539 488.711 94.3804C487.143 93.8929 485.86 93.4645 484.871 93.0915C483.879 92.7185 482.729 92.2274 481.416 91.6254C480.423 91.1416 480.047 90.488 480.298 89.6608C480.398 89.3358 480.538 88.9111 480.715 88.3904C480.892 87.8697 481.039 87.4044 481.157 87.0019C481.279 86.5993 481.29 86.2485 481.198 85.9568C481.106 85.665 480.833 85.4361 480.386 85.2662L478.28 84.4722C477.83 84.3023 477.476 84.2949 477.215 84.4537C476.953 84.6125 476.731 84.8821 476.558 85.2625C476.381 85.6466 476.185 86.0897 475.975 86.5993C475.761 87.109 475.588 87.5152 475.448 87.8291C475.086 88.612 474.375 88.8594 473.312 88.564C471.929 88.1504 470.683 87.7294 469.569 87.3121C468.455 86.8911 467.149 86.3445 465.652 85.6724C465.106 85.4213 464.73 85.0668 464.53 84.6088C464.331 84.1472 464.291 83.6967 464.416 83.2498C464.888 81.5437 465.81 78.8663 467.186 75.214C468.562 71.5617 469.495 69.2019 469.982 68.1347C470.469 67.0674 470.919 66.3805 471.335 66.0777C471.748 65.7749 472.35 65.7712 473.135 66.0666L479.981 68.6517C480.634 68.8991 481.106 69.3349 481.397 69.9553C481.685 70.5794 481.696 71.2441 481.427 71.9568L479.203 77.8545C478.948 78.5303 479.11 78.9771 479.689 79.195L482.802 80.373C483.381 80.5909 483.798 80.3657 484.053 79.6899L486.277 73.7922C486.546 73.0795 486.992 72.5846 487.619 72.3114C488.246 72.0344 488.888 72.0196 489.541 72.2671L496.021 74.7155C496.807 75.0109 497.253 75.4097 497.364 75.912C497.474 76.4142 497.36 77.2267 497.021 78.3493C496.681 79.472 495.826 81.8613 494.45 85.5136C493.074 89.1659 492.001 91.7879 491.23 93.3796L491.237 93.3759Z" fill="#272525"/>
<path d="M600.412 115.814L604.948 106.571C605.398 105.673 605.697 105.101 605.848 104.854C606.187 104.226 606.575 103.842 607.01 103.698C607.442 103.554 608.08 103.694 608.913 104.115L616.906 108.144C617.739 108.565 618.23 108.993 618.374 109.425C618.517 109.861 618.436 110.4 618.138 111.047C617.547 112.321 616.81 113.838 615.921 115.6C615.036 117.361 613.922 119.478 612.579 121.944C610.569 125.796 607.283 127.347 602.724 126.598C600.098 126.173 597.015 125.065 593.474 123.281C592.677 122.879 592.271 122.376 592.253 121.767C592.235 121.158 592.522 120.264 593.12 119.079C593.714 117.893 594.496 117.483 595.462 117.845C596.646 118.266 597.682 118.196 598.575 117.638C599.467 117.077 600.08 116.468 600.408 115.81L600.412 115.814Z" fill="#272525"/>
<path d="M68.2615 223.256C67.3837 219.815 63.9646 217.699 60.5271 218.4C58.8821 216.114 56.2818 214.656 53.4603 214.464C52.3317 210.712 48.4405 208.481 44.612 209.46C44.1436 209.578 43.6973 209.744 43.2768 209.943C40.979 207.587 37.5268 206.487 34.1151 207.362C30.4673 208.296 27.856 211.221 27.1515 214.681C27.0704 214.7 26.9892 214.718 26.9044 214.737C21.8145 216.037 18.7459 221.222 20.0441 226.318C21.3424 231.414 26.5208 234.487 31.6107 233.187C32.5734 232.939 33.4622 232.555 34.2626 232.06C36.5567 234.476 40.0533 235.613 43.5092 234.73C45.2685 234.28 46.7844 233.368 47.9647 232.153C50.056 233.394 52.623 233.837 55.168 233.187C56.7392 232.784 58.1149 232.012 59.2325 230.989C60.5308 231.551 62.0135 231.702 63.4888 231.325C67.0333 230.421 69.1725 226.809 68.2652 223.26L68.2615 223.256Z" fill="white"/>
</g>
<defs>
<filter id="filter0_d_60_126" x="0" y="0" width="743" height="370" filterUnits="userSpaceOnUse" color-interpolation-filters="sRGB">
<feFlood flood-opacity="0" result="BackgroundImageFix"/>
<feColorMatrix in="SourceAlpha" type="matrix" values="0 0 0 0 0 0 0 0 0 0 0 0 0 0 0 0 0 0 127 0" result="hardAlpha"/>
<feOffset dy="4"/>
<feGaussianBlur stdDeviation="2"/>
<feComposite in2="hardAlpha" operator="out"/>
<feColorMatrix type="matrix" values="0 0 0 0 0 0 0 0 0 0 0 0 0 0 0 0 0 0 0.25 0"/>
<feBlend mode="normal" in2="BackgroundImageFix" result="effect1_dropShadow_60_126"/>
<feBlend mode="normal" in="SourceGraphic" in2="effect1_dropShadow_60_126" result="shape"/>
</filter>
<clipPath id="clip0_60_126">
<rect width="735" height="362" fill="white" transform="translate(4)"/>
</clipPath>
</defs>
</svg>
