<svg width="625" height="375" viewBox="0 0 625 375" fill="none" xmlns="http://www.w3.org/2000/svg">
<path d="M183.346 15.1168C182.525 11.9038 179.33 9.92849 176.117 10.5835C174.579 8.44956 172.149 7.08784 169.512 6.90857C168.457 3.40602 164.82 1.3238 161.241 2.23736C160.804 2.34767 160.386 2.5028 159.993 2.68896C157.846 0.489528 154.619 -0.537791 151.43 0.27924C148.021 1.15143 145.58 3.88176 144.921 7.11197C144.846 7.1292 144.77 7.14644 144.69 7.16368C139.933 8.37716 137.065 13.2173 138.278 17.9747C139.492 22.7321 144.332 25.6003 149.089 24.3868C149.989 24.1559 150.82 23.7973 151.568 23.3354C153.712 25.59 156.98 26.6518 160.211 25.8279C161.855 25.4073 163.272 24.5558 164.375 23.4216C166.33 24.5799 168.729 24.9936 171.108 24.3868C172.576 24.0111 173.862 23.2906 174.907 22.3356C176.12 22.8596 177.506 23.001 178.885 22.6494C182.198 21.8047 184.197 18.4332 183.349 15.1203L183.346 15.1168Z" fill="white"/>
<path d="M615.346 217.117C614.525 213.904 611.33 211.928 608.117 212.583C606.579 210.45 604.149 209.088 601.512 208.909C600.457 205.406 596.82 203.324 593.241 204.237C592.804 204.348 592.386 204.503 591.993 204.689C589.846 202.49 586.619 201.462 583.43 202.279C580.021 203.151 577.58 205.882 576.921 209.112C576.846 209.129 576.77 209.146 576.69 209.164C571.933 210.377 569.065 215.217 570.278 219.975C571.492 224.732 576.332 227.6 581.089 226.387C581.989 226.156 582.82 225.797 583.568 225.335C585.712 227.59 588.98 228.652 592.211 227.828C593.855 227.407 595.272 226.556 596.375 225.422C598.33 226.58 600.729 226.994 603.108 226.387C604.576 226.011 605.862 225.291 606.907 224.336C608.12 224.86 609.506 225.001 610.885 224.649C614.198 223.805 616.197 220.433 615.349 217.12L615.346 217.117Z" fill="white"/>
<path d="M87.9154 75.8962C88.0498 70.4459 88.1808 61.9412 87.5155 56.7563C85.9193 45.3248 77.2801 50.2442 77.2801 42.9323C77.2801 37.8819 83.1269 35.7548 87.381 35.7548C90.8353 35.7548 114.76 37.0855 125.795 37.0855C128.453 37.0855 155.171 35.7548 157.032 35.7548C162.217 35.7548 167.664 46.6555 167.664 55.6911C167.664 60.2106 165.537 64.8612 160.486 64.8612C151.316 64.8612 156.101 51.1716 130.58 51.1716C122.472 51.1716 119.018 50.5062 119.018 69.7806C119.018 72.1731 119.152 74.4311 126.861 74.4311C137.096 74.4311 130.584 62.2032 139.888 62.2032C147.466 62.2032 147.996 76.6926 147.996 81.874C147.996 88.1207 147.331 104.203 138.292 104.203C129.784 104.203 138.558 89.1825 124.337 89.1825C118.49 89.1825 119.287 90.2443 119.152 103.937C118.621 123.608 132.045 112.711 132.045 122.812C132.045 125.87 133.242 131.716 100.943 131.716C79.6761 131.716 76.2218 128.659 76.2218 122.943C76.2218 115.5 83.3993 118.954 86.1917 111.911C87.5223 108.188 87.9188 98.7524 87.9188 94.3674V75.8928L87.9154 75.8962Z" fill="white"/>
<path d="M181.488 130.258C177.234 130.258 170.456 130.524 170.456 124.411C170.456 116.172 180.823 123.081 181.222 107.664C181.488 97.9595 181.488 89.4548 181.488 81.612C181.488 73.7692 180.823 66.1953 180.557 58.7489C180.292 47.5828 168.595 53.4331 168.595 45.8557C168.595 36.1513 189.462 35.6204 195.977 35.6204C222.56 35.6204 223.891 40.1399 223.891 44.6594C223.891 52.3678 213.39 46.521 213.39 59.0144V101.283C213.39 110.853 214.986 115.507 224.422 115.507C247.016 115.507 239.307 97.0322 247.816 97.0322C253.797 97.0322 256.055 103.413 256.055 108.464C256.055 118.83 248.612 132.123 242.496 132.123C240.104 132.123 238.242 131.592 235.85 131.192C233.323 130.662 230.399 130.262 225.88 130.262H181.484L181.488 130.258Z" fill="white"/>
<path d="M321.183 72.1731C315.336 79.485 314.936 83.4702 314.936 92.7747C314.936 105.003 315.602 110.318 316.798 112.845C318.66 116.7 325.703 115.903 325.703 122.15C325.703 131.72 304.701 131.72 298.189 131.72C272.137 131.72 268.683 125.739 268.683 122.15C268.683 114.972 276.26 117.63 278.653 112.18C279.983 109.122 280.78 103.007 280.78 90.1167C280.78 82.5394 279.583 80.0159 274.933 74.0347L259.913 56.6219C253.4 49.0445 244.761 51.1716 244.761 44.6594C244.761 41.6016 243.831 35.6204 274.802 35.6204C302.45 35.6204 302.181 40.8053 302.181 43.7286C302.181 47.1864 298.458 48.5136 298.458 51.306C298.458 54.0984 303.774 62.6031 307.097 62.6031C310.42 62.6031 316.136 55.5566 316.136 52.5023C316.136 48.7825 312.282 48.5136 312.282 43.4632C312.282 35.6204 327.699 35.6204 332.753 35.6204C349.369 35.6204 353.754 37.613 353.754 43.4632C353.754 51.9714 344.184 47.0519 337.537 54.2294L321.19 72.1731H321.183Z" fill="white"/>
<path d="M129.384 138.646C142.412 138.646 150.785 145.158 154.24 145.158C157.163 145.158 157.963 144.227 160.221 144.227C165.802 144.227 172.98 152.601 172.98 167.356C172.98 174.933 168.46 181.311 160.617 181.311C146.928 181.311 150.382 157.786 126.723 157.786C116.487 157.786 112.233 167.356 112.233 174.664C112.233 194.335 122.734 211.082 141.343 211.082C158.225 211.082 160.748 201.912 164.868 201.912C168.722 201.912 170.584 206.432 170.584 209.755C170.584 215.602 164.468 227.833 157.825 227.833C153.306 227.833 144.001 235.541 128.319 235.541C100.405 235.541 77.5457 213.478 77.5457 186.761C77.5457 160.044 103.198 138.646 129.384 138.646Z" fill="white"/>
<path d="M275.326 211.751C275.326 215.74 275.857 217.732 279.445 219.725C282.103 221.187 283.965 221.983 283.965 225.306C283.965 228.629 283.7 235.142 257.513 235.142C251.666 235.142 234.65 235.011 234.65 226.103C234.119 215.867 243.955 227.164 243.955 200.182C243.955 193.004 242.358 193.27 235.712 193.27C217.103 193.27 218.83 193.8 218.83 205.763C218.83 223.972 227.069 216.664 227.069 225.303C227.069 234.607 207.664 235.138 201.283 235.138C194.902 235.138 176.693 234.607 176.693 225.568C176.693 222.776 178.685 221.049 180.947 219.987C185.732 217.729 187.459 218.125 187.459 190.346C187.459 154.99 186.928 157.913 182.008 155.255C180.016 154.193 177.623 152.997 177.623 150.336C177.623 140.1 199.821 139.039 207.264 139.039C212.845 139.039 228.265 139.704 228.265 147.678C228.265 151.797 226.007 153.259 222.95 155.121C219.626 156.982 218.83 158.575 218.83 170.406C218.83 177.849 222.284 176.919 228.665 176.919H235.443C244.217 176.919 243.951 175.588 243.951 171.468C243.951 156.979 241.693 156.052 239.962 155.121C237.436 153.659 235.043 152.463 235.043 149.005C235.043 146.478 234.512 139.035 260.961 139.035C267.207 139.035 284.885 139.166 284.885 148.471C284.885 151.394 283.424 153.39 280.766 154.717C276.777 156.445 275.315 156.048 275.315 177.181V211.741L275.326 211.751Z" fill="white"/>
<path d="M343.512 140.507C361.324 140.507 363.848 137.849 365.975 137.849C373.552 137.849 376.741 150.877 376.741 156.724C376.741 161.109 375.014 166.294 369.829 166.294C359.328 166.294 367.837 153.535 342.581 153.535C327.826 153.535 329.288 156.193 329.288 171.479C329.288 179.187 329.688 179.452 337.796 179.452C347.897 179.452 340.323 164.698 349.758 164.698C357.467 164.698 357.998 179.718 357.998 184.903C357.998 190.353 357.067 206.301 349.093 206.301C341.119 206.301 349.093 192.346 335.669 192.346C330.088 192.346 330.219 197.396 330.219 201.65C330.219 221.056 331.549 220.125 345.504 220.125C372.753 220.125 365.044 201.385 375.941 201.385C380.196 201.385 382.323 206.17 382.323 209.893C382.323 218.932 375.145 235.148 369.829 235.148C368.898 235.148 366.771 234.749 363.982 234.352C361.059 234.087 357.336 233.687 352.816 233.687H298.189C289.415 233.687 289.284 229.698 289.284 227.971C289.284 220.659 298.323 226.509 299.254 212.42C300.85 188.229 300.981 190.622 299.654 166.563C298.723 146.226 288.622 156.727 288.622 147.288C288.622 139.18 299.789 140.511 305.239 140.511H343.519L343.512 140.507Z" fill="white"/>
<path d="M410.371 185.699C414.49 176.529 419.941 164.832 419.941 154.331C419.941 145.161 424.195 138.249 436.023 138.249C447.851 138.249 454.897 150.077 460.082 158.851C462.34 162.705 482.411 203.377 487.196 214.278C491.581 224.379 498.758 218.267 498.758 225.841C498.758 235.541 479.884 235.145 473.237 235.145C454.232 235.145 442.8 235.014 442.8 226.771C442.8 220.39 450.908 222.783 450.908 218.132C450.908 212.151 447.585 211.62 426.187 211.62C419.275 211.62 415.156 211.885 415.156 218.398C415.156 223.582 423.664 220.125 423.664 227.037C423.664 235.011 409.309 235.145 403.993 235.145C384.987 235.145 383.257 231.556 383.257 227.302C383.257 221.056 390.434 222.917 394.288 218.132C397.212 214.543 400.004 208.162 401.997 203.912L410.371 185.703V185.699ZM438.284 195.269C439.615 195.269 443.6 195.535 443.6 193.542C443.6 191.549 439.746 184.637 438.681 182.776C437.484 180.649 435.226 175.733 432.299 175.733C429.111 175.733 426.849 183.707 426.318 185.168C425.787 186.63 423.526 191.815 423.526 193.411C423.526 195.669 426.849 195.272 428.311 195.272H438.281L438.284 195.269Z" fill="white"/>
<path d="M512.979 160.709C512.979 150.739 500.616 155.128 500.616 146.754C500.616 141.438 506.463 140.242 510.586 140.242C513.909 140.242 517.098 140.507 520.422 140.507C539.696 140.507 551.393 138.646 556.974 138.646C575.052 138.646 592.462 149.146 592.462 169.083C592.462 189.019 575.714 199.52 557.24 199.52C553.251 199.52 549.266 198.854 545.677 198.854C544.081 198.854 543.55 199.52 543.55 200.981V208.69C543.95 225.306 553.651 218.394 553.651 226.103C553.651 234.742 534.511 235.142 528.53 235.142C522.949 235.142 503.274 235.011 503.274 226.368C503.274 219.056 512.979 223.576 512.979 212.678V160.709ZM548.601 154.328C543.416 154.328 543.55 155.924 543.55 158.582V178.518C543.55 181.311 542.354 184.365 549.531 184.365C558.305 184.365 561.759 177.718 561.759 169.61C561.759 161.502 557.505 154.324 548.601 154.324V154.328Z" fill="white"/>
<path d="M87.9154 282.74C88.0498 277.289 88.1808 268.785 87.5155 263.6C85.9193 252.168 77.2801 257.088 77.2801 249.776C77.2801 244.725 83.1269 242.598 87.381 242.598C90.8353 242.598 114.76 243.929 125.795 243.929C128.453 243.929 155.171 242.598 157.032 242.598C162.217 242.598 167.664 253.499 167.664 262.535C167.664 267.054 165.537 271.705 160.486 271.705C151.316 271.705 156.101 258.015 130.58 258.015C122.472 258.015 119.018 257.35 119.018 276.624C119.018 279.017 119.152 281.275 126.861 281.275C137.096 281.275 130.584 269.047 139.888 269.047C147.466 269.047 147.996 283.536 147.996 288.717C147.996 294.964 147.331 311.046 138.292 311.046C129.784 311.046 138.558 296.026 124.337 296.026C118.49 296.026 119.287 297.088 119.152 310.781C118.621 330.452 132.045 319.554 132.045 329.655C132.045 332.713 133.242 338.56 100.943 338.56C79.6761 338.56 76.2218 335.502 76.2218 329.786C76.2218 322.343 83.3993 325.798 86.1917 318.755C87.5223 315.031 87.9188 305.596 87.9188 301.211V282.736L87.9154 282.74Z" fill="white"/>
<path d="M181.888 289.121C186.007 279.951 191.458 268.254 191.458 257.753C191.458 248.583 195.712 241.671 207.54 241.671C219.368 241.671 226.414 253.499 231.599 262.273C233.857 266.127 253.928 306.799 258.713 317.7C263.098 327.801 270.275 321.688 270.275 329.262C270.275 338.963 251.401 338.567 244.754 338.567C225.749 338.567 214.317 338.436 214.317 330.193C214.317 323.812 222.426 326.204 222.426 321.554C222.426 315.573 219.102 315.042 197.704 315.042C190.792 315.042 186.673 315.307 186.673 321.819C186.673 327.004 195.181 323.546 195.181 330.458C195.181 338.432 180.826 338.567 175.51 338.567C156.505 338.567 154.774 334.978 154.774 330.724C154.774 324.477 161.952 326.339 165.806 321.554C168.729 317.965 171.521 311.584 173.514 307.333L181.888 289.124V289.121ZM209.801 298.691C211.132 298.691 215.117 298.956 215.117 296.964C215.117 294.971 211.263 288.059 210.198 286.197C209.002 284.07 206.743 279.154 203.817 279.154C200.628 279.154 198.366 287.128 197.835 288.59C197.305 290.052 195.043 295.236 195.043 296.833C195.043 299.091 198.366 298.694 199.828 298.694H209.798L209.801 298.691Z" fill="white"/>
<path d="M282.238 271.574C282.238 250.972 272.137 259.48 272.137 251.237C272.137 243.926 282.503 242.998 287.823 242.998C290.615 242.998 293.273 243.264 296.065 243.398C298.723 243.664 301.516 243.929 304.174 243.929C308.428 243.929 312.682 243.664 317.067 243.398C321.321 243.267 325.706 242.998 329.96 242.998C344.98 242.998 362.393 249.645 362.393 267.323C362.393 275.297 358.539 283.009 351.096 286.597C349.9 287.263 348.969 287.663 348.969 289.255C348.969 291.248 350.696 291.779 352.292 292.444C361.597 295.902 365.716 302.014 367.578 316.369C369.174 328.731 377.813 321.288 377.813 329.397C377.813 334.447 371.698 339.763 356.681 339.763C335.414 339.763 332.756 327.535 328.636 309.988C327.175 303.872 324.913 297.891 317.605 297.891C314.681 297.891 313.616 298.291 313.616 306.665C313.616 310.519 313.882 315.835 314.547 319.558C315.609 325.674 322.39 323.812 322.39 330.193C322.39 334.978 319.066 338.567 297.534 338.567C291.153 338.567 272.278 338.567 272.278 328.866C272.278 321.954 282.248 326.739 282.248 309.46V271.58L282.238 271.574ZM313.075 277.42C312.809 280.878 312.144 283.802 316.529 283.802C325.168 283.802 327.961 279.017 327.961 270.774C327.961 264.262 326.365 257.615 318.656 257.615C313.737 257.615 313.871 260.673 313.606 264.793L313.075 277.42Z" fill="white"/>
<path d="M435.488 243.929C453.301 243.929 455.824 241.271 457.951 241.271C465.529 241.271 468.718 254.299 468.718 260.146C468.718 264.531 466.99 269.715 461.806 269.715C451.305 269.715 459.813 256.957 434.557 256.957C419.803 256.957 421.264 259.615 421.264 274.9C421.264 282.609 421.664 282.874 429.772 282.874C439.873 282.874 432.299 268.119 441.735 268.119C449.443 268.119 449.974 283.14 449.974 288.324C449.974 293.775 449.043 309.722 441.07 309.722C433.096 309.722 441.07 295.767 427.645 295.767C422.064 295.767 422.195 300.818 422.195 305.072C422.195 324.477 423.526 323.546 437.481 323.546C464.729 323.546 457.021 304.806 467.918 304.806C472.172 304.806 474.299 309.591 474.299 313.315C474.299 322.354 467.121 338.57 461.806 338.57C460.875 338.57 458.748 338.17 455.959 337.774C453.035 337.508 449.312 337.109 444.793 337.109H390.165C381.392 337.109 381.261 333.12 381.261 331.393C381.261 324.081 390.3 329.931 391.231 315.842C392.827 291.651 392.958 294.044 391.631 269.984C390.7 249.648 380.599 260.149 380.599 250.71C380.599 242.602 391.765 243.932 397.215 243.932H435.495L435.488 243.929Z" fill="white"/>
<path d="M480.549 273.035C480.549 259.211 493.842 242.064 519.625 242.064C528.133 242.064 537.703 245.787 539.696 245.787C541.558 245.787 543.419 243.926 546.208 243.926C550.728 243.926 560.828 254.161 560.828 265.323C560.828 269.843 557.905 274.363 552.986 274.363C544.081 274.363 538.896 259.211 525.072 259.211C520.952 259.211 516.564 261.073 516.564 265.858C516.564 276.359 534.773 273.566 550.193 283.802C558.436 289.252 562.556 295.898 562.556 305.865C562.556 321.416 549.797 338.96 518.825 338.96C510.052 338.96 495.032 336.702 487.458 332.579C481.077 328.99 478.019 314.9 478.019 308.123C478.019 304.534 479.615 300.945 483.6 300.945C493.039 300.945 491.443 322.078 515.899 322.078C518.822 322.078 526.134 320.616 526.134 315.566C526.134 305.996 507.925 308.388 493.17 296.56C485.858 290.714 480.542 282.605 480.542 273.035H480.549Z" fill="white"/>
<path d="M456.845 119.661C454.163 119.192 451.477 118.589 448.809 117.861C444.407 116.658 440.177 115.148 436.164 113.352C435.154 115.607 433.74 117.675 431.958 119.526C436.905 122.281 442.473 124.532 448.382 126.145C455.783 128.169 463.216 129.048 470.038 128.765C470.49 128.559 470.927 128.352 471.358 128.141C470.521 125.835 469.976 123.405 469.759 120.905C465.543 120.843 461.202 120.426 456.841 119.661H456.845Z" fill="#EFC360"/>
<path d="M416.073 128.128C407.895 130.251 398.329 130.437 388.535 128.721C386.039 128.283 383.529 127.721 381.023 127.038C364.058 122.405 350.827 113.214 344.484 102.869C334.631 102.848 327.685 105.596 325.861 110.256C324.089 114.783 326.975 121.209 333.387 127.042C345.987 137.284 371.37 142.558 403.069 141.514C417.596 141.035 432.251 139.228 444.958 136.515C436.488 134.143 428.593 130.599 421.906 126.176C420.092 126.935 418.148 127.59 416.069 128.128H416.073Z" fill="#0066FF"/>
<path d="M357.787 98.5008C363.417 103.899 371.784 108.309 381.34 110.922C390.9 113.535 400.345 113.986 407.937 112.201C414.269 110.711 418.465 107.795 419.447 104.203C420.43 100.611 418.3 95.967 413.601 91.4647C407.971 86.0661 399.604 81.6568 390.045 79.0437C387.931 78.468 385.825 77.9957 383.743 77.6303C376.403 76.341 369.364 76.3754 363.448 77.7647C361.314 78.2681 359.428 78.93 357.822 79.7263C354.799 81.5121 352.72 83.7666 351.817 86.3143C351.182 89.8237 353.327 94.2226 357.784 98.5008H357.787ZM367.861 99.5385C368.102 98.8559 368.74 98.6077 369.384 98.5456C370.75 98.4112 371.136 98.6559 373.552 91.8715C376.627 83.2357 376.245 83.9045 375.273 82.8255C374.88 82.3911 374.397 81.8913 374.628 81.2432C375.517 78.7438 381.033 80.4158 382.85 81.0639C384.215 81.55 387.921 83.053 387.228 85.0008C386.87 86.0074 386.191 86.1695 385.28 86.3556C384.308 86.5211 383.974 86.8417 382.943 89.7306C382.295 91.5474 383.222 91.6232 384.781 92.1783L386.435 92.7678C388.58 93.5297 388.628 93.1849 388.986 92.1783C390.248 88.6378 389.776 88.2138 389.435 87.838C388.945 87.2623 388.466 86.7624 388.766 85.9178C388.986 85.3007 389.503 83.4357 395.964 85.7385C397.491 86.2832 401.797 87.8518 400.987 90.1271C400.732 90.8407 400.201 91.2027 399.435 91.2957C398.312 91.3716 397.987 91.1475 396.15 96.3083L393.144 104.751C392.796 105.723 392.754 106.257 393.458 107.057C393.978 107.647 394.364 108.002 394.075 108.815C393.795 109.594 393.154 111.194 386.759 108.915C385.332 108.405 381.188 106.895 381.961 104.72C382.722 102.172 384.139 105.789 386.487 99.1972C387.111 97.4424 386.697 97.3701 385.077 96.7909C380.53 95.1706 380.906 95.4533 379.868 98.3732C378.282 102.82 380.933 101.752 380.182 103.861C379.372 106.133 374.587 104.575 373.028 104.02C371.536 103.489 367.068 101.752 367.854 99.5419L367.861 99.5385Z" fill="#EFC360"/>
<path d="M476.336 61.4931C476.278 61.5344 476.216 61.5758 476.154 61.6137C472.313 64.082 468.597 67.4398 464.663 70.9975C463.791 71.787 462.909 72.5833 462.009 73.3831C475.054 77.8613 492.256 71.356 498.2 69.1083C501.016 68.0431 504.167 69.46 505.232 72.2799C506.298 75.0965 504.877 78.2474 502.061 79.3126C491.346 83.3667 482.2 85.4972 474.106 85.8213C466.449 86.1316 459.882 84.825 454.039 81.8258C443.359 76.3513 437.481 66.4228 431.796 56.8184C424.801 45.0042 418.761 34.7999 404.889 32.366C388.555 29.5013 372.935 40.4571 370.071 56.7908C369.595 59.5074 369.488 62.2273 369.75 64.9129C378.075 63.9717 387.549 64.7095 397.315 67.3777C419.872 73.5382 435.833 87.7587 437.763 102.034C442.083 104.206 446.747 105.989 451.681 107.333C458.169 109.105 464.743 110.012 470.927 110.001C475.102 96.4772 488.823 87.8242 503.119 90.3339C503.285 90.3615 503.45 90.396 503.616 90.427C503.767 90.4511 503.919 90.4753 504.074 90.5028C510.683 91.6612 516.33 95.1017 520.353 99.8694C525.365 90.1064 524.727 78.1129 518.226 68.8429C508.704 55.2671 489.909 51.9714 476.336 61.4931Z" fill="#0066FF"/>
<path d="M515.892 119.206C516.647 111.194 511.507 103.755 503.774 101.61C503.471 101.579 503.171 101.531 502.868 101.448C502.495 101.348 502.116 101.262 501.733 101.183C492.856 99.8763 484.469 105.885 482.911 114.779C481.325 123.825 487.392 132.475 496.438 134.061C505.339 135.622 513.854 129.769 515.637 120.957C515.681 120.647 515.723 120.337 515.75 120.026C515.778 119.744 515.83 119.471 515.895 119.206H515.892ZM512.072 110.777C511.6 112.504 509.225 111.001 508.394 113.773L505.332 123.939C503.209 130.934 495.711 129.6 493.849 129.089C489.992 128.035 484.676 124.87 485.975 120.116C486.565 117.954 488.561 116.534 490.788 117.144C492.715 117.672 494.318 119.395 493.746 121.488C493.591 122.053 493.204 122.553 493.087 122.988C492.86 123.818 493.398 124.467 494.215 124.618C498.248 125.29 498.238 117.999 500.137 112.087C501.313 108.443 497.617 109.539 498.227 107.312C498.4 106.681 499.248 104.627 505.729 106.395C512.013 108.112 512.327 109.839 512.072 110.77V110.777Z" fill="#EFC360"/>
<path d="M526.089 111.118C536.966 97.0046 537.472 77.2787 527.158 62.5755C514.203 44.1044 488.654 39.5987 470.159 52.4954C465.605 55.436 461.592 59.0626 457.348 62.8996C455.755 64.3406 454.128 65.8092 452.449 67.2571C448.106 62.9478 444.713 57.2183 441.187 51.2612C433.878 38.9161 425.594 24.9197 406.775 21.6205C384.515 17.7146 363.231 32.6487 359.325 54.9051C358.601 59.0385 358.505 63.1754 359.039 67.2605C356.808 68.0259 354.73 68.9498 352.83 70.0184C346.873 72.997 342.915 77.4097 341.416 82.8876C341.364 83.0806 341.316 83.2771 341.268 83.4702C341.206 83.6701 341.147 83.8701 341.092 84.0735C340.371 86.7073 340.202 89.3893 340.53 92.0749C335.055 92.4265 330.301 93.5503 326.354 95.4326C321.193 97.8975 317.512 101.648 315.698 106.278C312.172 115.293 316.088 126.111 326.168 135.222C326.234 135.281 326.299 135.34 326.368 135.395C334.314 141.907 345.76 146.65 360.387 149.498C361.197 149.657 362.017 149.808 362.848 149.953C374.79 152.049 388.755 152.897 403.424 152.415C429.862 151.542 456.069 146.595 472.658 139.532C474.578 139.39 476.457 139.177 478.284 138.873C482.252 142.752 487.389 145.513 493.253 146.544C508.749 149.264 523.569 138.866 526.289 123.37C526.31 123.25 526.327 123.126 526.344 123.005C526.382 122.808 526.42 122.612 526.455 122.415C527.134 118.54 526.965 114.71 526.079 111.115L526.089 111.118ZM448.385 126.145C442.476 124.532 436.909 122.281 431.962 119.526C433.744 117.675 435.157 115.607 436.167 113.352C440.177 115.148 444.407 116.658 448.812 117.861C451.481 118.589 454.166 119.192 456.848 119.661C461.209 120.426 465.55 120.843 469.766 120.905C469.983 123.405 470.528 125.835 471.365 128.141C470.934 128.352 470.497 128.559 470.045 128.765C463.223 129.048 455.79 128.169 448.388 126.145H448.385ZM357.825 79.7263C359.432 78.93 361.321 78.2646 363.452 77.7647C369.367 76.372 376.403 76.341 383.746 77.6303C385.829 77.9957 387.938 78.468 390.048 79.0437C399.608 81.6534 407.971 86.066 413.604 91.4647C418.3 95.967 420.43 100.611 419.451 104.203C418.468 107.795 414.276 110.711 407.94 112.201C400.349 113.986 390.903 113.535 381.344 110.922C371.784 108.312 363.421 103.899 357.791 98.5008C353.333 94.226 351.189 89.8237 351.824 86.3143C352.727 83.7666 354.806 81.5121 357.829 79.7263H357.825ZM502.867 101.445C503.171 101.528 503.474 101.576 503.774 101.607C511.507 103.751 516.647 111.187 515.892 119.202C515.826 119.468 515.771 119.744 515.747 120.023C515.719 120.333 515.678 120.643 515.633 120.954C513.854 129.762 505.339 135.619 496.435 134.057C487.389 132.471 481.321 123.818 482.907 114.776C484.469 105.885 492.853 99.8729 501.73 101.179C502.113 101.259 502.492 101.345 502.864 101.445H502.867ZM370.074 56.7874C372.939 40.4536 388.559 29.4978 404.893 32.3626C418.768 34.7965 424.808 45.0007 431.8 56.8149C437.484 66.4159 443.362 76.3479 454.042 81.8223C459.889 84.8181 466.453 86.1247 474.109 85.8178C482.204 85.4903 491.346 83.3633 502.064 79.3092C504.881 78.2439 506.301 75.093 505.236 72.2765C504.171 69.4565 501.02 68.0396 498.203 69.1049C492.26 71.3526 475.054 77.8613 462.012 73.3797C462.909 72.5799 463.795 71.7835 464.667 70.9941C468.6 67.4398 472.317 64.082 476.157 61.6103C476.219 61.5723 476.278 61.531 476.34 61.4896C489.916 51.9645 508.707 55.2636 518.229 68.8394C524.734 78.1129 525.372 90.1064 520.356 99.866C516.333 95.0982 510.686 91.6612 504.078 90.4994C503.926 90.4718 503.774 90.4477 503.619 90.4236C503.454 90.3925 503.288 90.3581 503.123 90.3305C488.826 87.8208 475.106 96.4737 470.931 109.998C464.746 110.008 458.172 109.102 451.684 107.33C446.751 105.982 442.087 104.199 437.767 102.031C435.833 87.7518 419.875 73.5348 397.319 67.3743C387.549 64.706 378.079 63.9683 369.753 64.9094C369.491 62.2205 369.598 59.5039 370.074 56.7874ZM403.072 141.51C371.374 142.555 345.991 137.284 333.39 127.038C326.975 121.205 324.093 114.779 325.865 110.253C327.688 105.592 334.635 102.845 344.487 102.865C350.831 113.211 364.062 122.402 381.026 127.035C383.533 127.721 386.042 128.279 388.538 128.717C398.332 130.434 407.899 130.251 416.076 128.124C418.151 127.583 420.099 126.931 421.912 126.173C428.6 130.596 436.495 134.14 444.965 136.512C432.258 139.225 417.603 141.031 403.076 141.51H403.072Z" fill="#272525"/>
<path d="M373.035 104.017C374.593 104.572 379.378 106.13 380.189 103.858C380.94 101.748 378.293 102.817 379.875 98.3698C380.916 95.4464 380.54 95.1672 385.084 96.7874C386.708 97.3666 387.121 97.439 386.494 99.1937C384.146 105.785 382.726 102.169 381.967 104.716C381.192 106.892 385.336 108.405 386.766 108.912C393.161 111.191 393.806 109.591 394.082 108.812C394.371 108.002 393.985 107.643 393.464 107.054C392.761 106.254 392.806 105.72 393.151 104.747L396.157 96.3048C397.994 91.1441 398.318 91.3681 399.442 91.2923C400.208 91.1992 400.739 90.8407 400.994 90.1236C401.804 87.8518 397.498 86.2798 395.971 85.7351C389.51 83.4322 388.993 85.2973 388.773 85.9144C388.473 86.759 388.952 87.2588 389.441 87.8346C389.783 88.2138 390.255 88.6344 388.993 92.1748C388.635 93.1815 388.583 93.5297 386.442 92.7643L384.787 92.1748C383.229 91.6198 382.305 91.5474 382.95 89.7272C383.981 86.8383 384.312 86.5177 385.287 86.3522C386.197 86.1626 386.877 86.004 387.235 84.9974C387.928 83.0496 384.222 81.5465 382.857 81.0604C381.04 80.4123 375.524 78.7404 374.635 81.2397C374.404 81.8878 374.883 82.3911 375.28 82.8221C376.248 83.8976 376.634 83.2323 373.559 91.868C371.143 98.6525 370.757 98.4043 369.391 98.5422C368.747 98.6042 368.109 98.8524 367.868 99.535C367.082 101.741 371.549 103.479 373.042 104.013L373.035 104.017Z" fill="#272525"/>
<path d="M493.849 129.089C495.711 129.596 503.205 130.93 505.332 123.939L508.394 113.773C509.225 110.998 511.6 112.504 512.072 110.777C512.327 109.846 512.013 108.116 505.729 106.402C499.244 104.63 498.4 106.685 498.227 107.319C497.617 109.546 501.313 108.447 500.137 112.094C498.238 118.006 498.245 125.297 494.215 124.625C493.398 124.473 492.86 123.825 493.087 122.994C493.205 122.564 493.594 122.06 493.746 121.495C494.318 119.399 492.718 117.675 490.788 117.151C488.561 116.541 486.565 117.961 485.975 120.123C484.676 124.877 489.992 128.045 493.849 129.096V129.089Z" fill="#272525"/>
<path d="M20.0144 129.793C20.142 129.762 20.2661 129.734 20.3936 129.707C21.483 124.391 25.4992 119.888 31.1116 118.458C36.3654 117.117 41.6778 118.806 45.2114 122.426C45.8595 122.119 46.5455 121.867 47.2626 121.685C53.1507 120.181 59.1423 123.605 60.8763 129.372C65.2235 129.669 69.219 131.906 71.7528 135.422C77.0446 134.343 82.3019 137.598 83.6532 142.886C85.046 148.34 81.7537 153.887 76.3 155.279C74.0316 155.859 71.7459 155.624 69.7499 154.766C68.0331 156.341 65.913 157.527 63.4963 158.144C59.5836 159.144 55.6363 158.461 52.4164 156.555C50.6031 158.42 48.2658 159.823 45.563 160.516C40.2471 161.874 34.8658 160.126 31.3356 156.417C30.1015 157.179 28.7329 157.772 27.2539 158.148C19.4249 160.147 11.458 155.421 9.45849 147.592C7.459 139.763 12.1854 131.796 20.0144 129.796V129.793Z" fill="white"/>
<path d="M535.365 354.125C536.892 348.147 542.836 344.469 548.813 345.689C551.675 341.718 556.194 339.187 561.107 338.853C563.065 332.334 569.835 328.462 576.492 330.165C577.306 330.372 578.082 330.658 578.812 331.003C582.805 326.911 588.81 325.001 594.746 326.518C601.09 328.138 605.626 333.223 606.857 339.232C606.998 339.263 607.143 339.294 607.284 339.328C616.134 341.586 621.474 350.591 619.212 359.441C616.954 368.29 607.95 373.63 599.1 371.369C597.428 370.941 595.884 370.272 594.488 369.41C590.496 373.606 584.418 375.578 578.409 374.044C575.351 373.261 572.714 371.675 570.663 369.569C567.022 371.727 562.561 372.496 558.138 371.369C555.408 370.672 553.012 369.331 551.071 367.552C548.817 368.524 546.235 368.79 543.67 368.135C537.506 366.559 533.786 360.289 535.362 354.128L535.365 354.125Z" fill="white"/>
<path d="M540.365 101.125C541.892 95.1469 547.836 91.4685 553.813 92.6889C556.675 88.7175 561.194 86.1871 566.107 85.8527C568.065 79.3337 574.835 75.4623 581.492 77.1653C582.306 77.3721 583.082 77.6583 583.812 78.003C587.805 73.911 593.81 72.0011 599.746 73.518C606.09 75.1382 610.626 80.2231 611.857 86.2319C611.998 86.263 612.143 86.294 612.284 86.3285C621.134 88.5865 626.474 97.5911 624.212 106.441C621.954 115.29 612.95 120.63 604.1 118.369C602.428 117.941 600.884 117.272 599.488 116.41C595.496 120.606 589.418 122.578 583.409 121.044C580.351 120.261 577.714 118.675 575.663 116.569C572.022 118.727 567.561 119.496 563.138 118.369C560.408 117.672 558.012 116.331 556.071 114.552C553.817 115.524 551.235 115.79 548.67 115.135C542.506 113.559 538.786 107.289 540.362 101.128L540.365 101.125Z" fill="white"/>
<path d="M512.198 28.1168C513.019 24.9038 516.215 22.9285 519.427 23.5835C520.965 21.4496 523.395 20.0878 526.033 19.9086C527.088 16.406 530.725 14.3238 534.303 15.2374C534.741 15.3477 535.158 15.5028 535.551 15.689C537.699 13.4895 540.925 12.4622 544.114 13.2792C547.524 14.1514 549.964 16.8818 550.623 20.112C550.699 20.1292 550.775 20.1464 550.854 20.1637C555.611 21.3772 558.479 26.2173 557.266 30.9747C556.053 35.7321 551.212 38.6003 546.455 37.3868C545.555 37.1559 544.724 36.7973 543.976 36.3354C541.832 38.59 538.564 39.6518 535.334 38.8279C533.689 38.4073 532.272 37.5558 531.169 36.4216C529.215 37.5799 526.815 37.9936 524.437 37.3868C522.968 37.0111 521.682 36.2906 520.637 35.3356C519.424 35.8596 518.038 36.001 516.659 35.6494C513.346 34.8047 511.347 31.4332 512.195 28.1203L512.198 28.1168Z" fill="white"/>
<path d="M113.198 355.117C114.019 351.904 117.214 349.928 120.427 350.583C121.965 348.45 124.395 347.088 127.033 346.909C128.088 343.406 131.725 341.324 135.303 342.237C135.741 342.348 136.158 342.503 136.551 342.689C138.699 340.49 141.925 339.462 145.114 340.279C148.524 341.151 150.964 343.882 151.623 347.112C151.699 347.129 151.775 347.146 151.854 347.164C156.611 348.377 159.479 353.217 158.266 357.975C157.053 362.732 152.212 365.6 147.455 364.387C146.555 364.156 145.724 363.797 144.976 363.335C142.832 365.59 139.564 366.652 136.334 365.828C134.689 365.407 133.272 364.556 132.169 363.422C130.215 364.58 127.815 364.994 125.437 364.387C123.968 364.011 122.682 363.291 121.637 362.336C120.424 362.86 119.038 363.001 117.659 362.649C114.346 361.805 112.347 358.433 113.195 355.12L113.198 355.117Z" fill="white"/>
<path d="M45.347 273.466C44.5265 270.253 41.3308 268.278 38.1178 268.933C36.5802 266.799 34.1498 265.437 31.5126 265.258C30.4577 261.755 26.8207 259.673 23.2423 260.587C22.8045 260.697 22.3873 260.852 21.9943 261.038C19.8466 258.839 16.6199 257.812 13.431 258.629C10.0215 259.501 7.5808 262.231 6.92234 265.461C6.8465 265.479 6.77066 265.496 6.69137 265.513C1.93397 266.727 -0.934261 271.567 0.279221 276.324C1.4927 281.082 6.33284 283.95 11.0902 282.736C11.99 282.505 12.8208 282.147 13.5689 281.685C15.7132 283.939 18.9813 285.001 22.2115 284.177C23.8559 283.757 25.2728 282.905 26.376 281.771C28.3306 282.929 30.73 283.343 33.1087 282.736C34.5773 282.361 35.8632 281.64 36.9077 280.685C38.1212 281.209 39.5071 281.35 40.886 280.999C44.199 280.154 46.1985 276.783 45.3504 273.47L45.347 273.466Z" fill="white"/>
</svg>
