<svg width="735" height="362" viewBox="0 0 735 362" fill="none" xmlns="http://www.w3.org/2000/svg">
<g clip-path="url(#clip0_60_126)">
<path d="M585.361 158.475C584.797 156.263 582.602 154.904 580.393 155.354C579.335 153.885 577.668 152.95 575.853 152.825C575.13 150.413 572.629 148.98 570.169 149.612C569.867 149.689 569.583 149.793 569.314 149.922C567.838 148.408 565.621 147.703 563.427 148.264C561.085 148.862 559.407 150.746 558.953 152.965C558.901 152.976 558.846 152.987 558.794 153.002C555.527 153.837 553.553 157.168 554.387 160.44C555.22 163.712 558.547 165.687 561.815 164.853C562.431 164.694 563.003 164.446 563.519 164.129C564.994 165.68 567.241 166.411 569.461 165.842C570.59 165.554 571.563 164.967 572.323 164.188C573.666 164.986 575.314 165.27 576.948 164.853C577.955 164.594 578.84 164.099 579.56 163.442C580.393 163.8 581.348 163.9 582.293 163.656C584.568 163.073 585.944 160.753 585.361 158.475Z" fill="white"/>
<path d="M73.4861 101.312L73.3533 28.1402C74.0688 20.6841 77.2555 16.777 82.9097 16.4151C86.9484 16.3265 113.818 16.2785 163.525 16.2785C168.91 16.2785 171.599 20.2779 171.599 28.2731C171.599 32.3169 169.22 34.3369 164.466 34.3369H135.125C133.24 34.3369 131.736 34.9684 130.618 36.224C129.497 37.4833 128.936 39.1451 128.936 41.2095V50.7779C128.936 53.5623 130.102 54.9546 132.436 54.9546H154.777C156.93 54.9546 158.546 55.4494 159.623 56.4354C160.7 57.4251 161.238 59.6926 161.238 63.2415C161.238 66.7904 160.722 69.0579 159.689 70.0476C158.657 71.0373 156.975 71.5285 154.644 71.5285H134.59C132.348 71.5285 130.799 72.0676 129.947 73.146C129.095 74.2243 128.667 75.9304 128.667 78.2681V101.445C128.667 104.591 127.996 106.925 126.649 108.45C125.303 109.979 123.555 110.74 121.401 110.74H83.1789C80.6672 110.74 78.5132 109.909 76.7207 108.247C74.9245 106.585 73.8475 104.274 73.4897 101.308L73.4861 101.312Z" fill="white"/>
<path d="M239.431 48.8908L239.298 75.8418C239.298 79.7969 239.903 82.7365 241.116 84.6679C242.326 86.5993 244.86 87.5669 248.721 87.5669H282.772C286.899 87.6592 288.965 90.8019 288.965 96.9986C288.965 101.763 288.378 105.219 287.216 107.376C286.051 109.532 283.672 110.655 280.083 110.744C267.432 111.102 254.914 111.283 242.532 111.283C230.151 111.283 214.357 111.191 195.16 111.013C191.929 111.013 189.306 110.227 187.285 108.654C185.268 107.084 184.124 104.905 183.855 102.117C183.136 94.3028 182.778 81.9721 182.778 65.1286C182.778 48.2851 182.981 36.922 183.383 31.0354C183.785 25.1526 184.615 21.2455 185.873 19.3104C187.127 17.379 189.594 16.4151 193.275 16.4151H229.343C233.113 16.4151 235.602 17.4048 236.812 19.3805C238.022 21.3562 238.763 24.5469 239.032 28.9489C239.302 33.3509 239.434 39.9982 239.434 48.8908H239.431Z" fill="white"/>
<path d="M410.082 16.4151C411.874 16.4151 412.774 17.3125 412.774 19.1109C412.774 20.2779 412.28 21.5372 411.295 22.8851L381.147 70.7234C381.147 77.9985 380.922 88.6009 380.476 102.527C380.383 104.503 379.535 106.323 377.92 107.985C376.304 109.647 374.15 110.57 371.458 110.747C366.342 111.106 360.197 111.287 353.02 111.287C345.842 111.287 339.248 111.106 333.236 110.747C330.543 110.57 328.389 109.647 326.777 107.985C325.162 106.323 324.31 104.506 324.221 102.527C324.041 93.4534 323.952 84.0217 323.952 74.228L296.766 28.5464C295.419 26.482 294.748 24.7722 294.748 23.4243C294.748 18.9337 296.946 16.6847 301.343 16.6847L347.369 16.4151C349.969 16.4151 351.921 16.8176 353.223 17.6264C354.521 18.4351 356.07 20.097 357.866 22.6118L366.076 40.2641C367.511 42.2398 368.702 43.2295 369.643 43.2295C370.583 43.2295 371.731 42.4208 373.073 40.8032L386.801 19.2439C388.324 17.3568 390.253 16.4151 392.588 16.4151H410.085H410.082Z" fill="white"/>
<path d="M121.401 223.736C105.25 223.736 92.4845 219.626 83.1125 211.406C73.7368 203.185 69.049 191.575 69.049 176.57C69.049 167.408 70.5501 159.369 73.5561 152.448C76.562 145.531 80.7999 140.007 86.2734 135.874C97.1281 127.702 111.442 123.61 129.205 123.61C140.691 123.61 152.173 125.183 163.658 128.326C168.054 129.762 170.253 133.311 170.253 138.973C170.253 146.698 167.829 150.561 162.987 150.561C162.179 150.561 159.531 150.203 155.046 149.483C150.557 148.766 147.418 148.404 145.626 148.404C139.252 148.404 134.343 150.627 130.887 155.074C127.431 159.52 125.705 164.823 125.705 170.976C125.705 177.128 127.321 182.542 130.552 187.213C133.783 191.885 138.175 194.311 143.741 194.488C147.51 194.669 154.194 194.758 163.794 194.758C168.46 194.758 171.016 196.959 171.466 201.361C171.735 202.979 171.868 204.618 171.868 206.28C171.868 207.942 171.735 209.629 171.466 211.332C170.928 214.567 168.416 216.923 163.931 218.408C159.442 219.888 152.984 221.148 144.549 222.182C136.114 223.212 128.398 223.733 121.401 223.733V223.736Z" fill="white"/>
<path d="M314.259 212.554C314.078 214.622 313.204 216.461 311.633 218.079C310.062 219.696 307.934 220.594 305.241 220.775C297.883 221.222 291.827 221.447 287.073 221.447C282.318 221.447 276.708 221.222 270.25 220.775C265.315 220.328 262.715 218.171 262.446 214.305C262.353 212.78 262.265 210.782 262.176 208.307C262.084 205.837 261.974 203.658 261.841 201.771C261.708 199.884 261.214 198.403 260.362 197.325C259.51 196.246 258.005 195.707 255.855 195.707H245.76C243.606 195.707 242.105 196.246 241.253 197.325C240.401 198.403 239.906 199.884 239.774 201.771C239.641 203.658 239.526 205.837 239.438 208.307C239.346 210.778 239.257 212.776 239.169 214.305C238.899 218.168 236.296 220.324 231.364 220.775C224.906 221.222 219.005 221.447 213.668 221.447C208.331 221.447 201.979 221.222 194.625 220.775C191.932 220.594 189.801 219.696 188.233 218.079C186.662 216.461 185.788 214.622 185.607 212.554C184.888 204.651 184.53 191.937 184.53 174.417C184.53 156.898 184.707 145.513 185.069 140.258C185.426 135.003 186.234 131.409 187.492 129.478C188.746 127.547 191.261 126.583 195.027 126.583H227.864C231.003 126.583 233.673 127.661 235.871 129.818C238.07 131.974 239.169 134.759 239.169 138.171V166.47C239.169 169.705 240.559 171.323 243.34 171.323H258.278C261.059 171.323 262.449 169.705 262.449 166.47V138.171C262.449 134.759 263.548 131.971 265.747 129.818C267.945 127.661 270.612 126.583 273.754 126.583H304.843C308.612 126.583 311.12 127.55 312.378 129.478C313.632 131.409 314.44 135.003 314.801 140.258C315.159 145.513 315.34 156.898 315.34 174.417C315.34 191.937 314.978 204.648 314.263 212.554H314.259Z" fill="white"/>
<path d="M335.05 218.552C333.302 216.89 332.177 214.15 331.686 210.331C331.192 206.513 330.945 195.061 330.945 175.968C330.945 156.876 331.259 144.416 331.886 138.574C332.601 131.029 335.788 127.166 341.442 126.985C347.904 126.808 374.685 126.716 421.788 126.716C427.081 126.716 429.729 130.084 429.729 136.823C429.729 142.126 427.394 144.774 422.732 144.774H393.123C391.238 144.774 389.733 145.406 388.616 146.661C387.494 147.921 386.934 149.538 386.934 151.514V161.215C386.934 163.911 388.143 165.259 390.567 165.259H415.061C416.496 165.259 417.595 165.395 418.358 165.661C419.118 165.931 419.815 166.718 420.446 168.021C421.073 169.325 421.386 171.459 421.386 174.421C421.386 177.383 420.87 179.362 419.837 180.352C418.804 181.342 417.123 181.833 414.792 181.833H392.853C390.611 181.833 389.062 182.394 388.21 183.517C387.358 184.639 386.93 186.368 386.93 188.705V195.308C386.93 199.171 388.767 201.102 392.448 201.102H425.96C427.575 201.102 429.01 201.575 430.268 202.517C431.522 203.459 432.152 205.527 432.152 208.717C432.152 211.908 431.389 214.759 429.866 217.274C428.339 219.789 426.546 221.048 424.481 221.048H341.442C338.93 221.048 336.798 220.217 335.05 218.555V218.552Z" fill="white"/>
<path d="M531.479 133.049L575.488 207.569C577.28 210.534 578.18 213.027 578.18 215.047C578.18 217.067 577.373 218.574 575.757 219.56C574.142 220.549 572.257 221.041 570.103 221.041H526.765C522.369 221.041 519.543 220.232 518.286 218.614C517.928 218.075 517.434 217.134 516.807 215.786L512.904 207.432C511.739 204.829 509.002 203.344 504.694 202.986H479.256C477.371 202.986 475.936 203.167 474.948 203.525C473.96 203.883 473.152 204.692 472.525 205.951L467.276 216.868C466.38 218.485 465.392 219.586 464.315 220.169C463.238 220.753 461.666 221.044 459.605 221.044H447.492C443.992 221.044 442.107 219.789 441.838 217.27C441.746 216.912 441.705 216.554 441.705 216.192C441.705 214.127 442.377 212.148 443.723 210.265L485.847 135.882C489.886 128.876 496.432 125.371 505.495 125.371H516.261C523.438 125.371 528.51 127.931 531.468 133.053L531.479 133.049ZM487.872 167.545L481.679 179.809C481.318 180.618 481.141 181.338 481.141 181.966C481.141 184.303 482.262 185.47 484.504 185.47H496.753C498.638 185.47 499.936 184.998 500.656 184.056C501.371 183.114 501.733 182.283 501.733 181.563C501.733 180.843 501.596 180.127 501.331 179.406L496.215 167.818C495.138 165.484 493.747 164.313 492.043 164.313C490.339 164.313 488.949 165.392 487.872 167.548V167.545Z" fill="white"/>
<path d="M646.547 203.662V214.981C646.547 218.843 643.921 220.908 638.672 221.181C633.424 221.451 627.725 221.584 621.581 221.584C615.436 221.584 608.413 221.358 600.517 220.908C597.913 220.73 595.829 219.829 594.258 218.212C592.686 216.594 591.768 214.755 591.499 212.687C590.779 204.784 590.422 192.361 590.422 175.429C590.422 158.497 590.691 146.166 591.229 138.441C591.768 130.715 595.67 126.808 602.94 126.716C611.283 126.535 620.212 126.446 629.721 126.446C639.229 126.446 649.527 126.583 660.607 126.849C671.686 127.118 680.726 131.295 687.727 139.382C694.727 147.47 698.224 156.363 698.224 166.064C698.224 175.765 695.129 183.764 688.937 190.05C682.744 196.339 673.682 199.481 661.75 199.481H651.253C650.088 199.481 649.011 199.884 648.022 200.693C647.034 201.501 646.543 202.491 646.543 203.658L646.547 203.662ZM646.414 154.882L646.683 179.813C646.683 181.519 647.624 182.372 649.509 182.372C655.071 182.372 659.445 180.821 662.632 177.723C665.815 174.624 667.408 170.964 667.408 166.74C667.408 162.515 665.903 158.881 662.901 155.823C659.895 152.769 655.476 151.24 649.645 151.24C647.491 151.24 646.414 152.452 646.414 154.878V154.882Z" fill="white"/>
<path d="M73.4861 321.909L73.3533 248.738C74.0688 241.282 77.2555 237.374 82.9097 237.013C86.9484 236.924 113.818 236.876 163.525 236.876C168.91 236.876 171.599 240.875 171.599 248.871C171.599 252.914 169.22 254.934 164.466 254.934H135.125C133.24 254.934 131.736 255.566 130.618 256.821C129.497 258.081 128.936 259.743 128.936 261.807V271.375C128.936 274.16 130.102 275.552 132.436 275.552H154.777C156.93 275.552 158.546 276.047 159.623 277.033C160.7 278.023 161.238 280.29 161.238 283.839C161.238 287.388 160.722 289.655 159.689 290.645C158.657 291.635 156.975 292.126 154.644 292.126H134.59C132.348 292.126 130.799 292.665 129.947 293.743C129.095 294.822 128.667 296.528 128.667 298.866V322.042C128.667 325.189 127.996 327.523 126.649 329.048C125.303 330.577 123.555 331.338 121.401 331.338H83.1789C80.6672 331.338 78.5132 330.507 76.7207 328.845C74.9245 327.183 73.8475 324.871 73.4897 321.906L73.4861 321.909Z" fill="white"/>
<path d="M269.712 243.35L313.721 317.869C315.513 320.835 316.413 323.328 316.413 325.348C316.413 327.368 315.605 328.874 313.99 329.86C312.374 330.85 310.49 331.341 308.336 331.341H264.998C260.602 331.341 257.776 330.532 256.519 328.915C256.157 328.376 255.667 327.434 255.04 326.086L251.137 317.733C249.972 315.129 247.235 313.645 242.927 313.286H217.489C215.604 313.286 214.169 313.467 213.181 313.826C212.192 314.184 211.385 314.993 210.758 316.252L205.509 327.168C204.613 328.786 203.624 329.886 202.547 330.47C201.47 331.053 199.899 331.345 197.838 331.345H185.725C182.225 331.345 180.34 330.089 180.071 327.571C179.979 327.213 179.938 326.854 179.938 326.492C179.938 324.428 180.609 322.449 181.956 320.565L224.08 246.182C228.119 239.177 234.665 235.672 243.728 235.672H254.494C261.671 235.672 266.743 238.231 269.701 243.353L269.712 243.35ZM226.105 277.845L219.912 290.11C219.551 290.918 219.374 291.638 219.374 292.266C219.374 294.604 220.495 295.771 222.737 295.771H234.986C236.871 295.771 238.169 295.298 238.888 294.356C239.604 293.415 239.965 292.584 239.965 291.864C239.965 291.144 239.833 290.427 239.563 289.707L234.448 278.119C233.371 275.785 231.98 274.614 230.276 274.614C228.572 274.614 227.182 275.692 226.105 277.849V277.845Z" fill="white"/>
<path d="M419.907 305.472C421.611 307.271 427.667 314.051 438.076 325.82C438.703 326.629 439.016 327.349 439.016 327.977C439.016 330.315 437.984 331.482 435.922 331.482C431.164 331.57 426.388 331.615 421.589 331.615C416.791 331.615 412.011 331.57 407.256 331.482C404.652 331.482 402.277 330.451 400.123 328.383L388.549 310.864C388.099 310.325 387.561 309.967 386.934 309.786C385.499 309.246 384.78 309.834 384.78 311.536V325.281C384.78 329.144 382.242 331.208 377.174 331.482C372.103 331.751 366.563 331.884 360.555 331.884C354.547 331.884 347.277 331.659 338.753 331.208C336.149 331.031 334.065 330.13 332.494 328.512C330.923 326.895 330.005 325.056 329.735 322.988C329.016 315.085 328.658 302.662 328.658 285.73C328.658 268.798 328.928 256.467 329.466 248.741C330.005 241.016 333.907 237.109 341.176 237.016C347.992 236.928 357.28 236.88 369.034 236.88C380.789 236.88 390.522 236.972 398.238 237.149C409.362 237.33 418.469 241.463 425.558 249.546C432.643 257.63 436.191 266.752 436.191 276.9C436.191 282.831 434.823 288.311 432.086 293.341C429.349 298.374 425.288 302.414 419.907 305.469V305.472ZM384.647 265.182L384.916 290.113C384.916 291.819 385.857 292.673 387.741 292.673C393.303 292.673 397.678 291.121 400.864 288.023C404.047 284.925 405.641 281.265 405.641 277.04C405.641 272.816 404.136 269.182 401.134 266.124C398.128 263.07 393.709 261.541 387.878 261.541C385.724 261.541 384.647 262.752 384.647 265.179V265.182Z" fill="white"/>
<path d="M455.909 328.849C454.161 327.187 453.036 324.447 452.545 320.628C452.051 316.81 451.804 305.358 451.804 286.265C451.804 267.173 452.117 254.713 452.744 248.871C453.46 241.326 456.647 237.463 462.301 237.282C468.763 237.105 495.544 237.013 542.647 237.013C547.94 237.013 550.588 240.381 550.588 247.12C550.588 252.423 548.253 255.071 543.591 255.071H513.981C512.097 255.071 510.592 255.703 509.474 256.958C508.353 258.217 507.792 259.835 507.792 261.811V271.512C507.792 274.208 509.002 275.556 511.425 275.556H535.92C537.354 275.556 538.453 275.692 539.217 275.958C539.977 276.228 540.674 277.014 541.304 278.318C541.932 279.622 542.245 281.756 542.245 284.718C542.245 287.68 541.729 289.659 540.696 290.649C539.663 291.638 537.981 292.13 535.65 292.13H513.712C511.47 292.13 509.921 292.691 509.069 293.814C508.217 294.936 507.789 296.665 507.789 299.002V305.605C507.789 309.468 509.626 311.399 513.306 311.399H546.819C548.434 311.399 549.869 311.872 551.126 312.814C552.381 313.755 553.011 315.824 553.011 319.014C553.011 322.205 552.248 325.056 550.724 327.571C549.198 330.086 547.405 331.345 545.34 331.345H462.301C459.789 331.345 457.657 330.514 455.909 328.852V328.849Z" fill="white"/>
<path d="M586.051 331.478C579.368 329.772 574.654 328.066 571.921 326.356C569.184 324.65 567.366 323.438 566.47 322.718C564.135 320.831 562.97 318.228 562.97 314.904C562.97 312.3 563.283 309.83 563.91 307.492C565.076 303.09 567.185 300.889 570.236 300.889C571.22 300.982 574.385 302.012 579.726 303.988C585.063 305.963 589.26 306.953 592.31 306.953C596.887 306.953 599.174 305.158 599.174 301.561C599.174 299.405 598.053 297.407 595.81 295.564C593.568 293.725 590.853 291.949 587.667 290.243C584.48 288.536 581.275 286.583 578.044 284.382C574.813 282.181 572.076 279.127 569.834 275.22C567.591 271.313 566.47 266.752 566.47 261.541C566.47 252.918 570.686 246.156 579.121 241.259C587.552 236.363 598.455 233.914 611.825 233.914C625.195 233.914 635.803 235.284 643.655 238.024C651.504 240.765 655.432 244.561 655.432 249.41C655.432 252.914 654.624 255.991 653.009 258.642C651.393 261.294 649.689 262.616 647.893 262.616C647.266 262.616 645.178 261.921 641.634 260.526C638.09 259.133 634.881 258.435 632.011 258.435C626.357 258.435 623.532 260.636 623.532 265.038C623.532 267.195 624.878 269.171 627.57 270.969C630.263 272.768 633.512 274.496 637.33 276.158C641.143 277.82 644.979 279.684 648.837 281.749C652.695 283.817 655.97 286.646 658.663 290.239C661.355 293.832 662.702 298.19 662.702 303.308C662.702 308.427 661.064 313.102 657.789 317.323C654.514 321.548 650.183 324.823 644.802 327.161C634.125 331.744 621.743 334.033 607.657 334.033C599.941 334.033 592.738 333.18 586.055 331.474L586.051 331.478Z" fill="white"/>
<path d="M300.97 60.7709C300.092 57.3291 296.673 55.2131 293.236 55.9147C291.591 53.6288 288.99 52.1701 286.169 51.9781C285.04 48.226 281.149 45.9955 277.321 46.9741C276.852 47.0923 276.406 47.2585 275.985 47.4579C273.688 45.1018 270.235 44.0013 266.824 44.8765C263.176 45.8109 260.565 48.7357 259.86 52.1959C259.779 52.2144 259.698 52.2329 259.613 52.2513C254.523 53.5513 251.454 58.7361 252.753 63.8324C254.051 68.9286 259.229 72.0012 264.319 70.7012C265.282 70.4538 266.171 70.0698 266.971 69.5749C269.265 71.9901 272.762 73.1275 276.218 72.2449C277.977 71.7944 279.493 70.8822 280.673 69.6672C282.765 70.908 285.332 71.3512 287.877 70.7012C289.448 70.2987 290.824 69.5269 291.941 68.504C293.239 69.0653 294.722 69.2167 296.197 68.84C299.742 67.9352 301.881 64.3236 300.974 60.7746L300.97 60.7709Z" fill="white"/>
<path d="M11.7842 105.023C11.9206 104.99 12.0534 104.961 12.1899 104.931C13.3554 99.2366 17.6523 94.4136 23.6568 92.881C29.2778 91.4445 34.9615 93.254 38.742 97.1316C39.4354 96.8029 40.1694 96.5333 40.9366 96.3376C47.2362 94.7275 53.6465 98.3946 55.5017 104.573C60.1527 104.89 64.4275 107.287 67.1384 111.054C72.7999 109.898 78.4246 113.384 79.8704 119.049C81.3605 124.891 77.8382 130.833 72.0033 132.325C69.5764 132.946 67.131 132.695 64.9955 131.775C63.1587 133.463 60.8904 134.733 58.3049 135.394C54.1186 136.465 49.8955 135.734 46.4506 133.692C44.5106 135.69 42.0099 137.193 39.1182 137.935C33.4309 139.39 27.6734 137.518 23.8966 133.544C22.5762 134.36 21.1119 134.995 19.5296 135.398C11.1534 137.54 2.62975 132.477 0.490529 124.09C-1.64869 115.703 3.40799 107.169 11.7842 105.027V105.023Z" fill="white"/>
<path d="M661.772 269.917C663.096 264.724 668.256 261.526 673.446 262.586C675.928 259.133 679.852 256.936 684.116 256.644C685.816 250.979 691.692 247.615 697.468 249.092C698.176 249.273 698.847 249.521 699.481 249.82C702.949 246.263 708.16 244.605 713.313 245.92C718.816 247.327 722.758 251.747 723.824 256.969C723.95 256.999 724.071 257.021 724.197 257.054C731.876 259.019 736.512 266.844 734.55 274.533C732.588 282.222 724.772 286.864 717.093 284.899C715.644 284.53 714.301 283.946 713.091 283.196C709.628 286.841 704.35 288.559 699.135 287.225C696.479 286.546 694.192 285.168 692.411 283.337C689.254 285.213 685.381 285.881 681.542 284.899C679.17 284.293 677.093 283.126 675.408 281.583C673.449 282.428 671.211 282.657 668.983 282.089C663.635 280.722 660.404 275.271 661.772 269.917Z" fill="white"/>
<path d="M650.932 73.6741C651.81 70.2322 655.229 68.1162 658.667 68.8179C660.312 66.5319 662.912 65.0732 665.733 64.8812C666.862 61.1292 670.753 58.8986 674.582 59.8773C675.05 59.9954 675.496 60.1616 675.917 60.361C678.215 58.0049 681.667 56.9044 685.079 57.7797C688.726 58.714 691.338 61.6388 692.042 65.0991C692.123 65.1175 692.204 65.136 692.289 65.1545C697.379 66.4544 700.448 71.6393 699.15 76.7355C697.851 81.8318 692.673 84.9043 687.583 83.6044C686.62 83.3569 685.731 82.9729 684.931 82.478C682.637 84.8932 679.14 86.0306 675.684 85.148C673.925 84.6975 672.409 83.7853 671.229 82.5703C669.138 83.8112 666.571 84.2543 664.026 83.6044C662.455 83.2018 661.079 82.43 659.961 81.4071C658.663 81.9684 657.18 82.1198 655.705 81.7431C652.16 80.8384 650.021 77.2267 650.929 73.6778L650.932 73.6741Z" fill="white"/>
<path d="M129.707 350.23C130.585 346.789 134.004 344.673 137.441 345.374C139.086 343.088 141.687 341.63 144.508 341.438C145.637 337.685 149.528 335.455 153.356 336.434C153.825 336.552 154.271 336.718 154.692 336.917C156.989 334.561 160.442 333.461 163.853 334.336C167.501 335.27 170.112 338.195 170.817 341.655C170.898 341.674 170.979 341.692 171.064 341.711C176.154 343.011 179.223 348.196 177.924 353.292C176.626 358.388 171.448 361.461 166.358 360.161C165.395 359.913 164.506 359.529 163.706 359.034C161.412 361.45 157.915 362.587 154.459 361.704C152.7 361.254 151.184 360.342 150.004 359.127C147.913 360.367 145.345 360.811 142.801 360.161C141.229 359.758 139.854 358.986 138.736 357.963C137.438 358.525 135.955 358.676 134.48 358.299C130.935 357.395 128.796 353.783 129.703 350.234L129.707 350.23Z" fill="white"/>
<path d="M554.475 114.492C551.543 113.742 548.618 112.845 545.723 111.811C540.943 110.101 536.384 108.066 532.091 105.732C530.778 108.148 529.037 110.323 526.905 112.228C532.154 115.707 538.136 118.676 544.547 120.973C552.58 123.846 560.742 125.46 568.329 125.726C568.845 125.534 569.35 125.342 569.845 125.146C569.111 122.513 568.716 119.773 568.687 116.977C564.021 116.549 559.244 115.718 554.475 114.496V114.492Z" fill="#EFC360"/>
<path d="M508.563 120.416C499.32 122.077 488.702 121.468 477.991 118.728C475.261 118.03 472.528 117.192 469.806 116.22C451.398 109.632 437.515 98.3096 431.363 86.2891C420.442 85.4287 412.508 87.8845 410.093 92.9032C407.743 97.7779 410.395 105.153 417.008 112.173C430.102 124.611 457.79 132.624 493.013 134.164C509.157 134.87 525.555 134.113 539.87 132.185C530.682 128.832 522.232 124.227 515.199 118.746C513.126 119.433 510.913 119.995 508.567 120.416H508.563Z" fill="#0066FF"/>
<path d="M446.485 82.574C452.265 89.0441 461.165 94.6499 471.536 98.365C481.908 102.076 492.342 103.384 500.91 102.047C508.058 100.932 512.956 98.0548 514.347 94.1514C515.741 90.248 513.771 84.9154 508.951 79.5163C503.171 73.0463 494.271 67.4367 483.9 63.7253C481.605 62.9055 479.311 62.2001 477.032 61.6203C469.006 59.567 461.202 59.002 454.526 60.0434C452.121 60.4201 449.971 60.9962 448.123 61.7422C444.623 63.4668 442.126 65.7933 440.909 68.5446C439.905 72.3852 441.908 77.4519 446.489 82.574H446.485Z" fill="#EFC360"/>
<path d="M581.024 51.5977C580.954 51.6383 580.884 51.6789 580.81 51.7196C576.343 54.1347 571.94 57.5433 567.277 61.155C566.245 61.9564 565.197 62.7651 564.135 63.5776C578.213 69.6598 597.835 63.9026 604.614 61.9121C607.827 60.9704 611.198 62.8131 612.138 66.0297C613.079 69.2462 611.239 72.6216 608.026 73.5633C595.803 77.1491 585.49 78.7334 576.487 78.4084C567.975 78.0982 560.808 76.0892 554.582 72.2671C543.211 65.2837 537.539 53.7618 532.058 42.6202C525.312 28.912 519.484 17.0761 504.314 13.1912C486.455 8.61931 468.209 19.4507 463.647 37.3319C462.887 40.3084 462.537 43.3144 462.599 46.3168C471.909 45.9844 482.343 47.6056 492.943 51.3983C517.423 60.1579 533.902 77.2968 534.831 93.3057C539.434 96.0828 544.454 98.4573 549.806 100.374C556.847 102.893 564.054 104.458 570.91 104.972C576.686 90.3218 592.631 81.8835 608.262 85.8866C608.443 85.9346 608.623 85.9826 608.804 86.0306C608.97 86.0712 609.14 86.1082 609.306 86.1525C616.531 88.0026 622.499 92.2975 626.552 97.933C632.941 87.5263 633.254 74.1615 626.833 63.3191C617.431 47.4431 596.884 42.1844 581.028 51.5977H581.024Z" fill="#0066FF"/>
<path d="M619.958 119.012C621.474 110.182 616.41 101.493 608.022 98.4537C607.69 98.3946 607.358 98.3133 607.03 98.1952C606.628 98.0511 606.211 97.9219 605.795 97.8037C596.065 95.599 586.261 101.552 583.775 111.287C581.249 121.191 587.239 131.306 597.127 133.839C606.86 136.332 616.797 130.556 619.519 120.933C619.596 120.593 619.666 120.249 619.725 119.91C619.777 119.599 619.862 119.3 619.958 119.009V119.012Z" fill="#EFC360"/>
<path d="M631.952 110.906C645.208 96.1714 647.447 74.3203 637.263 57.126C624.472 35.526 596.541 28.347 574.946 41.0876C569.649 43.9644 564.891 47.6463 559.86 51.5423C557.972 53.0047 556.043 54.4966 554.062 55.9627C549.614 50.8111 546.343 44.1638 542.938 37.2506C535.89 22.9257 527.897 6.6916 507.317 1.42547C482.977 -4.80451 458.114 9.95615 451.896 34.3258C450.742 38.8534 450.284 43.4363 450.528 48.0118C447.99 48.6729 445.607 49.5186 443.413 50.5415C436.556 53.3408 431.795 57.9015 429.67 63.8508C429.596 64.0613 429.526 64.2755 429.456 64.486C429.371 64.7039 429.287 64.9181 429.209 65.1397C428.187 67.998 427.771 70.9634 427.904 73.9732C421.807 73.8956 416.44 74.7376 411.907 76.4918C405.98 78.7851 401.576 82.6331 399.175 87.6186C394.502 97.3199 397.918 109.662 408.319 120.63C408.385 120.7 408.455 120.77 408.525 120.837C416.776 128.739 429.062 134.977 445.032 139.382C445.917 139.626 446.813 139.866 447.721 140.099C460.777 143.441 476.184 145.572 492.486 146.285C521.863 147.57 551.333 144.309 570.32 137.879C572.46 137.887 574.562 137.809 576.613 137.628C580.685 142.27 586.14 145.775 592.554 147.415C609.498 151.75 626.811 141.476 631.141 124.511C631.174 124.378 631.203 124.241 631.233 124.108C631.292 123.894 631.351 123.68 631.406 123.466C632.491 119.223 632.627 114.961 631.952 110.895V110.906ZM544.546 120.969C538.132 118.676 532.154 115.703 526.905 112.225C529.037 110.319 530.778 108.148 532.091 105.729C536.384 108.063 540.943 110.097 545.723 111.807C548.618 112.845 551.543 113.739 554.475 114.488C559.241 115.707 564.021 116.542 568.686 116.97C568.716 119.762 569.111 122.506 569.845 125.139C569.35 125.335 568.845 125.527 568.329 125.719C560.742 125.453 552.58 123.843 544.546 120.966V120.969ZM448.119 61.7459C449.967 60.9999 452.117 60.4238 454.522 60.0471C461.194 59.0057 468.999 59.5707 477.028 61.624C479.304 62.2075 481.602 62.9092 483.896 63.729C494.267 67.4404 503.167 73.0463 508.947 79.52C513.767 84.919 515.737 90.2516 514.343 94.1551C512.949 98.0585 508.054 100.935 500.906 102.051C492.338 103.387 481.908 102.08 471.533 98.3687C461.161 94.6573 452.261 89.0514 446.482 82.5777C441.904 77.4519 439.902 72.3852 440.901 68.5483C442.118 65.797 444.615 63.4705 448.115 61.7459H448.119ZM607.034 98.1988C607.362 98.317 607.694 98.3983 608.026 98.4573C616.413 101.493 621.477 110.186 619.961 119.016C619.866 119.308 619.784 119.603 619.729 119.917C619.67 120.26 619.6 120.6 619.523 120.94C616.801 130.564 606.864 136.336 597.131 133.847C587.239 131.317 581.249 121.198 583.779 111.294C586.265 101.559 596.072 95.6027 605.798 97.8111C606.215 97.9292 606.628 98.0585 607.034 98.2025V98.1988ZM463.647 37.3356C468.213 19.4544 486.455 8.623 504.314 13.1949C519.484 17.0761 525.312 28.9157 532.058 42.6239C537.542 53.7654 543.211 65.2837 554.582 72.2707C560.808 76.0929 567.971 78.1019 576.487 78.4121C585.487 78.7408 595.803 77.1528 608.026 73.567C611.239 72.6253 613.083 69.2499 612.139 66.0334C611.198 62.8131 607.827 60.9704 604.614 61.9158C597.835 63.9062 578.213 69.6598 564.135 63.5813C565.197 62.7688 566.245 61.9601 567.278 61.1587C571.94 57.547 576.343 54.1384 580.81 51.7233C580.88 51.6863 580.954 51.6457 581.024 51.6014C596.88 42.1881 617.428 47.4468 626.829 63.3228C633.25 74.1652 632.937 87.53 626.549 97.9366C622.495 92.3049 616.528 88.0063 609.302 86.1562C609.136 86.1119 608.967 86.0749 608.801 86.0343C608.62 85.9863 608.439 85.9346 608.258 85.8903C592.627 81.8908 576.683 90.3255 570.907 104.975C564.05 104.458 556.843 102.896 549.802 100.378C544.451 98.461 539.431 96.0865 534.828 93.3094C533.898 77.3005 517.419 60.1616 492.94 51.402C482.339 47.6093 471.901 45.9844 462.596 46.3205C462.533 43.3144 462.884 40.3084 463.643 37.3356H463.647ZM493.017 134.168C457.794 132.628 430.109 124.614 417.012 112.177C410.399 105.156 407.751 97.7815 410.096 92.9069C412.512 87.8882 420.446 85.4324 431.367 86.2928C437.519 98.3133 451.402 109.64 469.81 116.224C472.528 117.195 475.265 118.034 477.994 118.732C488.702 121.472 499.32 122.081 508.567 120.419C510.913 119.998 513.129 119.437 515.202 118.75C522.24 124.23 530.686 128.835 539.873 132.189C525.559 134.116 509.161 134.873 493.017 134.168Z" fill="#272525"/>
<path d="M487.237 93.3759C487.038 93.7932 486.71 94.1071 486.256 94.3213C485.803 94.5355 485.286 94.5539 484.711 94.3804C483.143 93.8929 481.86 93.4645 480.871 93.0915C479.879 92.7185 478.729 92.2274 477.416 91.6254C476.423 91.1416 476.047 90.488 476.298 89.6608C476.398 89.3358 476.538 88.9111 476.715 88.3904C476.892 87.8697 477.039 87.4044 477.157 87.0019C477.279 86.5993 477.29 86.2485 477.198 85.9568C477.106 85.665 476.833 85.4361 476.386 85.2662L474.28 84.4722C473.83 84.3023 473.476 84.2949 473.215 84.4537C472.953 84.6125 472.731 84.8821 472.558 85.2625C472.381 85.6466 472.185 86.0897 471.975 86.5993C471.761 87.109 471.588 87.5152 471.448 87.8291C471.086 88.612 470.375 88.8594 469.312 88.564C467.929 88.1504 466.683 87.7294 465.569 87.3121C464.455 86.8911 463.149 86.3445 461.652 85.6724C461.106 85.4213 460.73 85.0668 460.53 84.6088C460.331 84.1472 460.291 83.6967 460.416 83.2498C460.888 81.5437 461.81 78.8663 463.186 75.214C464.562 71.5617 465.495 69.2019 465.982 68.1347C466.469 67.0674 466.919 66.3805 467.335 66.0777C467.748 65.7749 468.35 65.7712 469.135 66.0666L475.981 68.6517C476.634 68.8991 477.106 69.3349 477.397 69.9553C477.685 70.5794 477.696 71.2441 477.427 71.9568L475.203 77.8545C474.948 78.5303 475.11 78.9771 475.689 79.195L478.802 80.373C479.381 80.5909 479.798 80.3657 480.053 79.6899L482.277 73.7922C482.546 73.0795 482.992 72.5846 483.619 72.3114C484.246 72.0344 484.888 72.0196 485.541 72.2671L492.021 74.7155C492.807 75.0109 493.253 75.4097 493.364 75.912C493.474 76.4142 493.36 77.2267 493.021 78.3493C492.681 79.472 491.826 81.8613 490.45 85.5136C489.074 89.1659 488.001 91.7879 487.23 93.3796L487.237 93.3759Z" fill="#272525"/>
<path d="M596.412 115.814L600.948 106.571C601.398 105.673 601.697 105.101 601.848 104.854C602.187 104.226 602.575 103.842 603.01 103.698C603.442 103.554 604.08 103.694 604.913 104.115L612.906 108.144C613.739 108.565 614.23 108.993 614.374 109.425C614.518 109.861 614.436 110.4 614.138 111.047C613.547 112.321 612.81 113.838 611.921 115.6C611.036 117.361 609.922 119.478 608.579 121.944C606.569 125.796 603.283 127.347 598.724 126.598C596.098 126.173 593.015 125.065 589.474 123.281C588.677 122.879 588.271 122.376 588.253 121.767C588.235 121.158 588.522 120.264 589.12 119.079C589.714 117.893 590.496 117.483 591.462 117.845C592.646 118.266 593.682 118.196 594.575 117.638C595.467 117.077 596.08 116.468 596.408 115.81L596.412 115.814Z" fill="#272525"/>
<path d="M64.2615 223.256C63.3837 219.815 59.9646 217.699 56.5271 218.4C54.8821 216.114 52.2818 214.656 49.4603 214.464C48.3317 210.712 44.4405 208.481 40.612 209.46C40.1436 209.578 39.6973 209.744 39.2768 209.943C36.979 207.587 33.5268 206.487 30.1151 207.362C26.4673 208.296 23.856 211.221 23.1515 214.681C23.0704 214.7 22.9892 214.718 22.9044 214.737C17.8145 216.037 14.7459 221.222 16.0441 226.318C17.3424 231.414 22.5208 234.487 27.6107 233.187C28.5734 232.939 29.4622 232.555 30.2626 232.06C32.5567 234.476 36.0533 235.613 39.5092 234.73C41.2685 234.28 42.7844 233.368 43.9647 232.153C46.056 233.394 48.623 233.837 51.168 233.187C52.7392 232.784 54.1149 232.012 55.2325 230.989C56.5308 231.551 58.0135 231.702 59.4888 231.325C63.0333 230.421 65.1725 226.809 64.2652 223.26L64.2615 223.256Z" fill="white"/>
</g>
<defs>
<clipPath id="clip0_60_126">
<rect width="735" height="362" fill="white"/>
</clipPath>
</defs>
</svg>
