<svg width="56" height="56" viewBox="0 0 56 56" fill="none" xmlns="http://www.w3.org/2000/svg">
<path d="M28 5.25C23.5005 5.25 19.102 6.58426 15.3608 9.08407C11.6196 11.5839 8.70364 15.1369 6.98175 19.294C5.25986 23.451 4.80933 28.0252 5.68715 32.4383C6.56496 36.8514 8.73169 40.905 11.9133 44.0867C15.095 47.2683 19.1486 49.4351 23.5617 50.3129C27.9748 51.1907 32.549 50.7402 36.7061 49.0183C40.8631 47.2964 44.4161 44.3804 46.9159 40.6392C49.4157 36.898 50.75 32.4995 50.75 28C50.7436 21.9683 48.3447 16.1854 44.0797 11.9204C39.8146 7.65528 34.0317 5.25637 28 5.25ZM22.2316 36.75H33.7684C32.5938 40.7619 30.625 44.3778 28 47.2259C25.375 44.3778 23.4063 40.7619 22.2316 36.75ZM21.4375 33.25C20.8571 29.7741 20.8571 26.2259 21.4375 22.75H34.5625C35.1429 26.2259 35.1429 29.7741 34.5625 33.25H21.4375ZM8.75001 28C8.74849 26.2247 8.99364 24.4578 9.47845 22.75H17.8916C17.3695 26.2305 17.3695 29.7695 17.8916 33.25H9.47845C8.99364 31.5422 8.74849 29.7753 8.75001 28ZM33.7684 19.25H22.2316C23.4063 15.2381 25.375 11.6222 28 8.77406C30.625 11.6222 32.5938 15.2381 33.7684 19.25ZM38.1084 22.75H46.5216C47.4928 26.1826 47.4928 29.8174 46.5216 33.25H38.1084C38.6305 29.7695 38.6305 26.2305 38.1084 22.75ZM45.1434 19.25H37.3931C36.5001 15.7358 35.0002 12.4045 32.9613 9.40625C35.5662 10.1063 37.9959 11.3438 40.0939 13.0391C42.192 14.7344 43.912 16.8501 45.1434 19.25ZM23.0388 9.40625C20.9998 12.4045 19.5 15.7358 18.6069 19.25H10.8566C12.088 16.8501 13.808 14.7344 15.9061 13.0391C18.0041 11.3438 20.4338 10.1063 23.0388 9.40625ZM10.8566 36.75H18.6069C19.5 40.2642 20.9998 43.5955 23.0388 46.5938C20.4338 45.8937 18.0041 44.6562 15.9061 42.9609C13.808 41.2656 12.088 39.1499 10.8566 36.75ZM32.9613 46.5938C35.0002 43.5955 36.5001 40.2642 37.3931 36.75H45.1434C43.912 39.1499 42.192 41.2656 40.0939 42.9609C37.9959 44.6562 35.5662 45.8937 32.9613 46.5938Z" fill="black"/>
</svg>
