<svg width="46" height="46" viewBox="0 0 46 46" fill="none" xmlns="http://www.w3.org/2000/svg">
<path d="M15.7166 23.1917C15.1416 23.575 14.7583 24.3417 14.95 24.9167C14.95 26.2583 16.2916 27.2167 17.4416 27.2167C18.5916 27.2167 19.7416 26.2583 19.7416 24.9167C18.5916 24.15 17.25 23.575 15.7166 23.1917ZM42.1666 21.0833L44.0833 13.4167C44.0833 13.4167 40.25 13.4167 34.5 9.58332C28.75 5.74999 28.75 1.91666 23 1.91666C17.25 1.91666 17.25 5.74999 11.5 9.58332C5.74996 13.4167 1.91663 13.4167 1.91663 13.4167L3.83329 21.0833H4.02496C3.83329 21.6583 3.83329 22.425 3.83329 23C3.83329 29.7083 7.28329 35.65 12.4583 39.1L11.5 40.825C23.7666 48.6833 34.5 40.825 34.5 40.825L33.5416 39.1C38.7166 35.65 42.1666 29.7083 42.1666 23V21.0833ZM21.6583 8.62499L18.975 5.94166L20.3166 4.59999L23 7.28332L25.6833 4.59999L27.025 5.94166L24.3416 8.62499L27.025 11.3083L25.6833 12.65L23 9.96666L20.3166 12.65L18.975 11.3083L21.6583 8.62499ZM17.825 16.2917C19.7416 15.7167 21.6583 15.3333 23 15.3333C27.2166 15.3333 34.3083 18.4 37.95 19.9333C38.1416 20.5083 38.1416 21.0833 38.1416 21.6583L17.825 16.2917ZM26.0666 36.6083C24.725 37.375 23.3833 37.95 21.85 38.1417C20.8916 37.375 20.8916 35.8417 21.85 35.075C22.6166 34.3083 24.3416 33.925 25.3 34.8833C25.875 35.075 26.0666 36.0333 26.0666 36.6083ZM38.3333 25.6833C37.375 29.7083 34.8833 33.35 31.625 35.65L28.75 30.6667H17.25L14.375 35.65C10.35 32.9667 7.66663 28.3667 7.66663 23C7.66663 22.0417 7.85829 21.0833 8.04996 20.125C9.00829 19.7417 10.1583 19.1667 11.5 18.5917L25.1083 22.2333V26.8333C25.1083 27.7917 25.875 28.75 27.025 28.75H30.8583C31.8166 28.75 32.775 27.9833 32.775 26.8333V24.15L38.3333 25.6833Z" fill="black"/>
</svg>
