<svg width="201" height="126" viewBox="0 0 201 126" fill="none" xmlns="http://www.w3.org/2000/svg">
<g clip-path="url(#clip0_10_359)">
<path d="M133.658 82.6705C131.089 82.6705 128.495 82.5479 125.901 82.309C121.612 81.9107 117.438 81.2 113.419 80.1891C112.847 82.4438 111.87 84.5882 110.518 86.5917C115.564 88.3379 121.101 89.5204 126.854 90.0534C134.057 90.7212 141.107 90.3353 147.4 88.9628C147.788 88.6994 148.162 88.4359 148.525 88.1725C147.37 86.1751 146.466 84.0123 145.858 81.7269C141.93 82.3519 137.831 82.6705 133.652 82.6705H133.658Z" fill="#EFC360"/>
<path d="M97.1565 97.1361C89.9042 100.432 81.0477 102.16 71.6689 102.16C69.2781 102.16 66.8565 102.05 64.4166 101.823C47.9022 100.285 34.1105 93.9256 26.5324 85.3724C17.3748 86.9532 11.3701 90.6293 10.4359 95.2429C9.52631 99.7217 13.257 105.205 20.1651 109.568C33.5389 117.006 57.9817 117.765 87.2675 111.645C100.69 108.839 114.009 104.783 125.373 100.206C117.119 99.3847 109.203 97.3873 102.27 94.3729C100.709 95.3716 99.0065 96.2906 97.1688 97.13L97.1565 97.1361Z" fill="#0066FF"/>
<path d="M38.1791 79.1659C44.2883 83.2525 52.7821 85.979 62.0872 86.8429C71.3923 87.7068 80.2426 86.5917 87.0094 83.7059C92.6515 81.298 96.0748 77.916 96.4005 74.4298C96.7263 70.9436 93.9913 66.9917 88.8901 63.579C82.7809 59.4924 74.2871 56.7659 64.982 55.902C62.9231 55.712 60.8887 55.614 58.8974 55.614C51.8664 55.614 45.3331 56.7904 40.066 59.039C38.1668 59.8477 36.5197 60.7729 35.1553 61.7716C32.6416 63.916 31.0743 66.3422 30.6502 68.8482C30.6318 72.1996 33.3422 75.9309 38.1791 79.1659Z" fill="#EFC360"/>
<path d="M142.287 25.6289C142.238 25.6779 142.189 25.7269 142.139 25.7698C138.974 28.6801 136.067 32.393 132.994 36.3265C132.312 37.1965 131.623 38.0788 130.917 38.9672C143.768 40.9952 158.691 32.1724 163.847 29.1274C166.293 27.6814 169.446 28.484 170.897 30.9226C172.347 33.3611 171.542 36.5042 169.096 37.9501C159.803 43.446 151.653 46.9016 144.186 48.5191C137.124 50.0508 130.812 49.9037 124.887 48.0779C114.07 44.7449 106.99 36.5042 100.15 28.5331C91.7234 18.7239 84.4526 10.2565 71.1649 10.2565C55.5232 10.2565 42.7948 22.9453 42.7948 38.5383C42.7948 41.13 43.139 43.6665 43.8212 46.1112C51.4054 43.8871 60.3233 43.0293 69.8374 43.9177C91.7972 45.958 108.945 56.5331 113.069 69.4425C117.432 70.7536 122.06 71.642 126.86 72.0893C133.178 72.6775 139.435 72.4447 145.175 71.4337C146.847 58.2302 158.187 47.986 171.88 47.986C172.04 47.986 172.2 47.986 172.359 47.986C172.507 47.986 172.648 47.986 172.796 47.986C179.126 47.986 184.934 50.253 189.445 54.0149C192.512 44.1567 189.968 33.1528 182.408 25.6228C171.345 14.5943 153.35 14.5943 142.293 25.6228L142.287 25.6289Z" fill="#0066FF"/>
<path d="M188.444 72.653C187.841 65.1107 181.849 59.0573 174.32 58.3282C174.037 58.3466 173.742 58.3527 173.453 58.3282C173.091 58.2976 172.722 58.2792 172.359 58.267C163.896 58.4998 157.087 65.4293 157.087 73.9151C157.087 82.4009 164.136 89.5755 172.796 89.5755C181.456 89.5755 188.278 82.7685 188.499 74.3195C188.493 74.0254 188.474 73.7313 188.45 73.4372C188.425 73.1738 188.431 72.9103 188.45 72.653H188.444Z" fill="#EFC360"/>
<path d="M196.599 63.5055C204.405 48.6661 201.657 30.3098 189.679 18.3746C174.627 3.37593 150.16 3.35142 135.077 18.3011C131.328 21.7689 128.188 25.7759 124.869 30.0219C123.621 31.6149 122.349 33.2385 121.028 34.856C116.289 31.572 112.202 26.8175 107.955 21.867C99.16 11.6166 89.185 0 71.1586 0C49.8442 0 32.5001 17.2902 32.5001 38.5383C32.5001 42.484 33.0901 46.3317 34.2455 50.0263C32.2972 51.0985 30.5149 52.2932 28.9292 53.586C23.8833 57.3112 20.9209 62.0411 20.4231 67.3593C20.4047 67.5492 20.3924 67.733 20.3801 67.923C20.3555 68.119 20.3309 68.3151 20.3125 68.5112C20.0728 71.0661 20.3555 73.5781 21.093 76.0166C16.0656 77.2298 11.8309 79.0433 8.46906 81.4328C4.07464 84.5514 1.2659 88.6258 0.33785 93.2088C-1.46909 102.13 3.93328 111.516 14.781 118.317C14.8486 118.36 14.9224 118.403 14.9961 118.446C23.4408 123.188 34.8479 125.718 48.9038 125.982C49.6844 125.994 50.4711 126.006 51.2639 126.006C62.7017 126.006 75.8112 124.523 89.3632 121.693C113.781 116.589 137.327 107.748 151.586 98.5085C153.343 98.0674 155.058 97.5589 156.705 96.9829C161.026 99.93 166.244 101.652 171.861 101.652C186.704 101.652 198.775 89.6123 198.775 74.8219C198.775 74.7055 198.775 74.5891 198.769 74.4726C198.769 74.2827 198.775 74.0989 198.775 73.909C198.775 70.2083 197.994 66.6915 196.587 63.5055H196.599ZM126.854 90.0534C121.101 89.5203 115.564 88.3379 110.518 86.5917C111.87 84.5882 112.847 82.4438 113.419 80.1891C117.438 81.2 121.611 81.9107 125.901 82.309C128.501 82.5479 131.095 82.6705 133.658 82.6705C137.831 82.6705 141.936 82.3519 145.864 81.7269C146.472 84.0061 147.376 86.1689 148.531 88.1724C148.168 88.4359 147.794 88.6993 147.406 88.9628C141.113 90.3352 134.063 90.7273 126.86 90.0534H126.854ZM35.1552 61.7716C36.5196 60.7729 38.1667 59.8538 40.0658 59.0389C45.333 56.7904 51.8662 55.614 58.8973 55.614C60.8948 55.614 62.9291 55.7059 64.9819 55.902C74.287 56.7659 82.7808 59.4923 88.89 63.579C93.985 66.9856 96.7262 70.9436 96.4004 74.4298C96.0747 77.916 92.6513 81.298 87.0093 83.7059C80.2486 86.5917 71.3983 87.7129 62.0871 86.8429C52.782 85.979 44.2882 83.2525 38.179 79.1659C33.3421 75.9309 30.6317 72.2057 30.6501 68.8481C31.0742 66.3422 32.6414 63.916 35.1552 61.7716ZM173.453 58.316C173.748 58.3405 174.037 58.3405 174.32 58.316C181.855 59.0451 187.841 65.0985 188.443 72.6407C188.425 72.898 188.419 73.1615 188.443 73.4249C188.468 73.719 188.48 74.0131 188.493 74.3072C188.278 82.7562 181.32 89.5632 172.79 89.5632C164.259 89.5632 157.08 82.5357 157.08 73.9028C157.08 65.27 163.89 58.4875 172.353 58.2547C172.722 58.267 173.091 58.2853 173.447 58.316H173.453ZM42.7947 38.5383C42.7947 22.9453 55.5231 10.2565 71.1648 10.2565C84.4525 10.2565 91.7294 18.7239 100.149 28.533C106.996 36.5042 114.076 44.7449 124.887 48.0779C130.806 49.9037 137.118 50.0446 144.186 48.519C151.653 46.9015 159.803 43.4459 169.096 37.9501C171.542 36.5042 172.347 33.3549 170.897 30.9225C169.446 28.484 166.287 27.6814 163.847 29.1274C158.691 32.1786 143.768 40.9952 130.917 38.9672C131.617 38.0788 132.312 37.1965 132.994 36.3265C136.067 32.393 138.974 28.6801 142.139 25.7698C142.188 25.7208 142.238 25.6779 142.287 25.6289C153.35 14.6004 171.345 14.6004 182.402 25.6289C189.955 33.1589 192.506 44.1628 189.439 54.021C184.928 50.2591 179.12 47.9921 172.79 47.9921C172.642 47.9921 172.501 47.9921 172.353 47.9921C172.193 47.9921 172.034 47.9921 171.874 47.9921C158.18 47.9921 146.847 58.2363 145.169 71.4398C139.423 72.4569 133.172 72.6836 126.854 72.0954C122.054 71.6481 117.426 70.7597 113.062 69.4486C108.938 56.5392 91.797 45.9641 69.8311 43.9239C60.317 43.0416 51.3991 43.8993 43.8149 46.1173C43.1327 43.6726 42.7885 41.1361 42.7885 38.5444L42.7947 38.5383ZM87.2613 111.645C57.9815 117.765 33.5387 117.006 20.1588 109.568C13.2507 105.205 9.52003 99.7217 10.4296 95.2429C11.3638 90.6293 17.3685 86.9532 26.5261 85.3724C34.1042 93.9256 47.8959 100.285 64.4103 101.823C66.8503 102.05 69.2718 102.16 71.6626 102.16C81.0415 102.16 89.8979 100.432 97.1502 97.1361C98.994 96.2967 100.696 95.3777 102.251 94.379C109.184 97.3873 117.1 99.3908 125.354 100.212C113.99 104.789 100.672 108.845 87.249 111.651L87.2613 111.645Z" fill="#272525"/>
<path d="M73.9491 79.4722C73.8692 79.8582 73.6664 80.1829 73.3407 80.4525C73.0149 80.7221 72.5908 80.8446 72.0807 80.8263C70.6917 80.7589 69.5485 80.6731 68.6512 80.5751C67.7539 80.477 66.7091 80.3177 65.5045 80.0972C64.5887 79.9134 64.14 79.4538 64.1708 78.7247C64.1831 78.4368 64.2076 78.063 64.2445 77.5974C64.2814 77.1317 64.306 76.7212 64.3183 76.3659C64.3306 76.0105 64.2691 75.7225 64.1339 75.502C63.9987 75.2814 63.7221 75.1527 63.3226 75.1037L61.4235 74.8954C61.0179 74.8525 60.7228 74.9199 60.5446 75.1037C60.3602 75.2875 60.2373 75.5571 60.1758 75.9064C60.1082 76.2556 60.0468 76.66 59.9792 77.1195C59.9116 77.579 59.8501 77.9527 59.8009 78.2346C59.6719 78.9514 59.1372 79.3007 58.1968 79.2823C56.9738 79.2333 55.8613 79.1536 54.8595 79.0433C53.8577 78.933 52.6654 78.7554 51.2948 78.5225C50.7908 78.4306 50.4098 78.2223 50.1517 77.8853C49.8874 77.5484 49.7645 77.1869 49.7706 76.7948C49.8013 75.2998 49.998 72.9164 50.3606 69.6385C50.7232 66.3606 50.9937 64.2346 51.1719 63.2604C51.3501 62.2862 51.5775 61.6306 51.8541 61.2937C52.1307 60.9567 52.6224 60.828 53.3292 60.9077L59.4998 61.5878C60.0898 61.6551 60.5692 61.9125 60.938 62.3597C61.3067 62.807 61.4542 63.3523 61.3805 63.9895L60.7904 69.2832C60.7228 69.8897 60.9502 70.2206 61.4727 70.2757L64.2814 70.5882C64.8038 70.6433 65.0988 70.3738 65.1664 69.7672L65.7564 64.4735C65.8302 63.8363 66.0945 63.3339 66.5493 62.9786C67.0041 62.6232 67.5326 62.4762 68.1227 62.5374L73.9676 63.1869C74.6743 63.2665 75.1292 63.4993 75.3258 63.8853C75.5225 64.2713 75.5963 64.9637 75.5594 65.9501C75.5164 66.9427 75.3135 69.0748 74.9509 72.3527C74.5883 75.6306 74.2564 78.0018 73.9553 79.4661L73.9491 79.4722Z" fill="#272525"/>
<path d="M168.414 74.9689L170.202 66.4525C170.387 65.6254 170.51 65.0923 170.583 64.8595C170.731 64.2774 170.97 63.8792 171.296 63.6709C171.622 63.4626 172.175 63.4442 172.95 63.6157L180.368 65.2394C181.142 65.4109 181.634 65.656 181.843 65.9807C182.052 66.3054 182.101 66.765 181.99 67.3593C181.769 68.5234 181.486 69.9203 181.124 71.5501C180.761 73.1798 180.294 75.1405 179.71 77.4442C178.862 81.0162 176.49 82.9768 172.587 83.3199C170.337 83.5221 167.572 83.2647 164.284 82.5418C163.546 82.3825 163.104 82.0516 162.962 81.5615C162.821 81.0652 162.87 80.2748 163.11 79.1781C163.349 78.0814 163.909 77.5851 164.775 77.677C165.839 77.775 166.674 77.4993 167.289 76.856C167.904 76.2127 168.279 75.5816 168.414 74.975V74.9689Z" fill="#272525"/>
</g>
<defs>
<clipPath id="clip0_10_359">
<rect width="201" height="126" fill="white"/>
</clipPath>
</defs>
</svg>
