<svg width="59" height="61" viewBox="0 0 59 61" fill="none" xmlns="http://www.w3.org/2000/svg">
<g clip-path="url(#clip0_93_168)">
<path d="M30.2337 15.7164C28.9648 14.1462 26.9527 12.7351 24.5703 11.7386C24.0444 11.5188 23.5142 11.3262 22.9883 11.1608C21.1317 10.5788 19.3092 10.3443 17.7273 10.495C17.1567 10.5495 16.6457 10.652 16.2007 10.8007C15.3554 11.1503 14.738 11.6528 14.4144 12.2725C14.1269 13.1434 14.5272 14.3388 15.5321 15.5803C16.8011 17.1504 18.8131 18.5615 21.1956 19.558C23.5802 20.5525 26.0095 20.9942 28.0386 20.8016C29.7312 20.6404 30.9193 20.0437 31.3004 19.1624C31.6815 18.281 31.2919 17.0248 30.2337 15.7164ZM26.3332 15.2642C26.2459 15.5112 26.0308 16.0325 25.6859 16.8301C25.341 17.6278 25.0749 18.1993 24.8854 18.5448C24.8364 18.6348 24.7597 18.7018 24.6554 18.7457C24.5511 18.7897 24.434 18.7876 24.3062 18.7457C23.9571 18.6243 23.6718 18.5154 23.4503 18.4233C23.2289 18.3312 22.9734 18.2119 22.6839 18.0674C22.4646 17.9523 22.3858 17.8036 22.4497 17.6215C22.4752 17.5503 22.5114 17.4582 22.5561 17.3431C22.6008 17.2279 22.6391 17.1274 22.669 17.0395C22.7009 16.9516 22.7051 16.8741 22.6881 16.8092C22.669 16.7443 22.6115 16.6899 22.5114 16.648L22.043 16.4533C21.9429 16.4114 21.862 16.4072 21.8024 16.4386C21.7407 16.4721 21.6896 16.5287 21.647 16.6124C21.6044 16.6961 21.5554 16.7924 21.5022 16.9034C21.449 17.0144 21.4064 17.1044 21.3723 17.1714C21.2829 17.341 21.1211 17.3891 20.8826 17.3137C20.5739 17.2091 20.2971 17.1044 20.048 17.0018C19.801 16.8992 19.5115 16.7652 19.1793 16.6019C19.058 16.5412 18.9771 16.4596 18.9366 16.3549C18.8962 16.2502 18.8919 16.1497 18.9238 16.0534C19.0452 15.6787 19.2794 15.0946 19.6243 14.2969C19.9692 13.4993 20.2013 12.9843 20.3227 12.7519C20.4419 12.5195 20.5505 12.3709 20.6463 12.308C20.7421 12.2452 20.8784 12.2494 21.053 12.3227L22.5753 12.9591C22.7201 13.0199 22.8222 13.1203 22.8819 13.2606C22.9415 13.4009 22.9372 13.5495 22.8712 13.7044L22.3134 14.992C22.2495 15.1385 22.2815 15.239 22.4113 15.2935L23.1033 15.5824C23.2332 15.6368 23.329 15.5887 23.3929 15.4421L23.9507 14.1546C24.0188 13.9996 24.1231 13.8929 24.2679 13.8384C24.4127 13.7819 24.5575 13.7861 24.7023 13.8468L26.1437 14.4498C26.3183 14.523 26.4162 14.6151 26.4354 14.7282C26.4545 14.8413 26.4226 15.0192 26.3353 15.2662L26.3332 15.2642Z" fill="#D9D9D9"/>
<path d="M25.7475 28.0997C29.5267 28.4787 33.3868 28.5247 36.7721 28.2735C34.6622 27.3775 32.7417 26.2009 31.164 24.8443C30.6679 24.9741 30.1399 25.0745 29.5842 25.1394C27.3912 25.399 24.9087 25.1143 22.4325 24.3397C21.8023 24.1429 21.1721 23.9126 20.5461 23.6509C16.3155 21.884 13.2113 19.087 11.9317 16.2334C9.381 15.888 7.48396 16.3486 6.84948 17.4728C6.23204 18.5657 6.75367 20.3012 8.20999 22.0075C11.1141 25.0515 17.5015 27.2707 25.7497 28.0997H25.7475Z" fill="#D9D9D9"/>
<path d="M38.4244 23.6551C37.3258 23.1966 36.2846 22.6649 35.3073 22.0703C34.9667 22.6105 34.5281 23.0878 34.0022 23.4981C35.186 24.3711 36.5508 25.1353 38.0241 25.7508C39.87 26.5212 41.7628 27.0027 43.5406 27.166C43.6641 27.1283 43.7855 27.0907 43.9047 27.053C43.7685 26.4375 43.7131 25.7989 43.745 25.1541C42.6549 24.9929 41.5457 24.7354 40.4428 24.39C39.7657 24.1785 39.0908 23.9315 38.4244 23.6551Z" fill="#D9D9D9"/>
<path d="M26.8611 9.02115C32.4862 11.3701 36.1206 15.5426 36.1206 19.244C37.1617 19.9453 38.3093 20.5608 39.5378 21.0738C41.156 21.75 42.8273 22.2064 44.4284 22.4178C45.9848 19.1184 49.8428 17.3891 53.4559 18.5217C53.6347 18.5782 53.8136 18.6411 53.986 18.7101C54.1542 18.7478 54.3224 18.7939 54.4885 18.8462C55.8788 19.2817 57.0137 20.1463 57.7865 21.2454C59.2428 18.9718 59.4238 16.0471 58.1229 13.5705C56.1343 9.78321 51.3821 8.29469 47.5306 10.2522C47.5135 10.2605 47.4965 10.2689 47.4795 10.2773C46.3979 10.7735 45.3184 11.4999 44.1729 12.2704C43.9196 12.4399 43.662 12.6137 43.4022 12.7854C46.6236 14.3765 51.3076 13.315 52.9257 12.9466C53.6922 12.7728 54.4587 13.2418 54.6354 13.9975C54.8121 14.7512 54.3352 15.5049 53.5666 15.6787C50.6497 16.3402 48.2055 16.5684 46.0977 16.3716C44.1027 16.1853 42.4484 15.6263 41.041 14.6612C38.4669 12.8984 37.2938 10.1663 36.1589 7.52426C34.7622 4.27296 33.5572 1.4655 30.0484 0.366384C25.9179 -0.927434 21.4893 1.32314 20.1735 5.38464C19.9542 6.06086 19.8307 6.74964 19.8052 7.4447C22.0557 7.49704 24.4956 8.03718 26.8589 9.02115H26.8611Z" fill="#D9D9D9"/>
<path d="M28.8752 31.1459C28.8752 31.1459 28.8752 31.1522 28.8752 31.1542C28.8113 32.111 28.8113 33.0782 28.8688 33.9973C29.2392 34.0957 29.6097 34.2025 29.9823 34.3197C30.4677 34.4725 30.9425 34.6358 31.4067 34.8117C31.5685 33.4279 32.0582 32.1906 32.7651 31.238C31.4918 31.2443 30.1909 31.215 28.8752 31.148V31.1459Z" fill="#D9D9D9"/>
<path d="M55.914 25.8728C56.5047 24.0507 55.4813 22.1028 53.6283 21.522C51.7752 20.9411 49.7942 21.9474 49.2035 23.7695C48.6129 25.5916 49.6362 27.5395 51.4893 28.1203C53.3423 28.7011 55.3233 27.6949 55.914 25.8728Z" fill="#D9D9D9"/>
<path d="M23.0116 49.9753C26.2053 50.235 29.3436 49.9272 32.1221 49.0877C32.7012 48.2272 33.0206 47.3061 33.0547 46.3598C33.0611 46.1776 33.0547 45.9976 33.0419 45.8154C30.4721 46.3598 27.7085 46.5273 24.8746 46.297C23.7334 46.2049 22.6135 46.0457 21.5212 45.8301C18.7427 45.3277 16.1154 44.396 13.6712 43.0436C13.6392 43.6654 13.5264 44.2872 13.3284 44.8985C13.1176 45.5454 12.8238 46.1441 12.4597 46.6843C15.3511 48.4973 19.0366 49.655 23.0095 49.9774L23.0116 49.9753Z" fill="#D9D9D9"/>
<path d="M9.43418 26.4668C9.37031 27.4235 9.32773 28.3908 9.30005 29.1214C9.31921 29.1256 9.33624 29.1298 9.35541 29.134C9.36605 29.1361 9.3767 29.1382 9.38734 29.1403C9.74503 29.2198 10.1049 29.3098 10.4668 29.4061C10.6244 28.6734 10.8756 27.993 11.2035 27.388C10.5775 27.0949 9.98775 26.7871 9.43631 26.4647L9.43418 26.4668Z" fill="#D9D9D9"/>
<path d="M54.4096 38.6241C54.8354 35.9171 52.9426 33.3734 50.1896 32.9547C48.8568 32.7516 47.5219 33.0719 46.4339 33.8549C45.7994 34.3113 44.9052 34.1773 44.441 33.5514C43.9769 32.9275 44.1131 32.0503 44.7497 31.5918C45.1649 31.2924 45.6035 31.037 46.0592 30.8276C45.793 30.5785 45.546 30.3105 45.3203 30.0258C44.837 30.0384 44.341 30.03 43.8406 29.9986C42.5269 30.3524 41.0089 30.635 39.3524 30.8402C39.5419 31.1689 39.5973 31.5688 39.4717 31.9582C38.9436 33.587 37.73 35.6617 36.3312 37.393C37.4575 38.2116 38.3581 39.0972 38.9607 40.0079C39.3908 40.6569 39.2034 41.5257 38.5455 41.9486C38.2538 42.1349 37.9174 42.204 37.5959 42.1664C37.7577 42.3024 37.8897 42.4741 37.9791 42.6793C38.2879 43.3911 37.9536 44.2159 37.2276 44.5195C36.7677 44.7121 36.2993 44.8901 35.8202 45.0555C35.8926 45.5223 35.9203 45.9913 35.9033 46.4623C35.8096 49.0877 34.3724 51.4952 31.8239 53.3648C31.8111 53.3753 31.7962 53.3836 31.7834 53.3941C31.7323 53.4318 31.6812 53.4674 31.6301 53.5051C31.5577 53.5574 31.4853 53.6076 31.4108 53.6579C31.3959 53.6684 31.381 53.6788 31.3661 53.6893C31.2852 53.7437 31.2022 53.7982 31.1191 53.8526C31.1106 53.8589 31.1 53.8652 31.0914 53.8714C30.7103 54.1164 30.3079 54.3509 29.8885 54.5707C29.8779 54.577 29.8672 54.5811 29.8587 54.5874C29.7778 54.6293 29.6947 54.6733 29.6117 54.713C29.5883 54.7256 29.5649 54.7361 29.5415 54.7486C29.4584 54.7905 29.3754 54.8303 29.2902 54.8701C29.2349 54.8973 29.1774 54.9224 29.122 54.9475C29.0879 54.9643 29.0539 54.9789 29.0177 54.9957C28.9496 55.0271 28.8836 55.0564 28.8154 55.0857C28.8069 55.0899 28.7984 55.092 28.7899 55.0962C26.384 56.1513 23.5799 56.7585 20.629 56.861C20.6098 56.861 20.5906 56.861 20.5715 56.861C20.2074 56.8736 19.8433 56.8778 19.475 56.8736C19.4324 56.8736 19.3919 56.8736 19.3494 56.8736C19.1705 56.8715 18.9917 56.8673 18.8128 56.861C18.3827 56.8464 17.9569 56.8213 17.5332 56.7857C15.7022 56.6307 13.9478 56.2853 12.3275 55.7787C8.47808 54.5728 5.37383 52.4499 3.74292 49.789C3.57472 49.5126 3.42143 49.2321 3.28516 48.9453C3.18084 48.7632 3.11696 48.5538 3.10419 48.3361C3.07012 47.7562 3.40652 47.216 3.94519 46.9773C4.2965 46.8224 4.67974 46.8182 5.01614 46.9376C5.08001 46.9564 5.14388 46.9732 5.20776 46.9899C5.22479 46.9941 5.24182 46.9983 5.25886 47.0025C5.31847 47.0171 5.37809 47.0297 5.4377 47.0422C5.45899 47.0464 5.48241 47.0506 5.50371 47.0548C5.54416 47.0611 5.58248 47.0695 5.62294 47.0757C5.65061 47.0799 5.67829 47.0841 5.70597 47.0883C5.75494 47.0946 5.80604 47.1009 5.85501 47.1051C5.89121 47.1092 5.9274 47.1113 5.9636 47.1155C5.98489 47.1155 6.00618 47.1197 6.02747 47.1197C6.0956 47.1239 6.16373 47.126 6.23186 47.1281C6.24677 47.1281 6.25954 47.1281 6.27445 47.1281C6.3149 47.1281 6.35748 47.1281 6.39794 47.1281C6.40858 47.1281 6.42136 47.1281 6.432 47.1281C6.50439 47.1281 6.57465 47.1218 6.64704 47.1176C6.6662 47.1176 6.68537 47.1155 6.70666 47.1134C6.74285 47.1113 6.77905 47.1072 6.81524 47.103C6.86421 47.0967 6.91105 47.0925 6.96002 47.0841C6.9877 47.0799 7.01538 47.0757 7.04306 47.0716C7.08138 47.0653 7.12184 47.059 7.16016 47.0506C7.17932 47.0464 7.20061 47.0443 7.21977 47.0402C7.27939 47.0276 7.34113 47.015 7.40075 47.0004C7.40927 46.9983 7.41991 46.9962 7.42843 46.9941C8.09484 46.8266 8.71654 46.5105 9.24244 46.0708C9.2616 46.0478 9.28076 46.0248 9.30205 46.0017C9.37657 45.9222 9.45748 45.8531 9.54264 45.7945C10.0196 45.3172 10.3922 44.7268 10.6115 44.0464C10.9755 42.92 10.8733 41.7204 10.3219 40.6716C10.2814 40.5962 10.2495 40.5187 10.2261 40.4392C9.47238 39.7357 8.8081 38.9841 8.25027 38.1886C7.80315 37.5501 7.9671 36.677 8.61648 36.2395C9.26586 35.7998 10.1537 35.961 10.5987 36.5996C11.84 38.3707 13.8009 39.9472 16.2664 41.1594C18.0165 42.0177 19.9753 42.6667 22.0406 43.077C22.0959 43.0875 22.1513 43.098 22.2066 43.1064C25.7197 43.7135 29.616 43.5648 33.789 42.6667C33.9125 42.6395 34.0339 42.6311 34.1553 42.6353C34.8302 42.4343 35.4838 42.2019 36.1077 41.9402C36.3461 41.8398 36.5974 41.8104 36.8379 41.8377C36.7379 41.7539 36.6463 41.6534 36.5718 41.5404C35.9778 40.6443 34.8813 39.7232 33.4739 38.8983C33.4654 38.8941 33.4569 38.8878 33.4505 38.8837C32.2007 38.153 30.7125 37.4956 29.1178 36.9953C26.9503 36.3149 24.7403 35.9736 22.8965 36.028C22.1087 36.0511 21.4508 35.4439 21.4274 34.6693C21.4018 33.8947 22.0214 33.2478 22.8092 33.2248C23.8163 33.1934 24.8872 33.2583 25.9922 33.4132C25.9667 32.6114 25.9794 31.7907 26.0327 30.9784C26.0327 30.9679 26.0348 30.9574 26.0369 30.947C25.8453 30.9302 25.6516 30.9114 25.4599 30.8925C22.7112 30.6162 20.0839 30.1765 17.6993 29.5987C17.7163 29.9107 17.629 30.2289 17.4289 30.501C17.0861 30.9658 16.82 31.4808 16.6411 32.0335C15.7256 34.8577 17.3182 37.885 20.1882 38.7853C22.0832 39.3777 24.1569 38.913 25.6047 37.5689C26.1774 37.0371 27.0802 37.0623 27.621 37.6254C28.1618 38.1886 28.1362 39.0763 27.5635 39.608C25.362 41.6513 22.2045 42.359 19.3238 41.4566C15.7426 40.3345 13.4687 37.035 13.5326 33.5158C12.6213 33.0824 11.6483 32.7014 10.6242 32.379C10.1665 32.2345 9.70659 32.1068 9.25095 31.9938C6.49162 33.4425 4.20494 35.2827 2.61875 37.3407C0.913326 39.5473 0.0340001 41.9277 -6.57905e-05 44.4127C-0.0554229 48.6564 2.41435 52.7137 6.95363 55.8415C11.659 59.0823 17.9718 60.9121 24.7318 60.9979C31.4917 61.0816 37.8493 59.4089 42.6377 56.2874C47.0407 53.415 49.5828 49.6487 49.8575 45.627C49.3124 45.6563 48.7589 45.6291 48.2074 45.5454C47.8008 45.4825 47.4026 45.3904 47.0173 45.2711C45.2565 44.7184 43.7342 43.5732 42.7335 42.0135C42.314 41.3582 42.512 40.4936 43.1785 40.0791C43.8449 39.6666 44.7242 39.8613 45.1458 40.5166C45.9271 41.733 47.2025 42.5558 48.646 42.7756C49.3955 42.8886 50.1428 42.8384 50.8497 42.6332C50.8646 42.629 50.8773 42.6227 50.8923 42.6207C51.4267 42.4595 51.9376 42.2103 52.4018 41.8753C53.4898 41.0924 54.2052 39.9388 54.4117 38.6261L54.4096 38.6241ZM50.9348 38.9737C50.658 39.7818 50.0598 40.1838 49.1379 40.1796C48.6056 40.1796 47.9626 40.0602 47.2089 39.8237C47.0385 39.7713 46.9427 39.6855 46.9214 39.5682C46.898 39.451 46.9278 39.2689 47.0087 39.0197C47.0896 38.7706 47.2302 38.668 47.4324 38.7078C47.6794 38.7539 47.8817 38.7078 48.0392 38.5717C48.1968 38.4356 48.299 38.2996 48.3437 38.1614L48.9484 36.2311C49.0101 36.0448 49.0506 35.9234 49.0719 35.871C49.1187 35.7391 49.1826 35.6533 49.2635 35.6114C49.3444 35.5696 49.4743 35.5779 49.651 35.6324L51.3543 36.1662C51.5331 36.2227 51.6417 36.2897 51.6843 36.3693C51.7269 36.4488 51.7269 36.5556 51.6885 36.6917C51.6119 36.9576 51.514 37.2737 51.3947 37.6422C51.2755 38.0106 51.1222 38.4545 50.9348 38.9737Z" fill="#D9D9D9"/>
</g>
<defs>
<clipPath id="clip0_93_168">
<rect width="59" height="61" fill="white"/>
</clipPath>
</defs>
</svg>
