<svg width="42" height="42" viewBox="0 0 42 42" fill="none" xmlns="http://www.w3.org/2000/svg">
<path d="M22.799 3.50173C24.0761 3.49683 25.3531 3.50966 26.6298 3.54023L26.9693 3.55248C27.3613 3.56648 27.748 3.58398 28.2153 3.60498C30.0773 3.69248 31.3478 3.98648 32.4625 4.41873C33.6175 4.86323 34.5905 5.46523 35.5635 6.43823C36.4532 7.31254 37.1417 8.37013 37.5813 9.53748C38.0135 10.6522 38.3075 11.9245 38.395 13.7865C38.416 14.252 38.4335 14.6405 38.4475 15.0325L38.458 15.372C38.4891 16.6481 38.5025 17.9245 38.4983 19.201L38.5 20.5065V22.799C38.5043 24.076 38.4909 25.3531 38.4598 26.6297L38.4493 26.9692C38.4353 27.3612 38.4178 27.748 38.3968 28.2152C38.3093 30.0772 38.0118 31.3477 37.5813 32.4625C37.1432 33.6311 36.4544 34.6895 35.5635 35.5635C34.6885 36.453 33.6303 37.1415 32.4625 37.5812C31.3478 38.0135 30.0773 38.3075 28.2153 38.395C27.748 38.416 27.3613 38.4335 26.9693 38.4475L26.6298 38.458C25.3531 38.4891 24.0761 38.5025 22.799 38.4982L21.4935 38.5H19.2028C17.9257 38.5043 16.6487 38.4909 15.372 38.4597L15.0325 38.4492C14.6171 38.4342 14.2018 38.4167 13.7865 38.3967C11.9245 38.3092 10.654 38.0117 9.53753 37.5812C8.36973 37.1426 7.31195 36.4539 6.43828 35.5635C5.54761 34.689 4.85843 33.6307 4.41878 32.4625C3.98653 31.3477 3.69253 30.0772 3.60503 28.2152C3.58554 27.8 3.56804 27.3846 3.55253 26.9692L3.54378 26.6297C3.51152 25.3531 3.49693 24.076 3.50003 22.799V19.201C3.49515 17.9245 3.50798 16.6481 3.53853 15.372L3.55078 15.0325C3.56478 14.6405 3.58228 14.252 3.60328 13.7865C3.69078 11.9227 3.98478 10.654 4.41703 9.53748C4.85694 8.36956 5.54747 7.31226 6.44003 6.43998C7.3131 5.54879 8.37021 4.85898 9.53753 4.41873C10.654 3.98648 11.9228 3.69248 13.7865 3.60498L15.0325 3.55248L15.372 3.54373C16.6481 3.51148 17.9246 3.49689 19.201 3.49998L22.799 3.50173ZM21 12.2517C19.8407 12.2353 18.6896 12.4495 17.6137 12.8818C16.5379 13.3142 15.5587 13.956 14.733 14.7701C13.9074 15.5841 13.2517 16.5542 12.8042 17.6238C12.3567 18.6935 12.1263 19.8414 12.1263 21.0009C12.1263 22.1603 12.3567 23.3083 12.8042 24.3779C13.2517 25.4475 13.9074 26.4176 14.733 27.2316C15.5587 28.0457 16.5379 28.6875 17.6137 29.1199C18.6896 29.5522 19.8407 29.7664 21 29.75C23.3207 29.75 25.5463 28.8281 27.1872 27.1872C28.8282 25.5462 29.75 23.3206 29.75 21C29.75 18.6793 28.8282 16.4537 27.1872 14.8128C25.5463 13.1718 23.3207 12.2517 21 12.2517ZM21 15.7517C21.6974 15.7389 22.3904 15.8651 23.0384 16.1231C23.6865 16.3811 24.2766 16.7656 24.7744 17.2542C25.2722 17.7428 25.6676 18.3257 25.9376 18.9688C26.2075 19.612 26.3466 20.3025 26.3468 21C26.3469 21.6975 26.208 22.388 25.9382 23.0312C25.6685 23.6745 25.2733 24.2575 24.7756 24.7463C24.278 25.235 23.688 25.6198 23.0401 25.8779C22.3921 26.1361 21.6992 26.2626 21.0018 26.25C19.6094 26.25 18.274 25.6969 17.2895 24.7123C16.3049 23.7277 15.7518 22.3924 15.7518 21C15.7518 19.6076 16.3049 18.2722 17.2895 17.2877C18.274 16.3031 19.6094 15.75 21.0018 15.75L21 15.7517ZM30.1875 9.62673C29.623 9.64932 29.089 9.88949 28.6976 10.2969C28.3061 10.7044 28.0875 11.2475 28.0875 11.8125C28.0875 12.3775 28.3061 12.9206 28.6976 13.328C29.089 13.7355 29.623 13.9756 30.1875 13.9982C30.7677 13.9982 31.3241 13.7678 31.7343 13.3575C32.1446 12.9473 32.375 12.3909 32.375 11.8107C32.375 11.2306 32.1446 10.6742 31.7343 10.2639C31.3241 9.85369 30.7677 9.62323 30.1875 9.62323V9.62673Z" fill="white"/>
</svg>
