<svg width="44" height="36" viewBox="0 0 44 36" fill="none" xmlns="http://www.w3.org/2000/svg">
<path d="M0 9C0 6.51797 1.97313 4.5 4.4 4.5H39.6C42.0269 4.5 44 6.51797 44 9V27C44 29.482 42.0269 31.5 39.6 31.5H4.4C1.97313 31.5 0 29.482 0 27V9ZM22 9V27H39.6V9H22ZM12.2581 12.368C12.0381 11.8617 11.5431 11.5312 11 11.5312C10.4569 11.5312 9.96187 11.8617 9.74187 12.368L5.34188 22.493C5.0325 23.2031 5.34875 24.0328 6.04313 24.3492C6.7375 24.6656 7.54875 24.3422 7.85813 23.632L8.47 22.2188H13.53L14.1419 23.632C14.4513 24.3422 15.2625 24.6586 15.9569 24.3492C16.6513 24.0398 16.9606 23.2031 16.6581 22.493L12.2581 12.368ZM11 16.3969L12.3063 19.4062H9.69375L11 16.3969ZM30.8 11.5312C31.5563 11.5312 32.175 12.1641 32.175 12.9375V13.2188H36.3C37.0563 13.2188 37.675 13.8516 37.675 14.625C37.675 15.3984 37.0563 16.0312 36.3 16.0312H36.1625L36.0525 16.3477C35.4406 18.0633 34.5125 19.6242 33.33 20.9461C33.3919 20.9883 33.4538 21.0234 33.5156 21.0586L34.815 21.8531C35.4681 22.2539 35.6744 23.1188 35.2894 23.7797C34.9044 24.4406 34.0519 24.6586 33.4056 24.2648L32.1063 23.4703C31.7969 23.2805 31.5013 23.0836 31.2056 22.8727C30.4769 23.4 29.7 23.857 28.8681 24.2367L28.6206 24.3492C27.9263 24.6656 27.115 24.3422 26.8056 23.632C26.4963 22.9219 26.8125 22.0922 27.5069 21.7758L27.7544 21.6633C28.1944 21.4594 28.6206 21.2344 29.0263 20.9742L28.1875 20.1164C27.6513 19.568 27.6513 18.675 28.1875 18.1266C28.7238 17.5781 29.5969 17.5781 30.1331 18.1266L31.1369 19.1531L31.1712 19.1883C32.0238 18.2672 32.7181 17.1984 33.22 16.0242H25.85C25.0938 16.0242 24.475 15.3914 24.475 14.618C24.475 13.8445 25.0938 13.2117 25.85 13.2117H29.425V12.9305C29.425 12.157 30.0438 11.5242 30.8 11.5242V11.5312Z" fill="white"/>
</svg>
