<svg width="125" height="131" viewBox="0 0 125 131" fill="none" xmlns="http://www.w3.org/2000/svg">
<path d="M109.199 92.1886C112.477 89.8312 114.638 86.3439 115.28 82.3771C115.923 78.4062 114.965 74.4271 112.592 71.1675C111.933 70.2611 111.184 69.4401 110.361 68.7166C113.615 67.0624 116.234 64.1808 117.449 60.4618C117.56 60.1245 117.658 59.779 117.74 59.4336C117.867 59.1287 117.985 58.8158 118.092 58.4947C118.587 56.9827 118.763 55.4423 118.661 53.9466C124.664 47.7321 126.121 38.319 122.131 30.5479C116.991 20.5413 104.628 16.546 94.5446 21.6184C92.0769 22.7523 89.8344 24.2602 87.4567 25.8575C86.5646 26.455 85.6561 27.0687 84.719 27.6662C82.8651 25.2398 81.5802 22.1793 80.2461 18.9968C77.4837 12.4044 74.349 4.92995 65.2395 1.99546C54.4645 -1.47554 42.8546 4.40565 39.3598 15.1072C38.7091 17.0947 38.3735 19.1269 38.3531 21.1754C37.0844 21.4152 35.9059 21.7566 34.8296 22.1915C31.7931 23.2604 29.6078 25.13 28.511 27.6581C28.4701 27.7516 28.4333 27.845 28.3965 27.9345C28.3514 28.0279 28.3064 28.1214 28.2655 28.219C27.7253 29.4667 27.4511 30.7795 27.4266 32.1249C24.6847 31.9176 22.2457 32.1411 20.1545 32.7955C17.4209 33.6531 15.3297 35.2463 14.1061 37.4004C11.7244 41.599 12.9112 47.2038 17.2776 52.3981C17.3063 52.4306 17.3349 52.4631 17.3636 52.4956C17.7442 52.9061 18.1493 53.3126 18.5749 53.7068C18.3089 56.2552 18.1248 59.4417 18.0184 61.7706C17.1712 61.6893 16.3364 61.6365 15.5261 61.6121C14.0161 61.5714 12.7597 62.7542 12.7188 64.2539C12.6861 65.4854 13.4841 66.5462 14.6054 66.912C14.7077 66.9446 14.81 66.9689 14.9123 66.9893C11.4707 69.4279 8.52419 72.2039 6.20794 75.2034C2.25886 80.3368 0.110398 86.1773 0.00399818 92.0951C-0.090125 97.2284 1.29717 102.219 4.12496 106.93C6.79314 111.381 10.6317 115.384 15.5343 118.831C20.1423 122.074 25.4705 124.663 31.2693 126.533C37.8988 128.667 45.1463 129.857 52.6393 129.992C66.6882 130.239 80.0005 126.748 90.1208 120.156C95.1421 116.884 99.1239 113.019 101.952 108.67C104.943 104.065 106.511 99.1265 106.601 93.9891C106.601 93.8915 106.601 93.794 106.601 93.6964C107.505 93.2859 108.373 92.782 109.195 92.1926L109.199 92.1886ZM60.9426 72.3014C60.8403 70.5212 60.8526 68.6476 60.9835 66.7942C60.9835 66.7901 60.9835 66.782 60.9835 66.7779C63.5044 66.9202 66.0007 66.9893 68.4438 66.9893C67.0811 68.8264 66.1276 71.2203 65.8043 73.8988C64.9163 73.5573 64.0078 73.2322 63.0788 72.9355C62.3667 72.7079 61.6547 72.4965 60.9467 72.3014H60.9426ZM78.5805 56.4178C75.7609 55.2106 73.1541 53.7149 70.891 52.016C71.9059 51.2275 72.7489 50.3049 73.4119 49.2644C75.278 50.4268 77.271 51.4673 79.3744 52.3656C80.6471 52.9102 81.9403 53.3939 83.2375 53.8125C85.3492 54.4912 87.4731 54.9993 89.5602 55.3244C89.4947 56.5722 89.5929 57.8078 89.8466 59.0027C89.6175 59.0759 89.3842 59.149 89.1468 59.2181C85.7379 58.8849 82.1122 57.9338 78.5805 56.4218V56.4178ZM36.8757 27.2435C37.7269 26.9631 38.7132 26.768 39.8058 26.6664C42.8382 26.39 46.3331 26.8655 49.8893 28.0076C50.896 28.3328 51.9109 28.7108 52.9176 29.1416C57.4805 31.0925 61.3232 33.8482 63.7418 36.9005C65.7593 39.4448 66.4918 41.8835 65.7511 43.5865C65.0145 45.2894 62.7269 46.4356 59.4776 46.7282C55.5858 47.0818 50.9287 46.2039 46.3658 44.249C41.8029 42.298 37.9602 39.5424 35.5416 36.49C33.6264 34.0717 32.8694 31.755 33.43 30.0683C34.0561 28.8733 35.247 27.906 36.8716 27.2354L36.8757 27.2435ZM112.886 56.8201C111.736 60.3399 107.922 62.2705 104.378 61.1325C100.834 59.9944 98.8906 56.2024 100.036 52.6826C101.113 49.3864 104.534 47.4802 107.873 48.1914C107.873 48.1914 107.877 48.1914 107.881 48.1914C108.102 48.2402 108.323 48.2971 108.544 48.3703C112.088 49.5124 114.032 53.3004 112.886 56.8201ZM63.5494 7.16537C70.2649 9.32763 72.5484 14.778 75.1961 21.09C77.3446 26.2193 79.5667 31.5233 84.4857 34.9618C87.1784 36.8436 90.3459 37.9451 94.1681 38.3231C98.2072 38.7254 102.897 38.3109 108.499 37.055C109.973 36.7258 110.897 35.2707 110.566 33.8075C110.235 32.3443 108.769 31.4258 107.296 31.755C104.19 32.45 95.1953 34.4619 89.0323 31.3486C89.5356 31.0153 90.0267 30.6861 90.5178 30.3568C92.7194 28.8774 94.7983 27.4792 96.8772 26.5282C96.91 26.5119 96.9427 26.4957 96.9754 26.4794C104.378 22.728 113.476 25.6584 117.253 33.0109C119.721 37.8191 119.348 43.4808 116.533 47.8744C115.059 45.7406 112.895 44.0539 110.23 43.1963C109.911 43.0947 109.588 43.0053 109.269 42.928C108.937 42.7939 108.594 42.6679 108.254 42.5582C101.334 40.3268 93.9185 43.6393 90.8983 50.0163C87.8291 49.5936 84.6289 48.6873 81.531 47.3664C79.1821 46.3624 76.9927 45.1594 75.0038 43.7937C75.0325 40.7698 73.817 37.5264 71.4148 34.3481C68.2269 30.1252 63.2302 26.4103 57.3373 23.8944C52.8153 21.9598 48.1419 20.8909 43.8245 20.7689C43.8818 19.4236 44.1232 18.0905 44.5529 16.7817C47.1188 8.92932 55.6349 4.61293 63.5412 7.16131L63.5494 7.16537ZM18.8736 40.0708C20.1054 37.9004 23.7435 37.0265 28.6338 37.7215C31.0565 43.2613 36.9821 48.7117 45.0808 52.1745C46.2758 52.6867 47.483 53.1378 48.6902 53.528C53.4291 55.0562 58.1926 55.6293 62.3995 55.1497C63.4676 55.0277 64.4784 54.8408 65.4319 54.5929C68.4397 57.2388 72.1105 59.5352 76.1497 61.291C69.6552 61.7462 62.2522 61.6202 55.0088 60.8439C39.2002 59.1572 26.9723 54.7961 21.4354 48.8702C18.6609 45.5496 17.6787 42.1802 18.8736 40.0708ZM23.7435 57.5233C24.7993 58.1533 25.9247 58.7548 27.1238 59.3279C26.4894 60.4944 26.0025 61.8112 25.6914 63.2297C24.9998 63.0387 24.3123 62.8639 23.6248 62.7013C23.6044 62.6973 23.5839 62.6932 23.5634 62.6891C23.5266 62.681 23.4939 62.6729 23.457 62.6648C23.5143 61.2463 23.6125 59.3767 23.7394 57.5233H23.7435ZM87.1211 115.612C77.9093 121.611 65.6979 124.789 52.7334 124.562C39.769 124.33 27.6803 120.721 18.6895 114.401C10.0179 108.3 5.31991 100.415 5.46724 92.1967C5.55317 87.3844 7.26376 82.7795 10.554 78.52C13.6191 74.5491 18.0224 71.0049 23.3261 68.2248C24.1977 68.4484 25.0776 68.7004 25.9534 68.9849C27.9136 69.6149 29.7797 70.3668 31.5189 71.2122C31.3634 78.0282 35.6849 84.4418 42.5436 86.6528C48.06 88.429 54.1248 87.0877 58.3645 83.1534C59.4694 82.1292 59.5267 80.4099 58.4954 79.3166C57.4642 78.2192 55.7331 78.1623 54.6323 79.1865C51.8413 81.7756 47.8595 82.6575 44.2337 81.487C38.7377 79.7149 35.7135 73.8337 37.4978 68.3712C37.8456 67.3022 38.3612 66.3065 39.0242 65.4082C39.413 64.8839 39.5848 64.2661 39.5521 63.6605C44.1191 64.8026 49.1527 65.6805 54.4236 66.2455C54.7919 66.2861 55.1602 66.3227 55.5285 66.3593C55.5285 66.3796 55.5244 66.3999 55.5203 66.4203C55.4098 67.9932 55.3771 69.5864 55.418 71.139C53.3023 70.8301 51.252 70.6919 49.3164 70.7448C47.8063 70.7854 46.6154 72.0291 46.6523 73.5289C46.6932 75.0287 47.9454 76.2114 49.4555 76.1748C52.9913 76.0854 57.2268 76.7723 61.3805 78.1095C64.4334 79.0931 67.2857 80.3815 69.6715 81.8121C69.6879 81.8203 69.7043 81.8325 69.7165 81.8406C72.4052 83.4542 74.5005 85.2506 75.6299 86.9902C75.7732 87.2137 75.945 87.4048 76.1374 87.5714C75.6749 87.5145 75.1961 87.5714 74.7337 87.7624C73.5347 88.2623 72.2824 88.7054 70.9852 89.0874C70.756 89.0752 70.5186 89.0915 70.2854 89.1443C62.2726 90.8432 54.8001 91.0952 48.0682 89.884C47.9618 89.8637 47.8554 89.8434 47.749 89.8231C43.7917 89.0061 40.0432 87.734 36.6957 86.0513C31.9772 83.6818 28.2328 80.605 25.8715 77.1625C25.0203 75.9228 23.322 75.6017 22.0738 76.4471C20.8257 77.2925 20.5024 78.9793 21.3536 80.2189C22.4135 81.7634 23.678 83.2265 25.1185 84.5963C25.1635 84.7507 25.2249 84.9011 25.2986 85.0474C26.3462 87.0877 26.5304 89.4085 25.8183 91.587C25.3886 92.8998 24.6684 94.0419 23.7476 94.9605C23.5798 95.0743 23.4243 95.2043 23.2811 95.3588C23.2401 95.4035 23.2033 95.4441 23.1665 95.4888C22.1557 96.3342 20.9607 96.9398 19.6798 97.2569C19.6635 97.2609 19.643 97.265 19.6266 97.2691C19.5121 97.2975 19.3975 97.3219 19.2788 97.3463C19.242 97.3544 19.201 97.3625 19.1642 97.3666C19.0905 97.3788 19.0169 97.391 18.9391 97.4032C18.8859 97.4113 18.8327 97.4194 18.7795 97.4276C18.6854 97.4398 18.5954 97.452 18.5012 97.4601C18.4317 97.4682 18.3621 97.4723 18.2925 97.4804C18.2557 97.4804 18.2189 97.4845 18.178 97.4885C18.0429 97.4967 17.9038 97.5048 17.7687 97.5048C17.7483 97.5048 17.7237 97.5048 17.7032 97.5048C17.6255 97.5048 17.5436 97.5048 17.4659 97.5048C17.4372 97.5048 17.4127 97.5048 17.384 97.5048C17.2531 97.5048 17.1221 97.4967 16.9912 97.4845C16.9503 97.4845 16.9093 97.4804 16.8684 97.4763C16.7988 97.4723 16.7293 97.4641 16.6597 97.456C16.5656 97.4438 16.4674 97.4357 16.3732 97.4194C16.32 97.4113 16.2668 97.4032 16.2136 97.3951C16.1359 97.3829 16.0622 97.3707 15.9845 97.3544C15.9436 97.3463 15.8985 97.3381 15.8576 97.33C15.743 97.3056 15.6284 97.2812 15.5139 97.2528C15.4811 97.2447 15.4484 97.2365 15.4156 97.2284C15.2929 97.1959 15.1701 97.1634 15.0473 97.1268C14.4008 96.8911 13.6682 96.8951 12.993 97.1918C11.9536 97.647 11.307 98.6916 11.3643 99.8134C11.3847 100.236 11.5075 100.638 11.7039 100.996C14.4621 106.93 20.8461 111.702 28.9776 114.323C32.7998 115.555 37.0067 116.311 41.4018 116.486C41.7456 116.498 42.0893 116.51 42.429 116.514C42.5108 116.514 42.5886 116.514 42.6704 116.514C43.3743 116.526 44.0741 116.518 44.7739 116.502C44.8107 116.502 44.8476 116.502 44.8885 116.502C50.5441 116.331 55.9254 115.185 60.5498 113.165C60.5702 113.157 60.5907 113.149 60.6111 113.136C60.738 113.08 60.8649 113.023 60.9917 112.966C61.0654 112.933 61.135 112.901 61.2045 112.868C61.3027 112.824 61.401 112.779 61.4992 112.73C61.667 112.649 61.8347 112.567 61.9984 112.486C62.0435 112.466 62.0844 112.441 62.1294 112.421C62.2931 112.34 62.4527 112.259 62.6123 112.173C62.6287 112.165 62.6491 112.153 62.6655 112.145C63.4717 111.722 64.2451 111.275 64.9817 110.804C64.9981 110.791 65.0186 110.779 65.0349 110.767C65.1945 110.665 65.35 110.56 65.5096 110.454C65.5383 110.434 65.571 110.413 65.5997 110.393C65.7429 110.295 65.882 110.198 66.0212 110.1C66.1194 110.031 66.2217 109.958 66.3199 109.885C66.3445 109.869 66.369 109.848 66.3936 109.832C71.3044 106.235 74.083 101.581 74.2917 96.4968C74.3286 95.5864 74.2795 94.676 74.1485 93.7696C75.0693 93.4566 75.9696 93.1152 76.8535 92.7454C78.2449 92.1642 78.8997 90.5709 78.3104 89.189C78.1426 88.7907 77.8889 88.4574 77.5779 88.1932C78.1917 88.2705 78.8383 88.1404 79.399 87.7827C80.6676 86.9699 81.0359 85.2913 80.2174 84.0272C79.0716 82.2592 77.3528 80.5359 75.2002 78.9386C77.9012 75.5977 80.2461 71.5902 81.2773 68.4403C81.5229 67.6883 81.4165 66.912 81.0604 66.2739C84.2402 65.8919 87.1539 65.3635 89.6788 64.6888C90.6405 64.7539 91.59 64.7782 92.5189 64.7579C92.9486 65.3107 93.4192 65.8309 93.9267 66.3186C93.0509 66.7251 92.2079 67.2128 91.4099 67.79C90.1863 68.6679 89.9121 70.3668 90.8001 71.582C91.6841 72.7973 93.3947 73.0696 94.6183 72.1876C96.7135 70.6797 99.2753 70.0742 101.833 70.4806C107.108 71.3219 110.713 76.2642 109.866 81.5033C109.457 84.0394 108.078 86.2708 105.979 87.7746C105.082 88.4168 104.104 88.8964 103.077 89.2012C103.048 89.2093 103.02 89.2175 102.995 89.2256C101.641 89.6158 100.204 89.7052 98.7679 89.4776C96.0015 89.0386 93.5624 87.4291 92.0769 85.0677C91.2789 83.7956 89.5888 83.4095 88.3079 84.202C87.027 84.9946 86.6383 86.6732 87.4363 87.9453C89.3392 90.9774 92.2488 93.2128 95.6209 94.298C96.3616 94.5378 97.1228 94.7207 97.9003 94.8426C98.9602 95.0092 100.02 95.0661 101.064 95.0174C100.495 102.805 95.58 110.076 87.1089 115.595L87.1211 115.612ZM68.8408 96.2895C68.7671 98.1226 68.1451 99.9028 67.0238 101.565C61.6874 103.162 55.6635 103.727 49.5414 103.195C41.9256 102.528 34.8705 100.252 29.3418 96.7122C30.0457 95.6677 30.6145 94.5134 31.0237 93.2616C31.4084 92.0829 31.6335 90.8798 31.699 89.6727C36.3724 92.3186 41.4018 94.1517 46.7259 95.1474C48.8171 95.5783 50.9656 95.8953 53.1509 96.0822C58.5855 96.5578 63.885 96.2611 68.8203 95.2287C68.8449 95.5823 68.8531 95.9319 68.8367 96.2855L68.8408 96.2895Z" fill="#272525"/>
<path d="M53.4375 42.1724C53.3433 42.3471 53.196 42.4772 52.9955 42.5626C52.795 42.6479 52.5699 42.6479 52.3243 42.5626C51.6532 42.3268 51.1048 42.1195 50.6792 41.9407C50.2536 41.7619 49.7626 41.5343 49.206 41.2498C48.7845 41.0262 48.6331 40.7376 48.7518 40.384C48.8009 40.2459 48.8663 40.067 48.9523 39.8435C49.0382 39.6199 49.1078 39.4248 49.1692 39.2541C49.2265 39.0834 49.2387 38.9331 49.206 38.8071C49.1692 38.6811 49.0587 38.5754 48.8663 38.4941L47.966 38.1161C47.7737 38.0348 47.6182 38.0267 47.5036 38.0917C47.3849 38.1568 47.2867 38.2665 47.2049 38.4291C47.123 38.5916 47.0289 38.7786 46.9307 38.994C46.8284 39.2094 46.7465 39.3842 46.681 39.5143C46.5133 39.8475 46.1982 39.941 45.7398 39.7947C45.1464 39.5915 44.6144 39.3923 44.1356 39.1932C43.6568 38.994 43.1003 38.7339 42.4619 38.4209C42.2286 38.3031 42.0731 38.1446 41.9954 37.9413C41.9176 37.7381 41.9094 37.543 41.9708 37.3561C42.2041 36.6285 42.6501 35.4905 43.309 33.942C43.9678 32.3934 44.4139 31.3936 44.6431 30.9424C44.8722 30.4913 45.081 30.2027 45.2651 30.0808C45.4493 29.9589 45.7112 29.967 46.0467 30.1052L48.9727 31.3367C49.251 31.4546 49.4515 31.6496 49.5661 31.922C49.6807 32.1943 49.6725 32.4828 49.5457 32.7836L48.4817 35.2873C48.3589 35.5718 48.4244 35.7669 48.6699 35.8726L49.9999 36.4334C50.2495 36.5391 50.4337 36.4456 50.5565 36.1611L51.6205 33.6575C51.7473 33.3567 51.9519 33.1494 52.2302 33.0437C52.5085 32.934 52.7868 32.9381 53.0651 33.0559L55.8356 34.2183C56.1711 34.3606 56.3594 34.5394 56.4003 34.7548C56.4412 34.9743 56.3757 35.3198 56.212 35.7994C56.0443 36.279 55.635 37.291 54.9721 38.8396C54.3091 40.3881 53.8017 41.4977 53.4415 42.1724H53.4375Z" fill="#272525"/>
<path d="M103.585 81.7353C103.057 83.3041 101.907 84.0886 100.135 84.0845C99.1118 84.0845 97.8759 83.8569 96.4272 83.3976C96.0998 83.296 95.9157 83.1294 95.8707 82.9017C95.8256 82.6741 95.8829 82.3205 96.0343 81.8369C96.1858 81.3532 96.4599 81.1541 96.8446 81.2313C97.3193 81.3166 97.7081 81.2313 98.0109 80.963C98.3138 80.6988 98.5102 80.4306 98.5961 80.1664L99.7502 76.415C99.8648 76.0492 99.9466 75.8175 99.9875 75.7159C100.078 75.4598 100.2 75.2932 100.356 75.2119C100.511 75.1306 100.761 75.1469 101.101 75.2525L104.374 76.2808C104.718 76.3865 104.927 76.5206 105.009 76.6751C105.091 76.8295 105.095 77.0368 105.017 77.301C104.87 77.8172 104.685 78.4309 104.456 79.1462C104.227 79.8616 103.937 80.7232 103.576 81.7353H103.585Z" fill="#272525"/>
<path d="M63.8974 36.9659C61.4584 33.9176 57.5912 31.1782 53.0119 29.2435C52.0011 28.8168 50.9821 28.4428 49.9713 28.1217C46.4028 26.9918 42.8998 26.5366 39.8592 26.8293C38.7625 26.9349 37.7803 27.1341 36.925 27.4227C35.3004 28.1014 34.1136 29.0769 33.4916 30.2799C32.9391 31.9707 33.7085 34.2915 35.64 36.7017C38.079 39.75 41.9463 42.4894 46.5256 44.4241C51.109 46.3546 55.7783 47.2122 59.6783 46.8383C62.9317 46.5254 65.2152 45.367 65.9477 43.6559C66.6802 41.9448 65.9313 39.5061 63.8974 36.9659ZM56.4003 36.088C56.2325 36.5676 55.8192 37.5796 55.1563 39.1281C54.4933 40.6767 53.9818 41.7863 53.6176 42.4569C53.5234 42.6317 53.3761 42.7617 53.1756 42.8471C52.9751 42.9324 52.75 42.9284 52.5044 42.8471C51.8333 42.6113 51.2849 42.4 50.8593 42.2212C50.4337 42.0423 49.9427 41.8106 49.3861 41.5302C48.9646 41.3067 48.8132 41.0181 48.9359 40.6645C48.9851 40.5263 49.0546 40.3475 49.1406 40.1239C49.2265 39.9004 49.3002 39.7053 49.3575 39.5346C49.4188 39.3639 49.427 39.2135 49.3943 39.0875C49.3575 38.9615 49.247 38.8558 49.0546 38.7745L48.1543 38.3966C47.962 38.3153 47.8065 38.3071 47.6919 38.3681C47.5732 38.4331 47.475 38.5429 47.3931 38.7054C47.3113 38.868 47.2172 39.055 47.1149 39.2704C47.0126 39.4858 46.9307 39.6606 46.8652 39.7906C46.6934 40.1199 46.3823 40.2133 45.924 40.067C45.3306 39.8638 44.7986 39.6606 44.3198 39.4614C43.8451 39.2623 43.2886 39.0021 42.6502 38.6851C42.4169 38.5673 42.2614 38.4087 42.1836 38.2055C42.1059 38.0023 42.0977 37.8072 42.1591 37.6202C42.3923 36.8927 42.8425 35.7588 43.5054 34.2102C44.1684 32.6617 44.6145 31.6618 44.8477 31.2107C45.0769 30.7595 45.2856 30.471 45.4698 30.349C45.6539 30.2271 45.9158 30.2352 46.2514 30.3775L49.1774 31.6131C49.4557 31.7309 49.6521 31.926 49.7667 32.1983C49.8813 32.4707 49.8731 32.7592 49.7462 33.06L48.674 35.5596C48.5513 35.8441 48.6127 36.0392 48.8623 36.1449L50.1923 36.7058C50.4419 36.8114 50.6261 36.718 50.7488 36.4334L51.821 33.9338C51.952 33.6331 52.1525 33.4258 52.4308 33.3201C52.7091 33.2104 52.9873 33.2185 53.2656 33.3364L56.0361 34.5069C56.3717 34.6492 56.5599 34.828 56.5968 35.0475C56.6336 35.267 56.5722 35.6124 56.4044 36.092L56.4003 36.088Z" fill="#EFC360"/>
<path d="M55.2749 61.0068C62.5388 61.7424 69.9581 61.8319 76.4649 61.3441C72.4094 59.6046 68.7181 57.3204 65.6857 54.6866C64.7322 54.9386 63.7173 55.1337 62.6492 55.2597C58.4342 55.7637 53.6625 55.2109 48.9032 53.7071C47.6918 53.3251 46.4805 52.878 45.2774 52.3699C37.146 48.9396 31.1794 43.5095 28.7199 37.9698C23.8173 37.2991 20.171 38.1933 18.9515 40.3759C17.7648 42.4975 18.7674 45.8669 21.5665 49.1794C27.1484 55.089 39.4254 59.3973 55.279 61.0068H55.2749Z" fill="#0066FF"/>
<path d="M79.6406 52.3781C77.529 51.488 75.5278 50.4556 73.6495 49.3013C72.9947 50.3499 72.1517 51.2766 71.1409 52.0733C73.4162 53.7681 76.0394 55.2516 78.8712 56.4465C82.4193 57.9422 86.0574 58.8771 89.4744 59.1941C89.7118 59.1209 89.945 59.0478 90.1742 58.9746C89.9123 57.7797 89.8059 56.54 89.8673 55.2882C87.772 54.9752 85.6399 54.4753 83.5201 53.8047C82.2188 53.3942 80.9215 52.9146 79.6406 52.3781Z" fill="#EFC360"/>
<path d="M57.4152 23.9679C68.2271 28.5282 75.2127 36.6285 75.2127 43.8144C77.2138 45.176 79.4196 46.3709 81.7808 47.3667C84.891 48.6795 88.1034 49.5655 91.1809 49.976C94.1723 43.5705 101.588 40.2133 108.532 42.4122C108.876 42.5219 109.22 42.6438 109.551 42.778C109.875 42.8511 110.198 42.9405 110.517 43.0421C113.189 43.8875 115.371 45.5661 116.856 47.6999C119.655 43.286 120.003 37.608 117.503 32.7999C113.68 25.4474 104.546 22.5576 97.1434 26.3578C97.1106 26.374 97.0779 26.3903 97.0451 26.4066C94.9663 27.3698 92.8914 28.7802 90.6898 30.2759C90.2028 30.6051 89.7076 30.9424 89.2084 31.2757C95.4 34.3647 104.403 32.304 107.513 31.5887C108.987 31.2513 110.46 32.1617 110.799 33.629C111.139 35.0922 110.222 36.5554 108.745 36.8927C103.139 38.1771 98.4406 38.6201 94.3892 38.238C90.5547 37.8763 87.375 36.7911 84.67 34.9174C79.7224 31.4952 77.4675 26.1911 75.2863 21.0619C72.6018 14.7499 70.2855 9.2995 63.5414 7.16569C55.6023 4.65389 47.0903 9.02312 44.5612 16.9081C44.1397 18.2209 43.9024 19.558 43.8533 20.9074C48.1788 21.009 52.8686 22.0576 57.4111 23.9679H57.4152Z" fill="#0066FF"/>
<path d="M61.2865 66.9205C61.2865 66.9205 61.2865 66.9327 61.2865 66.9368C61.1638 68.7942 61.1638 70.6719 61.2743 72.4562C61.9863 72.6472 62.6984 72.8545 63.4146 73.0821C64.3476 73.3788 65.2602 73.6959 66.1523 74.0373C66.4633 71.3507 67.4046 68.9486 68.7632 67.0993C66.316 67.1115 63.8156 67.0546 61.2865 66.9246V66.9205Z" fill="white"/>
<path d="M113.257 56.6807C114.392 53.1434 112.425 49.3617 108.864 48.2341C105.302 47.1066 101.494 49.0601 100.359 52.5975C99.2238 56.1349 101.191 59.9165 104.752 61.0441C108.314 62.1717 112.122 60.2181 113.257 56.6807Z" fill="#EFC360"/>
<path d="M50.0164 103.476C56.1548 103.98 62.1869 103.382 67.5274 101.752C68.6405 100.082 69.2543 98.2936 69.3198 96.4565C69.3321 96.1029 69.3198 95.7534 69.2952 95.3998C64.3558 96.4565 59.044 96.7817 53.5971 96.3346C51.4037 96.1557 49.2511 95.8468 47.1517 95.4282C41.8113 94.4528 36.7614 92.6441 32.0634 90.0185C32.002 91.2256 31.7851 92.4327 31.4045 93.6196C30.9994 94.8755 30.4346 96.0379 29.7349 97.0865C35.2922 100.606 42.376 102.854 50.0123 103.48L50.0164 103.476Z" fill="white"/>
<path d="M23.9197 57.8366C23.7969 59.694 23.7151 61.5717 23.6619 62.9902C23.6987 62.9983 23.7314 63.0065 23.7683 63.0146C23.7887 63.0187 23.8092 63.0227 23.8296 63.0268C24.5172 63.1812 25.2088 63.356 25.9045 63.543C26.2073 62.1204 26.6902 60.7995 27.3204 59.6249C26.1173 59.0559 24.9837 58.4584 23.9238 57.8325L23.9197 57.8366Z" fill="white"/>
<path d="M110.366 81.4385C111.184 76.1833 107.546 71.245 102.255 70.4321C99.6928 70.0379 97.1269 70.6597 95.0357 72.1798C93.8162 73.0659 92.0974 72.8057 91.2053 71.5905C90.3132 70.3793 90.5751 68.6763 91.7987 67.7862C92.5967 67.205 93.4397 66.7091 94.3155 66.3027C93.8039 65.819 93.3292 65.2988 92.8954 64.746C91.9665 64.7704 91.013 64.7542 90.0513 64.6932C87.5263 65.3801 84.6085 65.9288 81.4247 66.3271C81.7889 66.9652 81.8953 67.7415 81.6539 68.4975C80.639 71.6596 78.3063 75.6874 75.6177 79.0487C77.7825 80.6378 79.5136 82.3571 80.6717 84.1251C81.4984 85.3851 81.1382 87.0718 79.8737 87.8928C79.313 88.2545 78.6665 88.3887 78.0485 88.3155C78.3595 88.5797 78.6133 88.913 78.7851 89.3113C79.3785 90.6932 78.736 92.2945 77.3406 92.8839C76.4566 93.2578 75.5563 93.6033 74.6355 93.9244C74.7747 94.8307 74.8279 95.7412 74.7951 96.6556C74.6151 101.752 71.8528 106.426 66.9543 110.056C66.9297 110.076 66.9011 110.093 66.8765 110.113C66.7783 110.186 66.6801 110.255 66.5819 110.328C66.4427 110.43 66.3036 110.527 66.1604 110.625C66.1317 110.645 66.1031 110.666 66.0744 110.686C65.9189 110.792 65.7593 110.897 65.5997 111.003C65.5833 111.015 65.5629 111.027 65.5465 111.04C64.814 111.515 64.0405 111.97 63.2344 112.397C63.2139 112.409 63.1934 112.417 63.1771 112.43C63.0216 112.511 62.862 112.596 62.7024 112.673C62.6573 112.698 62.6123 112.718 62.5673 112.743C62.4077 112.824 62.2481 112.901 62.0844 112.978C61.978 113.031 61.8675 113.08 61.7611 113.129C61.6956 113.161 61.6302 113.19 61.5606 113.222C61.4296 113.283 61.3028 113.34 61.1718 113.397C61.1555 113.405 61.1391 113.409 61.1227 113.417C56.4984 115.466 51.1088 116.644 45.4369 116.844C45.4001 116.844 45.3632 116.844 45.3264 116.844C44.6266 116.868 43.9268 116.876 43.2189 116.868C43.137 116.868 43.0593 116.868 42.9774 116.868C42.6337 116.864 42.2899 116.856 41.9461 116.844C41.1195 116.815 40.301 116.766 39.4867 116.697C35.9673 116.396 32.5952 115.726 29.481 114.742C22.0821 112.401 16.1155 108.28 12.9808 103.114C12.6575 102.577 12.3628 102.033 12.1009 101.476C11.9004 101.122 11.7776 100.716 11.7531 100.293C11.6876 99.1674 12.3342 98.1188 13.3695 97.6555C14.0448 97.3547 14.7814 97.3466 15.428 97.5783C15.5507 97.6148 15.6735 97.6474 15.7963 97.6799C15.829 97.688 15.8618 97.6961 15.8945 97.7043C16.0091 97.7327 16.1237 97.7571 16.2382 97.7815C16.2792 97.7896 16.3242 97.7977 16.3651 97.8059C16.4429 97.8181 16.5165 97.8343 16.5943 97.8465C16.6475 97.8546 16.7007 97.8628 16.7539 97.8709C16.848 97.8831 16.9462 97.8953 17.0403 97.9034C17.1099 97.9115 17.1795 97.9156 17.249 97.9237C17.29 97.9237 17.3309 97.9319 17.3718 97.9319C17.5028 97.94 17.6337 97.9441 17.7647 97.9481C17.7933 97.9481 17.8179 97.9481 17.8465 97.9481C17.9243 97.9481 18.0061 97.9481 18.0839 97.9481C18.1043 97.9481 18.1289 97.9481 18.1494 97.9481C18.2885 97.9481 18.4235 97.9359 18.5627 97.9278C18.5995 97.9278 18.6363 97.9237 18.6773 97.9197C18.7468 97.9156 18.8164 97.9075 18.886 97.8993C18.9801 97.8872 19.0701 97.879 19.1642 97.8628C19.2174 97.8546 19.2706 97.8465 19.3238 97.8384C19.3975 97.8262 19.4753 97.814 19.5489 97.7977C19.5858 97.7896 19.6267 97.7855 19.6635 97.7774C19.7781 97.753 19.8968 97.7286 20.0114 97.7002C20.0277 97.6961 20.0482 97.6921 20.0646 97.688C21.3454 97.3628 22.5404 96.7491 23.5512 95.8956C23.588 95.8509 23.6249 95.8062 23.6658 95.7615C23.809 95.607 23.9645 95.4729 24.1282 95.3591C25.0449 94.4324 25.7611 93.2863 26.1826 91.9653C26.8823 89.7787 26.6859 87.4498 25.626 85.4135C25.5483 85.2672 25.4869 85.1168 25.4419 84.9624C23.9932 83.5967 22.7164 82.1376 21.6442 80.5931C20.7848 79.3535 21.0999 77.6586 22.3481 76.8092C23.5962 75.9557 25.3027 76.2686 26.158 77.5083C28.5438 80.9467 32.3128 84.0072 37.0517 86.3605C40.4156 88.0269 44.1806 89.2869 48.1501 90.0835C48.2565 90.1038 48.3629 90.1242 48.4693 90.1404C55.2216 91.3191 62.7105 91.0305 70.7315 89.2869C70.9688 89.234 71.2021 89.2178 71.4354 89.2259C72.7326 88.8357 73.989 88.3846 75.188 87.8765C75.6463 87.6814 76.1292 87.6245 76.5917 87.6774C76.3993 87.5148 76.2234 87.3197 76.0801 87.1002C74.9384 85.3607 72.8308 83.5723 70.1258 81.971C70.1094 81.9628 70.0931 81.9506 70.0808 81.9425C67.6786 80.524 64.8181 79.2478 61.7529 78.2764C57.587 76.9555 53.3391 76.293 49.7952 76.3987C48.281 76.4434 47.0165 75.2647 46.9715 73.7609C46.9224 72.257 48.1133 71.0011 49.6274 70.9564C51.5631 70.8955 53.6215 71.0215 55.7454 71.3222C55.6963 69.7656 55.7209 68.1723 55.8232 66.5953C55.8232 66.575 55.8273 66.5547 55.8314 66.5344C55.4631 66.5019 55.0907 66.4653 54.7224 66.4287C49.4392 65.8922 44.3893 65.0387 39.8059 63.9169C39.8386 64.5225 39.6708 65.1403 39.2861 65.6687C38.6273 66.571 38.1157 67.5708 37.772 68.6438C36.0123 74.1267 39.0733 80.0038 44.5898 81.7515C48.2319 82.9017 52.2178 81.9994 55.0006 79.3901C56.1015 78.3577 57.8366 78.4065 58.876 79.4998C59.9155 80.5931 59.8664 82.3164 58.7656 83.3488C54.5341 87.3156 48.4652 88.6894 42.9283 86.9377C36.045 84.7591 31.6744 78.3536 31.7972 71.5214C30.0457 70.6801 28.1755 69.9403 26.2071 69.3144C25.3273 69.034 24.4433 68.7861 23.5676 68.5666C18.2639 71.3791 13.8688 74.9517 10.82 78.9471C7.54617 83.235 5.85605 87.8562 5.79057 92.6807C5.68417 100.919 10.4313 108.796 19.1561 114.868C28.2001 121.16 40.3338 124.712 53.3269 124.879C66.32 125.041 78.5396 121.794 87.7432 115.734C96.2061 110.158 101.092 102.846 101.62 95.038C100.573 95.0949 99.5086 95.0421 98.4487 94.8795C97.6671 94.7576 96.9018 94.5787 96.1611 94.3471C92.7768 93.2741 89.8508 91.0508 87.9274 88.0229C87.1212 86.7507 87.5018 85.0721 88.7827 84.2673C90.0636 83.4667 91.7537 83.8447 92.564 85.1168C94.0658 87.4782 96.5171 89.0755 99.2917 89.5023C100.732 89.7218 102.169 89.6242 103.527 89.2259C103.556 89.2178 103.58 89.2056 103.609 89.2015C104.636 88.8886 105.618 88.4049 106.511 87.7546C108.602 86.2345 109.977 83.995 110.374 81.4467L110.366 81.4385ZM103.687 82.1173C103.155 83.6861 102.005 84.4665 100.233 84.4584C99.2099 84.4584 97.974 84.2267 96.5253 83.7674C96.1979 83.6658 96.0138 83.4992 95.9729 83.2716C95.9278 83.044 95.9851 82.6904 96.1406 82.2067C96.2962 81.723 96.5662 81.5239 96.955 81.6011C97.4297 81.6905 97.8185 81.6011 98.1213 81.3369C98.4242 81.0727 98.6206 80.8085 98.7065 80.5403L99.8687 76.7929C99.9874 76.4312 100.065 76.1954 100.106 76.0938C100.196 75.8378 100.319 75.6711 100.474 75.5899C100.63 75.5086 100.88 75.5248 101.219 75.6305L104.493 76.6669C104.837 76.7767 105.046 76.9067 105.127 77.0612C105.209 77.2156 105.209 77.4229 105.136 77.6871C104.988 78.2033 104.8 78.817 104.571 79.5323C104.342 80.2477 104.047 81.1093 103.687 82.1173Z" fill="#E8BC80"/>
</svg>
