<svg width="906" height="410" viewBox="0 0 906 410" fill="none" xmlns="http://www.w3.org/2000/svg">
<g clip-path="url(#clip0_69_56)" filter="url(#filter0_d_69_56)">
<path d="M113.09 89.0631L112.958 115.99C112.958 119.941 113.561 122.878 114.772 124.808C115.979 126.738 118.507 127.704 122.36 127.704H156.333C160.451 127.797 162.511 130.936 162.511 137.128C162.511 141.887 161.926 145.341 160.767 147.495C159.604 149.65 157.231 150.772 153.65 150.86C141.028 151.218 128.539 151.399 116.185 151.399C103.832 151.399 88.0745 151.307 68.9207 151.13C65.6971 151.13 63.0807 150.344 61.0641 148.772C59.0512 147.204 57.9104 145.027 57.6418 142.241C56.9242 134.434 56.5673 122.115 56.5673 105.286C56.5673 88.458 56.7697 77.1051 57.1708 71.2239C57.5719 65.3464 58.3998 61.4428 59.6547 59.5095C60.9059 57.5798 63.3677 56.6168 67.0402 56.6168H103.026C106.787 56.6168 109.271 57.6056 110.478 59.5796C111.685 61.5535 112.424 64.7413 112.693 69.1393C112.962 73.5373 113.094 80.1786 113.094 89.0631H113.09Z" fill="white"/>
<path d="M237.162 153.55C226.328 153.55 216.528 152.137 207.756 149.311C198.983 146.484 191.866 142.691 186.405 137.936C180.944 133.18 176.782 127.863 173.915 121.982C171.049 116.104 169.617 109.979 169.617 103.604C169.617 97.2282 171.071 91.1072 173.982 85.226C176.889 79.3484 181.051 74.0317 186.471 69.2722C191.888 64.5163 198.979 60.7012 207.756 57.827C216.528 54.9565 226.151 53.5176 236.624 53.5176C247.097 53.5176 256.363 54.82 264.419 57.4212C272.474 60.026 278.965 63.5717 283.889 68.0583C293.913 77.2122 298.929 88.0743 298.929 100.637C298.929 107.013 297.563 113.248 294.833 119.351C292.102 125.457 288.205 130.995 283.149 135.976C278.089 140.957 271.58 145.042 263.613 148.23C255.646 151.414 246.829 153.188 237.162 153.546V153.55ZM263.749 101.246C263.749 96.9847 262.225 93.2582 259.182 90.0704C256.139 86.8863 251.506 85.2924 245.283 85.2924C239.06 85.2924 234.115 86.9527 230.446 90.2733C226.773 93.594 224.941 97.6341 224.941 102.39C224.941 107.146 226.865 110.961 230.714 113.835C234.564 116.709 239.197 118.145 244.613 118.145C250.03 118.145 254.571 116.396 258.244 112.894C261.913 109.393 263.749 105.511 263.749 101.25V101.246Z" fill="white"/>
<path d="M409.439 63.7525L428.104 64.0219C430.878 64.0219 433.027 64.5605 434.551 65.6379C436.071 66.7153 437.189 68.5121 437.907 71.0247L446.098 98.2207C446.275 98.9402 446.588 99.4309 447.037 99.7003C447.482 99.9696 447.931 99.9696 448.38 99.7003C448.825 99.4309 449.138 98.9845 449.318 98.3536L460.597 61.7343C461.134 59.9412 461.962 58.683 463.081 57.9635C464.2 57.2478 465.97 56.8862 468.384 56.8862H483.556C485.256 56.8862 486.463 57.6942 487.181 59.3102C487.538 60.0297 487.718 60.8377 487.718 61.7343C487.718 62.6309 486.89 65.1693 485.234 69.3423C483.578 73.5152 479.883 84.4438 474.158 102.124C468.428 119.809 463.46 133.224 459.254 142.378C455.673 149.916 448.733 153.686 438.44 153.686C432.888 153.686 427.651 152.406 422.731 149.849C417.807 147.292 414.518 144.105 412.862 140.29C411.206 136.474 409.012 130.888 406.282 123.528C403.551 116.171 401.649 111.053 400.574 108.179C395.919 122.9 391.757 134.253 388.085 142.241C386.385 145.831 383.272 148.617 378.753 150.587C374.23 152.561 369.24 153.55 363.779 153.55C350.708 153.55 342.027 148.702 337.729 139.009C324.033 107.773 314.723 84.8423 309.799 70.213C309.081 67.8812 308.724 65.9036 308.724 64.2875C308.724 59.2623 311.094 56.7497 315.841 56.7497L354.245 56.3475C357.557 56.3475 360.018 56.9305 361.63 58.0964C363.242 59.2623 364.537 61.5092 365.523 64.8262L374.922 97.944C375.099 98.752 375.411 99.2907 375.86 99.5601C376.843 100.099 377.605 99.6043 378.142 98.0805L387.139 70.6152C388.482 66.3057 391.257 64.1104 395.463 64.0182C401.012 63.8374 405.667 63.7488 409.428 63.7488L409.439 63.7525Z" fill="white"/>
<path d="M506.993 148.366C505.249 146.706 504.127 143.968 503.637 140.153C503.144 136.338 502.897 124.897 502.897 105.821C502.897 86.7461 503.21 74.2974 503.836 68.4605C504.55 60.9226 507.729 57.0633 513.37 56.8825C519.818 56.7054 546.537 56.6132 593.533 56.6132C598.814 56.6132 601.456 59.9781 601.456 66.7116C601.456 72.0098 599.127 74.6553 594.475 74.6553H564.933C563.053 74.6553 561.551 75.2862 560.436 76.5407C559.318 77.7988 558.758 79.4149 558.758 81.3888V91.0814C558.758 93.7748 559.965 95.1215 562.383 95.1215H586.821C588.253 95.1215 589.349 95.258 590.111 95.5236C590.869 95.793 591.564 96.5789 592.194 97.8813C592.819 99.1837 593.132 101.316 593.132 104.275C593.132 107.234 592.617 109.212 591.587 110.201C590.556 111.19 588.878 111.68 586.552 111.68H564.664C562.427 111.68 560.882 112.241 560.031 113.363C559.181 114.484 558.755 116.211 558.755 118.547V125.144C558.755 129.003 560.587 130.933 564.26 130.933H597.695C599.307 130.933 600.738 131.405 601.993 132.346C603.244 133.287 603.874 135.353 603.874 138.541C603.874 141.728 603.112 144.577 601.592 147.089C600.069 149.602 598.28 150.86 596.219 150.86H513.37C510.864 150.86 508.737 150.03 506.993 148.37V148.366Z" fill="white"/>
<path d="M636.838 150.993C630.17 149.288 625.467 147.584 622.741 145.876C620.01 144.171 618.196 142.961 617.302 142.241C614.972 140.356 613.81 137.755 613.81 134.434C613.81 131.833 614.122 129.365 614.748 127.029C615.911 122.631 618.016 120.432 621.059 120.432C622.041 120.524 625.199 121.554 630.527 123.528C635.852 125.502 640.04 126.49 643.083 126.49C647.65 126.49 649.931 124.697 649.931 121.104C649.931 118.949 648.813 116.953 646.575 115.112C644.338 113.274 641.63 111.5 638.45 109.795C635.271 108.09 632.073 106.139 628.849 103.94C625.626 101.741 622.895 98.6893 620.658 94.7857C618.42 90.8821 617.302 86.3255 617.302 81.1194C617.302 72.5042 621.508 65.7486 629.924 60.8562C638.336 55.9638 649.214 53.5176 662.553 53.5176C675.893 53.5176 686.476 54.8864 694.311 57.6241C702.142 60.3618 706.061 64.1547 706.061 68.9991C706.061 72.5005 705.255 75.574 703.643 78.2231C702.031 80.8722 700.331 82.1931 698.539 82.1931C697.913 82.1931 695.831 81.4995 692.294 80.1048C688.758 78.7138 685.556 78.0165 682.693 78.0165C677.052 78.0165 674.233 80.2155 674.233 84.6135C674.233 86.7682 675.577 88.7422 678.263 90.539C680.949 92.3358 684.191 94.0626 688 95.7229C691.805 97.3832 695.632 99.2464 699.481 101.309C703.33 103.375 706.598 106.201 709.284 109.791C711.971 113.381 713.314 117.735 713.314 122.849C713.314 127.963 711.68 132.634 708.412 136.851C705.144 141.072 700.824 144.344 695.455 146.68C684.802 151.259 672.449 153.546 658.395 153.546C650.697 153.546 643.51 152.694 636.842 150.989L636.838 150.993Z" fill="white"/>
<path d="M801.797 142.643C801.705 144.617 800.858 146.436 799.247 148.097C797.635 149.757 795.486 150.679 792.799 150.857C787.695 151.214 781.565 151.395 774.404 151.395C767.243 151.395 760.663 151.214 754.665 150.857C751.978 150.679 749.829 149.757 748.221 148.097C746.609 146.436 745.759 144.621 745.671 142.643C745.402 129.003 745.27 117.355 745.27 107.707C745.27 98.0584 745.314 90.9928 745.402 86.5026C745.402 83.0934 743.879 81.3851 740.836 81.3851H728.751C726.87 81.3851 725.347 80.9387 724.184 80.0384C723.021 79.1418 722.37 77.5701 722.237 75.3268C722.101 73.0835 722.035 70.748 722.035 68.3276C722.035 65.9072 722.101 63.8189 722.237 62.0664C722.37 60.3175 723.087 58.9708 724.386 58.0263C725.682 57.0854 727.091 56.6132 728.615 56.6132C740.25 56.4324 756.008 56.3438 775.879 56.3438C795.751 56.3438 809.984 56.436 818.581 56.6132C820.1 56.7054 821.514 57.1961 822.809 58.0927C824.104 58.9892 824.822 60.3138 824.958 62.0627C825.094 63.8116 825.16 65.8556 825.16 68.1874C825.16 70.5192 825.112 72.7662 825.024 74.9172C824.756 78.9573 822.562 80.9756 818.444 80.9756H806.36C803.316 80.9756 801.793 82.5473 801.793 85.6872C802.062 96.9958 802.194 107.227 802.194 116.385C802.194 125.542 802.062 134.29 801.793 142.636L801.797 142.643Z" fill="white"/>
<path d="M56.6961 251.634L56.5636 178.528C57.2775 171.079 60.4569 167.176 66.0982 166.814C70.1277 166.725 96.9357 166.677 146.53 166.677C151.902 166.677 154.585 170.673 154.585 178.661C154.585 182.701 152.211 184.72 147.468 184.72H118.194C116.314 184.72 114.813 185.351 113.698 186.605C112.579 187.863 112.02 189.523 112.02 191.586V201.146C112.02 203.928 113.182 205.319 115.512 205.319H137.801C139.95 205.319 141.562 205.813 142.636 206.798C143.711 207.787 144.248 210.052 144.248 213.598C144.248 217.144 143.733 219.409 142.702 220.398C141.672 221.387 139.994 221.878 137.668 221.878H117.661C115.423 221.878 113.878 222.416 113.028 223.494C112.178 224.571 111.751 226.276 111.751 228.611V251.767C111.751 254.911 111.081 257.242 109.738 258.766C108.395 260.294 106.651 261.054 104.502 261.054H66.3668C63.8608 261.054 61.7118 260.224 59.9233 258.563C58.1312 256.903 57.0567 254.593 56.6998 251.63L56.6961 251.634Z" fill="white"/>
<path d="M252.47 173.142L296.378 247.594C298.167 250.557 299.065 253.047 299.065 255.065C299.065 257.084 298.259 258.589 296.647 259.574C295.035 260.563 293.155 261.054 291.006 261.054H247.767C243.381 261.054 240.562 260.246 239.307 258.63C238.946 258.091 238.457 257.15 237.831 255.803L233.938 247.458C232.775 244.856 230.045 243.373 225.747 243.015H200.366C198.486 243.015 197.054 243.196 196.068 243.554C195.082 243.912 194.276 244.72 193.651 245.978L188.414 256.884C187.52 258.5 186.534 259.6 185.459 260.183C184.385 260.766 182.817 261.057 180.76 261.057H168.675C165.183 261.057 163.302 259.803 163.034 257.287C162.942 256.929 162.901 256.571 162.901 256.209C162.901 254.147 163.571 252.169 164.914 250.287L206.942 175.972C210.972 168.972 217.504 165.471 226.545 165.471H237.287C244.448 165.471 249.508 168.028 252.459 173.145L252.47 173.142ZM208.963 207.606L202.784 219.859C202.423 220.667 202.247 221.387 202.247 222.014C202.247 224.35 203.365 225.515 205.603 225.515H217.824C219.704 225.515 220.999 225.043 221.717 224.102C222.431 223.162 222.792 222.331 222.792 221.612C222.792 220.892 222.659 220.177 222.39 219.457L217.286 207.879C216.212 205.547 214.825 204.378 213.124 204.378C211.424 204.378 210.037 205.455 208.963 207.61V207.606Z" fill="white"/>
<path d="M402.326 235.208C404.026 237.005 410.069 243.779 420.453 255.538C421.079 256.346 421.392 257.065 421.392 257.692C421.392 260.028 420.361 261.194 418.304 261.194C413.557 261.282 408.792 261.327 404.004 261.327C399.217 261.327 394.447 261.282 389.704 261.194C387.106 261.194 384.736 260.164 382.587 258.098L371.04 240.595C370.591 240.056 370.053 239.698 369.428 239.517C367.996 238.979 367.279 239.565 367.279 241.266V254.999C367.279 258.858 364.747 260.921 359.691 261.194C354.631 261.463 349.104 261.596 343.109 261.596C337.115 261.596 329.862 261.371 321.358 260.921C318.76 260.744 316.68 259.843 315.113 258.227C313.545 256.611 312.629 254.774 312.36 252.708C311.643 244.812 311.286 232.4 311.286 215.483C311.286 198.567 311.554 186.247 312.092 178.528C312.629 170.81 316.522 166.906 323.775 166.814C330.576 166.725 339.842 166.677 351.569 166.677C363.297 166.677 373.008 166.77 380.707 166.947C391.805 167.128 400.891 171.256 407.964 179.333C415.033 187.409 418.573 196.523 418.573 206.662C418.573 212.587 417.208 218.063 414.477 223.088C411.747 228.117 407.695 232.153 402.326 235.204V235.208ZM367.146 194.955L367.415 219.863C367.415 221.568 368.353 222.42 370.234 222.42C375.783 222.42 380.147 220.87 383.327 217.775C386.503 214.679 388.092 211.023 388.092 206.802C388.092 202.581 386.591 198.95 383.596 195.895C380.596 192.844 376.188 191.317 370.37 191.317C368.221 191.317 367.146 192.527 367.146 194.951V194.955Z" fill="white"/>
<path d="M438.242 258.567C436.498 256.907 435.375 254.169 434.886 250.354C434.393 246.539 434.146 235.097 434.146 216.022C434.146 196.947 434.459 184.498 435.085 178.661C435.798 171.123 438.978 167.264 444.619 167.083C451.066 166.906 477.786 166.814 524.782 166.814C530.063 166.814 532.705 170.179 532.705 176.912C532.705 182.211 530.375 184.856 525.724 184.856H496.182C494.301 184.856 492.8 185.487 491.685 186.742C490.566 188 490.007 189.616 490.007 191.59V201.282C490.007 203.976 491.214 205.322 493.632 205.322H518.07C519.501 205.322 520.598 205.459 521.36 205.725C522.118 205.994 522.813 206.78 523.442 208.082C524.068 209.385 524.381 211.517 524.381 214.476C524.381 217.435 523.866 219.413 522.835 220.402C521.805 221.391 520.127 221.881 517.801 221.881H495.913C493.676 221.881 492.13 222.442 491.28 223.564C490.43 224.685 490.003 226.412 490.003 228.748V235.345C490.003 239.204 491.836 241.134 495.508 241.134H528.944C530.556 241.134 531.987 241.606 533.242 242.547C534.493 243.488 535.122 245.554 535.122 248.742C535.122 251.929 534.361 254.778 532.841 257.29C531.317 259.803 529.529 261.061 527.468 261.061H444.619C442.113 261.061 439.986 260.231 438.242 258.571V258.567Z" fill="white"/>
<path d="M568.091 261.194C561.423 259.489 556.72 257.785 553.993 256.076C551.262 254.372 549.448 253.162 548.554 252.442C546.225 250.557 545.062 247.956 545.062 244.635C545.062 242.034 545.375 239.565 546 237.23C547.163 232.832 549.268 230.633 552.311 230.633C553.294 230.725 556.451 231.755 561.78 233.729C567.104 235.702 571.292 236.691 574.335 236.691C578.902 236.691 581.184 234.898 581.184 231.304C581.184 229.15 580.065 227.154 577.828 225.313C575.59 223.475 572.882 221.7 569.702 219.996C566.523 218.291 563.325 216.339 560.101 214.14C556.878 211.941 554.147 208.89 551.91 204.987C549.673 201.083 548.554 196.526 548.554 191.32C548.554 182.705 552.76 175.949 561.176 171.057C569.588 166.165 580.466 163.718 593.806 163.718C607.145 163.718 617.729 165.087 625.563 167.825C633.394 170.563 637.313 174.356 637.313 179.2C637.313 182.701 636.507 185.775 634.895 188.424C633.283 191.073 631.583 192.394 629.791 192.394C629.166 192.394 627.083 191.7 623.546 190.306C620.01 188.915 616.809 188.217 613.946 188.217C608.304 188.217 605.486 190.416 605.486 194.814C605.486 196.969 606.829 198.943 609.515 200.74C612.201 202.537 615.443 204.263 619.252 205.924C623.057 207.584 626.884 209.447 630.733 211.51C634.582 213.576 637.85 216.402 640.537 219.992C643.223 223.582 644.566 227.936 644.566 233.05C644.566 238.163 642.932 242.834 639.664 247.052C636.397 251.273 632.076 254.545 626.707 256.881C616.054 261.46 603.701 263.747 589.647 263.747C581.949 263.747 574.762 262.895 568.094 261.19L568.091 261.194Z" fill="white"/>
<path d="M147.6 345.409C149.301 347.206 155.343 353.98 165.728 365.739C166.353 366.547 166.666 367.266 166.666 367.893C166.666 370.229 165.636 371.395 163.579 371.395C158.831 371.483 154.066 371.528 149.278 371.528C144.491 371.528 139.722 371.483 134.978 371.395C132.38 371.395 130.011 370.365 127.861 368.299L116.314 350.796C115.865 350.257 115.328 349.899 114.702 349.718C113.271 349.18 112.553 349.766 112.553 351.467V365.2C112.553 369.059 110.021 371.122 104.965 371.395C99.9054 371.664 94.3782 371.797 88.3836 371.797C82.3891 371.797 75.136 371.572 66.6318 371.122C64.0338 370.945 61.9547 370.044 60.387 368.428C58.8194 366.812 57.9031 364.975 57.6345 362.909C56.9169 355.013 56.5599 342.601 56.5599 325.684C56.5599 308.768 56.8286 296.448 57.3658 288.729C57.9031 281.011 61.7964 277.107 69.0495 277.015C75.8499 276.926 85.1159 276.878 96.8437 276.878C108.572 276.878 118.283 276.971 125.981 277.148C137.08 277.328 146.165 281.457 153.238 289.534C160.307 297.61 163.847 306.724 163.847 316.863C163.847 322.788 162.482 328.263 159.751 333.289C157.021 338.318 152.969 342.354 147.6 345.405V345.409ZM112.421 305.155L112.689 330.064C112.689 331.768 113.628 332.621 115.508 332.621C121.057 332.621 125.422 331.071 128.601 327.976C131.777 324.88 133.367 321.224 133.367 317.003C133.367 312.782 131.865 309.151 128.87 306.096C125.871 303.045 121.462 301.517 115.644 301.517C113.495 301.517 112.421 302.728 112.421 305.152V305.155Z" fill="white"/>
<path d="M183.52 368.768C181.776 367.107 180.653 364.37 180.164 360.555C179.671 356.74 179.424 345.298 179.424 326.223C179.424 307.148 179.737 294.699 180.362 288.862C181.076 281.324 184.256 277.465 189.897 277.284C196.344 277.107 223.064 277.015 270.06 277.015C275.34 277.015 277.983 280.38 277.983 287.113C277.983 292.412 275.653 295.057 271.002 295.057H241.46C239.579 295.057 238.078 295.688 236.963 296.942C235.844 298.201 235.285 299.817 235.285 301.791V311.483C235.285 314.177 236.492 315.523 238.909 315.523H263.348C264.779 315.523 265.876 315.66 266.637 315.925C267.396 316.195 268.091 316.981 268.72 318.283C269.346 319.585 269.659 321.718 269.659 324.677C269.659 327.636 269.143 329.614 268.113 330.603C267.083 331.591 265.405 332.082 263.079 332.082H241.191C238.954 332.082 237.408 332.643 236.558 333.765C235.708 334.886 235.281 336.613 235.281 338.948V345.545C235.281 349.405 237.114 351.334 240.786 351.334H274.222C275.834 351.334 277.265 351.807 278.52 352.748C279.771 353.688 280.4 355.755 280.4 358.942C280.4 362.13 279.639 364.979 278.119 367.491C276.595 370.004 274.807 371.262 272.746 371.262H189.897C187.391 371.262 185.264 370.432 183.52 368.771V368.768Z" fill="white"/>
<path d="M340.692 373.952C324.577 373.952 311.841 369.845 302.491 361.632C293.136 353.419 288.459 341.819 288.459 326.828C288.459 317.674 289.957 309.642 292.956 302.728C295.955 295.817 300.183 290.297 305.644 286.169C316.474 278.004 330.756 273.916 348.478 273.916C359.937 273.916 371.393 275.487 382.852 278.627C387.239 280.063 389.432 283.608 389.432 289.264C389.432 296.983 387.014 300.842 382.182 300.842C381.376 300.842 378.734 300.484 374.26 299.765C369.781 299.049 366.65 298.688 364.861 298.688C358.502 298.688 353.604 300.909 350.156 305.351C346.708 309.793 344.986 315.092 344.986 321.238C344.986 327.385 346.598 332.794 349.821 337.462C353.045 342.129 357.428 344.553 362.981 344.73C366.742 344.911 373.409 344.999 382.988 344.999C387.643 344.999 390.193 347.198 390.642 351.596C390.911 353.212 391.044 354.851 391.044 356.511C391.044 358.171 390.911 359.857 390.642 361.558C390.105 364.79 387.599 367.144 383.124 368.628C378.646 370.107 372.202 371.365 363.79 372.398C355.374 373.428 347.676 373.948 340.695 373.948L340.692 373.952Z" fill="white"/>
<path d="M468.524 373.952C457.69 373.952 447.89 372.539 439.118 369.712C430.345 366.886 423.228 363.093 417.767 358.337C412.306 353.581 408.144 348.265 405.277 342.383C402.411 336.506 400.979 330.381 400.979 324.006C400.979 317.63 402.433 311.509 405.344 305.628C408.251 299.75 412.413 294.433 417.833 289.674C423.25 284.918 430.341 281.103 439.118 278.229C447.89 275.358 457.513 273.919 467.986 273.919C478.459 273.919 487.725 275.222 495.781 277.823C503.836 280.428 510.327 283.973 515.251 288.46C525.275 297.614 530.291 308.476 530.291 321.039C530.291 327.415 528.925 333.65 526.195 339.753C523.464 345.859 519.567 351.397 514.511 356.378C509.451 361.359 502.942 365.443 494.975 368.631C487.008 371.815 478.191 373.59 468.524 373.948V373.952ZM495.111 321.648C495.111 317.386 493.587 313.66 490.544 310.472C487.501 307.288 482.868 305.694 476.645 305.694C470.422 305.694 465.477 307.354 461.808 310.675C458.135 313.996 456.303 318.036 456.303 322.792C456.303 327.548 458.227 331.363 462.076 334.237C465.926 337.111 470.559 338.546 475.975 338.546C481.392 338.546 485.933 336.797 489.606 333.296C493.275 329.795 495.111 325.913 495.111 321.652V321.648Z" fill="white"/>
<path d="M634.222 345.409C635.922 347.206 641.964 353.98 652.349 365.739C652.974 366.547 653.287 367.266 653.287 367.893C653.287 370.229 652.257 371.395 650.2 371.395C645.453 371.483 640.687 371.528 635.9 371.528C631.112 371.528 626.343 371.483 621.6 371.395C619.002 371.395 616.632 370.365 614.483 368.299L602.935 350.796C602.486 350.257 601.949 349.899 601.324 349.718C599.892 349.18 599.174 349.766 599.174 351.467V365.2C599.174 369.059 596.643 371.122 591.587 371.395C586.527 371.664 581 371.797 575.005 371.797C569.01 371.797 561.757 371.572 553.253 371.122C550.655 370.945 548.576 370.044 547.008 368.428C545.441 366.812 544.524 364.975 544.256 362.909C543.538 355.013 543.181 342.601 543.181 325.684C543.181 308.768 543.45 296.448 543.987 288.729C544.524 281.011 548.418 277.107 555.671 277.015C562.471 276.926 571.737 276.878 583.465 276.878C595.193 276.878 604.904 276.971 612.602 277.148C623.701 277.328 632.787 281.457 639.859 289.534C646.928 297.61 650.468 306.724 650.468 316.863C650.468 322.788 649.103 328.263 646.373 333.289C643.642 338.318 639.591 342.354 634.222 345.405V345.409ZM599.042 305.155L599.311 330.064C599.311 331.768 600.249 332.621 602.129 332.621C607.679 332.621 612.043 331.071 615.222 327.976C618.398 324.88 619.988 321.224 619.988 317.003C619.988 312.782 618.487 309.151 615.491 306.096C612.492 303.045 608.084 301.517 602.266 301.517C600.117 301.517 599.042 302.728 599.042 305.152V305.155Z" fill="white"/>
<path d="M728.35 370.989C722.351 371.528 713.759 371.797 702.568 371.797C691.378 371.797 683.746 371.638 679.676 371.325C675.602 371.011 672.537 370.269 670.476 369.104C668.415 367.938 667.297 366.096 667.12 363.584C666.583 353.891 666.314 342.83 666.314 330.396C666.314 317.962 666.491 304.794 666.851 290.88C667.028 282.265 671.013 277.686 678.804 277.148C684.265 276.79 692.633 276.609 703.915 276.609C715.198 276.609 724.033 276.768 730.436 277.081C736.836 277.399 743.01 278.878 748.968 281.524C754.922 284.173 759.688 287.604 763.268 291.821C770.698 300.529 774.415 310.627 774.415 322.113C774.415 334.229 770.521 345.047 762.731 354.559C758.97 359.138 754.113 362.905 748.162 365.868C742.208 368.83 735.606 370.535 728.357 370.985L728.35 370.989ZM722.307 306.096V338.675C722.307 339.395 722.576 340.066 723.113 340.694C723.65 341.321 724.364 341.634 725.262 341.634C730.988 341.634 735.4 339.661 738.488 335.709C741.575 331.761 743.121 327.094 743.121 321.707C743.121 316.32 741.711 311.634 738.893 307.639C736.074 303.646 732.291 301.647 727.547 301.647C726.385 301.647 725.487 301.695 724.861 301.783C723.161 302.233 722.311 303.669 722.311 306.093L722.307 306.096Z" fill="white"/>
<path d="M807.368 371.391C800.7 369.687 795.997 367.982 793.27 366.274C790.54 364.569 788.726 363.359 787.831 362.639C785.502 360.754 784.339 358.153 784.339 354.832C784.339 352.231 784.652 349.763 785.278 347.427C786.44 343.029 788.545 340.83 791.589 340.83C792.571 340.922 795.728 341.952 801.057 343.926C806.382 345.9 810.57 346.888 813.613 346.888C818.18 346.888 820.461 345.095 820.461 341.502C820.461 339.347 819.342 337.351 817.105 335.51C814.868 333.672 812.159 331.898 808.98 330.193C805.8 328.488 802.602 326.537 799.379 324.338C796.155 322.139 793.425 319.087 791.187 315.184C788.95 311.28 787.831 306.724 787.831 301.518C787.831 292.902 792.038 286.147 800.453 281.254C808.866 276.362 819.743 273.916 833.083 273.916C846.423 273.916 857.006 275.284 864.841 278.022C872.671 280.76 876.59 284.553 876.59 289.397C876.59 292.899 875.784 295.972 874.173 298.621C872.561 301.27 870.861 302.591 869.069 302.591C868.443 302.591 866.36 301.898 862.824 300.503C859.288 299.112 856.086 298.415 853.223 298.415C847.582 298.415 844.763 300.614 844.763 305.012C844.763 307.166 846.106 309.14 848.792 310.937C851.479 312.734 854.721 314.461 858.529 316.121C862.334 317.781 866.162 319.644 870.011 321.707C873.86 323.773 877.128 326.599 879.814 330.189C882.5 333.779 883.843 338.133 883.843 343.247C883.843 348.361 882.21 353.032 878.942 357.249C875.674 361.47 871.354 364.742 865.985 367.078C855.332 371.657 842.978 373.944 828.925 373.944C821.226 373.944 814.04 373.092 807.372 371.387L807.368 371.391Z" fill="white"/>
<path d="M168.686 73.7145C167.81 70.2758 164.399 68.1616 160.969 68.8626C159.328 66.5788 156.734 65.1214 153.919 64.9295C152.793 61.1809 148.91 58.9524 145.091 59.9301C144.623 60.0482 144.178 60.2142 143.759 60.4135C141.466 58.0595 138.022 56.96 134.618 57.8344C130.978 58.7679 128.373 61.6901 127.67 65.1472C127.589 65.1657 127.508 65.1841 127.424 65.2026C122.345 66.5013 119.284 71.6815 120.579 76.7731C121.874 81.8648 127.041 84.9345 132.119 83.6358C133.08 83.3886 133.966 83.0049 134.765 82.5105C137.054 84.9235 140.542 86.0599 143.99 85.178C145.746 84.7279 147.258 83.8166 148.436 82.6027C150.522 83.8424 153.083 84.2852 155.623 83.6358C157.19 83.2336 158.563 82.4625 159.678 81.4405C160.973 82.0013 162.452 82.1526 163.924 81.7762C167.461 80.8723 169.595 77.2639 168.69 73.7182L168.686 73.7145Z" fill="white"/>
<path d="M584.135 12.6221C584.271 12.5889 584.403 12.5594 584.54 12.5299C585.702 6.84052 589.989 2.02191 595.98 0.490727C601.588 -0.944526 607.259 0.863377 611.031 4.73745C611.723 4.40908 612.455 4.13974 613.221 3.94419C619.506 2.33553 625.902 5.9993 627.753 12.172C632.393 12.4893 636.658 14.8838 639.363 18.6472C645.011 17.4924 650.623 20.9754 652.066 26.6352C653.552 32.4721 650.038 38.4087 644.216 39.8993C641.795 40.5192 639.355 40.2683 637.225 39.3496C635.392 41.0357 633.129 42.3049 630.549 42.9654C626.373 44.0353 622.159 43.3048 618.722 41.2645C616.786 43.2605 614.291 44.7622 611.406 45.5038C605.732 46.9575 599.988 45.0869 596.22 41.1169C594.902 41.9323 593.441 42.5669 591.863 42.9691C583.506 45.109 575.001 40.0506 572.867 31.6715C570.733 23.2924 575.778 14.7658 584.135 12.6258V12.6221Z" fill="white"/>
<path d="M828.94 231.817C830.261 226.63 835.409 223.435 840.586 224.494C843.063 221.044 846.978 218.848 851.232 218.557C852.929 212.897 858.791 209.536 864.554 211.012C865.26 211.193 865.93 211.44 866.563 211.739C870.022 208.186 875.222 206.529 880.362 207.842C885.853 209.248 889.787 213.665 890.85 218.882C890.975 218.911 891.097 218.933 891.222 218.966C898.883 220.929 903.509 228.748 901.551 236.429C899.593 244.111 891.796 248.749 884.134 246.786C882.688 246.417 881.349 245.834 880.141 245.085C876.686 248.727 871.42 250.442 866.217 249.11C863.567 248.432 861.286 247.055 859.508 245.225C856.358 247.1 852.495 247.767 848.664 246.786C846.298 246.181 844.226 245.015 842.544 243.473C840.59 244.318 838.356 244.546 836.134 243.978C830.798 242.613 827.574 237.167 828.94 231.817Z" fill="white"/>
<path d="M811.35 113.82C812.225 110.382 815.637 108.268 819.066 108.969C820.708 106.685 823.302 105.227 826.117 105.035C827.243 101.287 831.125 99.0583 834.945 100.036C835.412 100.154 835.858 100.32 836.277 100.519C838.57 98.1654 842.014 97.0659 845.418 97.9403C849.057 98.8738 851.663 101.796 852.366 105.253C852.447 105.272 852.528 105.29 852.612 105.308C857.69 106.607 860.752 111.787 859.457 116.879C858.161 121.971 852.995 125.04 847.917 123.742C846.956 123.494 846.069 123.111 845.271 122.616C842.982 125.029 839.493 126.166 836.045 125.284C834.29 124.834 832.778 123.922 831.6 122.709C829.514 123.948 826.952 124.391 824.413 123.742C822.846 123.34 821.473 122.568 820.358 121.546C819.063 122.107 817.583 122.258 816.111 121.882C812.575 120.978 810.441 117.37 811.346 113.824L811.35 113.82Z" fill="white"/>
<path d="M501.665 390.241C502.541 386.803 505.952 384.688 509.381 385.389C511.023 383.106 513.617 381.648 516.432 381.456C517.558 377.708 521.441 375.479 525.26 376.457C525.728 376.575 526.173 376.741 526.592 376.94C528.885 374.586 532.329 373.487 535.733 374.361C539.373 375.295 541.978 378.217 542.681 381.674C542.762 381.692 542.843 381.711 542.927 381.729C548.006 383.028 551.067 388.208 549.772 393.3C548.477 398.392 543.31 401.461 538.232 400.163C537.271 399.915 536.385 399.532 535.586 399.037C533.297 401.45 529.809 402.587 526.361 401.705C524.605 401.255 523.093 400.343 521.915 399.13C519.829 400.369 517.268 400.812 514.728 400.163C513.161 399.76 511.788 398.989 510.673 397.967C509.378 398.528 507.898 398.679 506.427 398.303C502.89 397.399 500.756 393.791 501.661 390.245L501.665 390.241Z" fill="white"/>
<path d="M262.877 44.5888C263.753 41.1501 267.164 39.036 270.593 39.737C272.235 37.4531 274.829 35.9957 277.644 35.8039C278.77 32.0552 282.652 29.8267 286.472 30.8045C286.939 30.9225 287.385 31.0886 287.804 31.2878C290.097 28.9338 293.541 27.8343 296.945 28.7088C300.585 29.6422 303.19 32.5644 303.893 36.0216C303.974 36.04 304.055 36.0584 304.139 36.0769C309.218 37.3756 312.279 42.5558 310.984 47.6475C309.689 52.7391 304.522 55.8089 299.444 54.5101C298.483 54.2629 297.596 53.8792 296.798 53.3848C294.509 55.7978 291.02 56.9342 287.572 56.0524C285.817 55.6022 284.305 54.6909 283.127 53.477C281.041 54.7167 278.479 55.1595 275.94 54.5101C274.373 54.108 273 53.3368 271.885 52.3148C270.59 52.8756 269.11 53.0269 267.638 52.6506C264.102 51.7466 261.968 48.1382 262.873 44.5925L262.877 44.5888Z" fill="white"/>
<path d="M52.4053 263.271C51.5295 259.832 48.1182 257.718 44.6886 258.419C43.0474 256.135 40.453 254.678 37.6379 254.486C36.5119 250.738 32.6296 248.509 28.8099 249.487C28.3425 249.605 27.8972 249.771 27.4777 249.97C25.1852 247.616 21.7408 246.517 18.3369 247.391C14.6975 248.325 12.0921 251.247 11.3893 254.704C11.3083 254.722 11.2273 254.741 11.1427 254.759C6.06446 256.058 3.00279 261.238 4.29811 266.33C5.59343 271.421 10.76 274.491 15.8382 273.192C16.7987 272.945 17.6855 272.562 18.4841 272.067C20.773 274.48 24.2615 275.617 27.7096 274.735C29.4649 274.285 30.9773 273.373 32.1549 272.159C34.2414 273.399 36.8026 273.842 39.3417 273.192C40.9093 272.79 42.2819 272.019 43.3969 270.997C44.6923 271.558 46.1716 271.709 47.6435 271.333C51.1799 270.429 53.3142 266.821 52.409 263.275L52.4053 263.271Z" fill="white"/>
<path d="M776.449 225.748C773.491 226.342 770.473 226.803 767.423 227.124C762.389 227.655 757.406 227.796 752.541 227.556C752.405 230.301 751.776 233.013 750.679 235.651C756.902 236.51 763.559 236.595 770.319 235.883C778.782 234.994 786.819 232.906 793.756 229.858C794.139 229.463 794.51 229.069 794.871 228.677C793.075 226.626 791.533 224.327 790.304 221.822C785.921 223.46 781.266 224.778 776.453 225.744L776.449 225.748Z" fill="#EFC360"/>
<path d="M737.719 250.974C730.123 256.475 720.313 260.526 709.497 262.699C706.741 263.253 703.922 263.684 701.056 263.987C681.659 266.031 664.286 261.847 653.567 253.686C643.374 257.641 637.302 263.29 637.294 268.857C637.287 274.262 642.851 279.756 651.83 283.213C668.974 288.744 697.332 283.966 729.671 270.089C744.493 263.732 758.911 255.944 770.952 248.007C761.24 248.967 751.658 248.483 742.966 246.594C741.398 248.111 739.65 249.575 737.722 250.974H737.719Z" fill="#0066FF"/>
<path d="M665.563 243.79C673.556 247.111 683.974 248.306 694.907 247.155C705.84 246.004 715.783 242.661 722.911 237.747C728.857 233.647 732.018 228.932 731.588 224.814C731.157 220.697 727.087 216.745 720.419 213.974C712.427 210.654 702.009 209.458 691.076 210.61C688.662 210.864 686.292 211.226 683.992 211.687C675.885 213.314 668.625 216.188 663.072 220.018C661.07 221.398 659.385 222.848 658.045 224.32C655.642 227.39 654.398 230.567 654.49 233.57C655.249 237.462 659.234 241.156 665.563 243.786V243.79Z" fill="#EFC360"/>
<path d="M773.185 157.605C773.141 157.671 773.093 157.738 773.046 157.804C770.072 161.914 767.581 166.891 764.946 172.164C764.361 173.334 763.769 174.514 763.165 175.706C778.448 175.086 793.612 161.401 798.849 156.671C801.329 154.432 805.156 154.631 807.394 157.121C809.631 159.612 809.429 163.445 806.945 165.689C797.502 174.215 788.91 180.111 780.674 183.712C772.884 187.122 765.575 188.417 758.326 187.671C745.086 186.31 735.014 178.392 725.277 170.732C713.295 161.313 702.944 153.174 687.624 156.251C669.589 159.87 657.858 177.529 661.468 195.608C662.067 198.615 663.054 201.474 664.404 204.153C672.629 199.821 682.715 196.762 693.887 195.582C719.68 192.863 741.895 201.16 749.641 215.174C754.977 215.679 760.519 215.646 766.157 215.052C773.575 214.27 780.733 212.558 787.121 210.049C785.995 194.353 796.693 179.849 812.476 176.68C812.66 176.643 812.844 176.61 813.028 176.577C813.193 176.54 813.362 176.503 813.532 176.47C820.829 175.005 828.049 176.289 834.124 179.606C835.376 167.467 829.892 155.299 819.438 148.314C804.133 138.091 783.382 142.256 773.185 157.601V157.605Z" fill="#0066FF"/>
<path d="M837.293 201.448C834.849 192.84 826.54 187.206 817.69 188.107C817.366 188.199 817.031 188.269 816.685 188.306C816.258 188.35 815.831 188.417 815.405 188.487C805.704 190.715 799.456 200.327 801.421 210.17C803.423 220.184 813.175 226.7 823.162 224.693C832.991 222.719 839.434 213.214 837.73 203.371C837.653 203.031 837.569 202.692 837.473 202.36C837.385 202.057 837.333 201.751 837.293 201.448Z" fill="#EFC360"/>
<path d="M844.579 188.952C850.139 169.939 842.724 149.292 826.15 138.22C805.325 124.31 777.108 129.948 763.187 150.775C759.665 155.66 756.979 161.036 754.135 166.725C753.067 168.862 751.974 171.039 750.826 173.219C744.604 170.507 738.789 165.94 732.747 161.187C720.224 151.344 706.035 140.183 685.254 144.355C660.68 149.292 644.687 173.352 649.611 197.991C650.524 202.566 652.095 206.894 654.288 210.912C652.29 212.606 650.516 214.399 648.982 216.273C644.025 221.763 641.707 227.932 642.365 234.216C642.387 234.437 642.417 234.658 642.45 234.88C642.468 235.112 642.483 235.345 642.509 235.577C642.825 238.595 643.73 241.447 645.147 244.096C639.631 246.668 635.167 249.752 631.848 253.294C627.506 257.929 625.21 263.301 625.199 268.831C625.18 279.594 633.581 289.227 647.668 294.6C647.76 294.633 647.852 294.666 647.944 294.695C658.774 298.237 672.515 298.533 688.78 295.581C689.681 295.419 690.59 295.245 691.506 295.061C704.692 292.412 719.466 287.659 734.432 281.239C761.406 269.669 786.499 253.97 800.799 239.953C802.728 239.034 804.582 238.049 806.352 237.001C812.016 239.418 818.433 240.211 824.91 238.909C842.021 235.474 853.153 218.719 849.727 201.563C849.701 201.43 849.668 201.293 849.639 201.16C849.598 200.943 849.561 200.725 849.517 200.507C848.66 196.22 846.941 192.32 844.583 188.948L844.579 188.952ZM770.319 235.88C763.562 236.592 756.902 236.507 750.679 235.647C751.776 233.009 752.405 230.297 752.541 227.552C757.41 227.792 762.389 227.652 767.423 227.12C770.473 226.799 773.491 226.338 776.449 225.744C781.263 224.778 785.918 223.46 790.301 221.822C791.53 224.324 793.071 226.622 794.867 228.677C794.507 229.069 794.135 229.46 793.752 229.858C786.816 232.906 778.779 234.99 770.315 235.883L770.319 235.88ZM658.045 224.32C659.385 222.848 661.07 221.398 663.072 220.018C668.625 216.188 675.885 213.314 683.992 211.687C686.292 211.226 688.658 210.864 691.076 210.61C702.005 209.458 712.427 210.654 720.419 213.974C727.084 216.745 731.157 220.697 731.588 224.814C732.018 228.932 728.857 233.647 722.911 237.747C715.783 242.661 705.84 246.004 694.907 247.155C683.977 248.306 673.556 247.111 665.563 243.79C659.234 241.159 655.248 237.462 654.49 233.574C654.398 230.57 655.642 227.394 658.045 224.324V224.32ZM816.685 188.302C817.031 188.265 817.366 188.195 817.69 188.103C826.544 187.203 834.849 192.837 837.293 201.445C837.333 201.747 837.385 202.053 837.473 202.356C837.569 202.688 837.653 203.027 837.731 203.367C839.434 213.214 832.991 222.715 823.162 224.689C813.175 226.696 803.423 220.18 801.421 210.167C799.456 200.323 805.705 190.712 815.405 188.483C815.832 188.409 816.258 188.347 816.685 188.302ZM661.471 195.611C657.861 177.529 669.593 159.874 687.628 156.254C702.947 153.177 713.295 161.317 725.281 170.736C735.018 178.392 745.089 186.31 758.33 187.675C765.579 188.42 772.887 187.125 780.678 183.716C788.913 180.111 797.506 174.215 806.948 165.692C809.432 163.449 809.631 159.616 807.397 157.125C805.16 154.635 801.336 154.435 798.853 156.675C793.612 161.405 778.451 175.09 763.169 175.71C763.776 174.518 764.365 173.337 764.95 172.168C767.585 166.895 770.072 161.918 773.049 157.808C773.097 157.741 773.145 157.675 773.189 157.608C783.386 142.263 804.133 138.094 819.442 148.322C829.896 155.306 835.379 167.478 834.128 179.613C828.053 176.296 820.833 175.012 813.535 176.477C813.366 176.51 813.2 176.547 813.031 176.584C812.847 176.617 812.663 176.65 812.479 176.687C796.696 179.857 785.999 194.361 787.125 210.056C780.737 212.561 773.579 214.277 766.16 215.059C760.523 215.653 754.981 215.69 749.645 215.181C741.903 201.168 719.687 192.87 693.891 195.589C682.719 196.766 672.636 199.825 664.408 204.16C663.057 201.481 662.071 198.622 661.471 195.615V195.611ZM729.671 270.09C697.332 283.962 668.974 288.74 651.83 283.213C642.851 279.756 637.287 274.262 637.294 268.857C637.302 263.29 643.377 257.641 653.567 253.686C664.286 261.847 681.659 266.031 701.056 263.987C703.922 263.684 706.741 263.253 709.497 262.699C720.309 260.53 730.123 256.475 737.719 250.974C739.647 249.575 741.395 248.114 742.962 246.594C751.654 248.48 761.24 248.967 770.948 248.007C758.907 255.944 744.49 263.732 729.667 270.09H729.671Z" fill="#272525"/>
<path d="M706.874 235.857C706.874 236.319 706.716 236.743 706.399 237.134C706.083 237.521 705.626 237.765 705.034 237.857C703.415 238.101 702.075 238.267 701.023 238.359C699.97 238.451 698.723 238.51 697.284 238.536C696.184 238.532 695.565 238.104 695.429 237.252C695.381 236.916 695.323 236.474 695.253 235.928C695.186 235.381 695.117 234.902 695.05 234.485C694.984 234.068 694.844 233.751 694.638 233.529C694.428 233.308 694.086 233.216 693.608 233.26L691.374 233.456C690.896 233.496 690.576 233.647 690.406 233.902C690.237 234.157 690.156 234.496 690.163 234.917C690.171 235.337 690.185 235.824 690.215 236.374C690.244 236.924 690.263 237.37 690.27 237.71C690.285 238.573 689.751 239.101 688.666 239.296C687.245 239.521 685.943 239.684 684.758 239.791C683.576 239.894 682.163 239.968 680.526 240.012C679.926 240.023 679.437 239.868 679.057 239.54C678.678 239.211 678.45 238.82 678.369 238.366C678.057 236.629 677.733 233.813 677.394 229.932C677.056 226.047 676.875 223.519 676.853 222.346C676.831 221.173 676.942 220.361 677.181 219.907C677.42 219.453 677.961 219.192 678.793 219.118L686.064 218.479C686.76 218.417 687.37 218.605 687.9 219.04C688.43 219.476 688.725 220.073 688.791 220.83L689.339 227.106C689.402 227.822 689.74 228.154 690.358 228.102L693.667 227.81C694.281 227.755 694.561 227.371 694.498 226.652L693.95 220.376C693.884 219.62 694.075 218.981 694.52 218.461C694.966 217.941 695.536 217.649 696.232 217.587L703.117 216.985C703.952 216.911 704.526 217.077 704.842 217.483C705.159 217.889 705.406 218.668 705.586 219.826C705.766 220.985 706.027 223.505 706.366 227.39C706.705 231.275 706.87 234.101 706.863 235.869L706.874 235.857Z" fill="#272525"/>
<path d="M814.735 208.772L814.823 198.482C814.842 197.478 814.864 196.836 814.893 196.545C814.93 195.833 815.11 195.32 815.438 195.003C815.765 194.685 816.395 194.538 817.329 194.552L826.257 194.718C827.188 194.737 827.813 194.91 828.13 195.239C828.446 195.567 828.608 196.087 828.619 196.803C828.638 198.205 828.63 199.895 828.593 201.865C828.557 203.835 828.468 206.223 828.329 209.027C828.181 213.366 825.896 216.188 821.477 217.487C818.93 218.243 815.681 218.583 811.729 218.509C810.842 218.494 810.257 218.214 809.977 217.675C809.697 217.136 809.572 216.203 809.594 214.878C809.62 213.554 810.142 212.845 811.165 212.753C812.413 212.62 813.315 212.108 813.878 211.215C814.437 210.322 814.724 209.51 814.739 208.776L814.735 208.772Z" fill="#272525"/>
</g>
<defs>
<filter id="filter0_d_69_56" x="0" y="0" width="906" height="410" filterUnits="userSpaceOnUse" color-interpolation-filters="sRGB">
<feFlood flood-opacity="0" result="BackgroundImageFix"/>
<feColorMatrix in="SourceAlpha" type="matrix" values="0 0 0 0 0 0 0 0 0 0 0 0 0 0 0 0 0 0 127 0" result="hardAlpha"/>
<feOffset dy="4"/>
<feGaussianBlur stdDeviation="2"/>
<feComposite in2="hardAlpha" operator="out"/>
<feColorMatrix type="matrix" values="0 0 0 0 0 0 0 0 0 0 0 0 0 0 0 0 0 0 0.25 0"/>
<feBlend mode="normal" in2="BackgroundImageFix" result="effect1_dropShadow_69_56"/>
<feBlend mode="normal" in="SourceGraphic" in2="effect1_dropShadow_69_56" result="shape"/>
</filter>
<clipPath id="clip0_69_56">
<rect width="898" height="402" fill="white" transform="translate(4)"/>
</clipPath>
</defs>
</svg>
