<svg width="44" height="44" viewBox="0 0 44 44" fill="none" xmlns="http://www.w3.org/2000/svg">
<path fill-rule="evenodd" clip-rule="evenodd" d="M4.09563 7.98781C3.8179 8.31777 3.66593 8.73537 3.66663 9.16665V31.1666C3.66663 32.6253 4.24609 34.0243 5.27754 35.0557C6.30899 36.0872 7.70794 36.6667 9.16663 36.6667H34.8333C36.292 36.6667 37.6909 36.0872 38.7224 35.0557C39.7538 34.0243 40.3333 32.6253 40.3333 31.1666V9.18498C40.3351 8.91179 40.2761 8.64162 40.1607 8.394C40.0453 8.14638 39.8763 7.92749 39.666 7.75315C39.3401 7.48316 38.9305 7.33476 38.5073 7.33332H5.49996C5.23223 7.3329 4.96768 7.39131 4.72502 7.50441C4.48235 7.6175 4.26749 7.78253 4.09563 7.98781ZM7.3333 13.5923V31.1666C7.3333 31.6529 7.52645 32.1192 7.87027 32.463C8.21408 32.8068 8.6804 33 9.16663 33H34.8333C35.3195 33 35.7858 32.8068 36.1297 32.463C36.4735 32.1192 36.6666 31.6529 36.6666 31.1666V13.5923L23.2961 26.9628C22.9523 27.3065 22.4861 27.4996 22 27.4996C21.5138 27.4996 21.0476 27.3065 20.7038 26.9628L7.3333 13.5923Z" fill="white"/>
</svg>
