<svg width="49" height="49" viewBox="0 0 49 49" fill="none" xmlns="http://www.w3.org/2000/svg">
<path d="M16.3334 8.16666C13.626 8.16666 11.0295 9.24217 9.11503 11.1566C7.2006 13.071 6.12508 15.6676 6.12508 18.375V36.75H2.04175V40.8333H42.8751C43.9581 40.8333 44.9967 40.4031 45.7624 39.6373C46.5282 38.8716 46.9584 37.833 46.9584 36.75V18.375C46.9584 17.0344 46.6944 15.707 46.1814 14.4684C45.6683 13.2299 44.9164 12.1045 43.9685 11.1566C43.0205 10.2087 41.8952 9.45674 40.6566 8.94372C39.4181 8.4307 38.0907 8.16666 36.7501 8.16666H16.3334ZM16.3334 12.25C17.9579 12.25 19.5158 12.8953 20.6644 14.044C21.8131 15.1926 22.4584 16.7505 22.4584 18.375V36.75H10.2084V18.375C10.2084 16.7505 10.8537 15.1926 12.0024 14.044C13.151 12.8953 14.709 12.25 16.3334 12.25ZM26.5417 26.5417V14.2917H34.7084V18.375H30.6251V26.5417H26.5417Z" fill="#D9D9D9"/>
</svg>
