<svg width="46" height="46" viewBox="0 0 46 46" fill="none" xmlns="http://www.w3.org/2000/svg">
<path d="M3.83325 38.3333V26.8333C4.88742 26.8333 5.79017 26.4577 6.5415 25.7063C7.29284 24.955 7.66786 24.0529 7.66659 23C7.66659 21.9458 7.29092 21.0431 6.53959 20.2917C5.78825 19.5404 4.88614 19.1654 3.83325 19.1667V7.66666H42.1666V38.3333H3.83325ZM16.9624 29.9958L34.0208 25.4917C34.4999 25.3639 34.8596 25.0681 35.0998 24.6042C35.3401 24.1404 35.3956 23.6695 35.2666 23.1917C35.1388 22.7125 34.8596 22.3534 34.429 22.1145C33.9984 21.8755 33.5429 21.8193 33.0624 21.9458L28.3666 23.1917L20.6999 16.0042L18.0166 16.675L22.6166 24.725L18.0166 25.875L15.6208 24.0542L13.7999 24.5333L16.9624 29.9958Z" fill="#D9D9D9"/>
</svg>
