<svg width="830" height="272" viewBox="0 0 830 272" fill="none" xmlns="http://www.w3.org/2000/svg">
<g clip-path="url(#clip0_72_134)" filter="url(#filter0_d_72_134)">
<path d="M123.874 131.923C123.789 133.749 123.006 135.431 121.514 136.966C120.022 138.502 118.032 139.355 115.549 139.519C110.825 139.85 105.15 140.017 98.5212 140.017C91.8926 140.017 85.8021 139.85 80.2499 139.519C77.7633 139.355 75.774 138.502 74.282 136.966C72.7901 135.431 72.0032 133.752 71.9215 131.923C71.6728 119.308 71.5502 108.536 71.5502 99.6129C71.5502 90.69 71.5911 84.1556 71.6728 80.0029C71.6728 76.85 70.2626 75.2702 67.4456 75.2702H56.2593C54.5187 75.2702 53.1085 74.8573 52.0321 74.0247C50.9557 73.1955 50.3528 71.7419 50.2302 69.6673C50.1076 67.5927 50.0428 65.4327 50.0428 63.1943C50.0428 60.9559 50.1042 59.0246 50.2302 57.4038C50.3528 55.7864 51.017 54.5409 52.2195 53.6674C53.4185 52.7973 54.7231 52.3605 56.1333 52.3605C66.904 52.1933 81.4898 52.1114 99.8837 52.1114C118.278 52.1114 131.453 52.1933 139.41 52.3605C140.817 52.4424 142.125 52.8996 143.324 53.7288C144.523 54.558 145.187 55.783 145.313 57.4004C145.44 59.0178 145.501 60.9081 145.501 63.0646C145.501 65.2212 145.457 67.2992 145.378 69.2885C145.13 73.0249 143.099 74.8914 139.288 74.8914H128.101C125.284 74.8914 123.874 76.345 123.874 79.2488C124.123 89.7073 124.246 99.1693 124.246 107.638C124.246 116.108 124.123 124.198 123.874 131.916V131.923Z" fill="white"/>
<path d="M241.081 115.609C242.655 117.271 248.248 123.536 257.861 134.411C258.44 135.158 258.729 135.823 258.729 136.403C258.729 138.563 257.776 139.642 255.872 139.642C251.477 139.724 247.066 139.768 242.635 139.768C238.203 139.768 233.789 139.727 229.398 139.642C226.993 139.642 224.799 138.69 222.81 136.779L212.121 120.591C211.706 120.093 211.208 119.762 210.629 119.595C209.304 119.097 208.64 119.636 208.64 121.212V133.913C208.64 137.482 206.296 139.389 201.616 139.642C196.932 139.891 191.816 140.017 186.267 140.017C180.718 140.017 174.005 139.809 166.133 139.393C163.728 139.229 161.803 138.396 160.352 136.902C158.901 135.407 158.053 133.708 157.804 131.797C157.14 124.495 156.81 113.016 156.81 97.3711C156.81 81.7261 157.058 70.3327 157.556 63.1943C158.053 56.0559 161.657 52.4458 168.371 52.3639C174.665 52.282 183.243 52.2377 194.098 52.2377C204.954 52.2377 213.943 52.3196 221.069 52.4868C231.343 52.654 239.753 56.4722 246.3 63.9416C252.843 71.4109 256.12 79.8391 256.12 89.2159C256.12 94.6959 254.856 99.7597 252.329 104.407C249.802 109.058 246.051 112.791 241.081 115.613V115.609ZM208.517 78.3787L208.766 101.415C208.766 102.991 209.635 103.779 211.375 103.779C216.512 103.779 220.552 102.346 223.495 99.4833C226.434 96.6204 227.906 93.2389 227.906 89.3353C227.906 85.4317 226.516 82.0741 223.743 79.2488C220.967 76.4269 216.886 75.0142 211.501 75.0142C209.512 75.0142 208.517 76.1334 208.517 78.3753V78.3787Z" fill="white"/>
<path d="M350.836 58.2125L391.479 127.068C393.135 129.808 393.966 132.111 393.966 133.977C393.966 135.844 393.22 137.236 391.728 138.147C390.236 139.062 388.496 139.515 386.506 139.515H346.482C342.422 139.515 339.813 138.768 338.651 137.274C338.317 136.775 337.864 135.905 337.285 134.66L333.681 126.941C332.605 124.536 330.078 123.164 326.099 122.833H302.606C300.865 122.833 299.54 123 298.627 123.331C297.714 123.662 296.968 124.41 296.389 125.573L291.542 135.66C290.715 137.154 289.802 138.171 288.807 138.71C287.812 139.249 286.361 139.519 284.457 139.519H273.271C270.038 139.519 268.298 138.359 268.049 136.032C267.964 135.701 267.926 135.37 267.926 135.035C267.926 133.128 268.546 131.299 269.79 129.559L308.693 60.8296C312.423 54.3567 318.469 51.1185 326.838 51.1185H336.781C343.41 51.1185 348.094 53.4831 350.825 58.2159L350.836 58.2125ZM310.563 90.086L304.844 101.418C304.51 102.165 304.346 102.831 304.346 103.411C304.346 105.571 305.382 106.649 307.453 106.649H318.765C320.506 106.649 321.705 106.212 322.369 105.342C323.03 104.472 323.364 103.704 323.364 103.039C323.364 102.373 323.241 101.711 322.993 101.046L318.268 90.3385C317.273 88.182 315.989 87.1003 314.415 87.1003C312.842 87.1003 311.558 88.0967 310.563 90.0894V90.086Z" fill="white"/>
<path d="M477.863 133.042C476.371 135.864 473.782 138.065 470.093 139.642C466.404 141.218 462.405 142.006 458.1 142.006C453.794 142.006 449.853 141.259 446.29 139.765C442.727 138.27 440.159 136.113 438.585 133.292C426.156 110.3 414.598 87.7214 403.906 65.559C402.662 62.9043 402.042 60.8706 402.042 59.4579C402.042 54.9743 404.073 52.7325 408.133 52.7325L444.056 52.4834C447.121 52.4834 449.461 53.0259 451.079 54.1008C452.694 55.179 454.125 57.339 455.368 60.5737L467.426 91.4509C467.924 92.7783 468.833 93.4436 470.162 93.4436C471.49 93.4436 472.481 92.7817 473.145 91.4509L489.428 56.0901C490.504 53.8483 491.665 52.6028 492.909 52.3537C493.406 52.2718 494.275 52.2274 495.518 52.2274L509.811 52.4765C511.385 52.4765 512.502 53.2238 513.166 54.7184C513.415 55.3019 513.537 56.0082 513.537 56.8339C513.537 57.6597 512.604 59.9459 510.741 63.6823C508.877 67.4187 504.03 77.7952 496.199 94.8085C488.368 111.825 482.257 124.566 477.867 133.032L477.863 133.042Z" fill="white"/>
<path d="M528.76 137.212C527.145 135.677 526.106 133.145 525.653 129.617C525.197 126.088 524.969 115.507 524.969 97.8659C524.969 80.2247 525.258 68.7119 525.837 63.3138C526.498 56.3426 529.441 52.7734 534.663 52.6062C540.631 52.4424 565.364 52.3571 608.866 52.3571C613.754 52.3571 616.2 55.4691 616.2 61.6964C616.2 66.5963 614.043 69.0429 609.738 69.0429H582.392C580.651 69.0429 579.262 69.6264 578.23 70.7865C577.194 71.9501 576.676 73.4446 576.676 75.2702V84.2341C576.676 86.725 577.794 87.9705 580.031 87.9705H602.653C603.978 87.9705 604.993 88.0967 605.698 88.3424C606.4 88.5915 607.043 89.3183 607.626 90.5228C608.205 91.7273 608.494 93.6962 608.494 96.4362C608.494 99.1762 608.018 101.002 607.064 101.916C606.11 102.831 604.557 103.284 602.404 103.284H582.143C580.072 103.284 578.642 103.803 577.855 104.84C577.068 105.878 576.673 107.475 576.673 109.635V115.736C576.673 119.305 578.369 121.089 581.769 121.089H612.718C614.21 121.089 615.535 121.526 616.697 122.396C617.855 123.266 618.437 125.177 618.437 128.125C618.437 131.074 617.732 133.708 616.326 136.032C614.915 138.355 613.26 139.519 611.352 139.519H534.663C532.343 139.519 530.375 138.751 528.76 137.216V137.212Z" fill="white"/>
<path d="M682.2 82.3676L682.077 107.27C682.077 110.924 682.636 113.641 683.756 115.425C684.874 117.21 687.214 118.104 690.78 118.104H722.227C726.039 118.189 727.946 121.093 727.946 126.819C727.946 131.22 727.408 134.414 726.332 136.407C725.255 138.4 723.058 139.437 719.744 139.519C708.06 139.85 696.499 140.017 685.065 140.017C673.63 140.017 659.044 139.932 641.314 139.768C638.33 139.768 635.908 139.041 634.042 137.588C632.178 136.137 631.119 134.124 630.874 131.548C630.21 124.328 629.879 112.934 629.879 97.3711C629.879 81.808 630.067 71.3086 630.438 65.8695C630.809 60.4338 631.575 56.8237 632.737 55.0357C633.895 53.2511 636.174 52.3605 639.573 52.3605H672.884C676.365 52.3605 678.664 53.275 679.781 55.1005C680.899 56.9261 681.583 59.8742 681.832 63.9416C682.081 68.0089 682.203 74.1509 682.203 82.371L682.2 82.3676Z" fill="white"/>
<path d="M172.969 233.587C172.802 235.498 171.995 237.197 170.544 238.692C169.093 240.186 167.127 241.015 164.641 241.183C157.845 241.595 152.252 241.804 147.861 241.804C143.471 241.804 138.29 241.595 132.325 241.183C127.768 240.77 125.366 238.777 125.118 235.204C125.032 233.795 124.951 231.949 124.869 229.663C124.784 227.38 124.682 225.367 124.559 223.623C124.436 221.88 123.98 220.511 123.193 219.515C122.406 218.519 121.016 218.02 119.031 218.02H109.708C107.718 218.02 106.332 218.519 105.545 219.515C104.758 220.511 104.302 221.88 104.179 223.623C104.057 225.367 103.951 227.38 103.869 229.663C103.784 231.946 103.702 233.795 103.62 235.204C103.372 238.773 100.967 240.766 96.4128 241.183C90.4484 241.595 84.9983 241.804 80.0694 241.804C75.1405 241.804 69.2748 241.595 62.4827 241.183C59.9961 241.015 58.0273 240.186 56.5796 238.692C55.1285 237.197 54.3212 235.498 54.1543 233.587C53.4901 226.285 53.1597 214.536 53.1597 198.349C53.1597 182.161 53.3232 171.641 53.657 166.786C53.9874 161.93 54.7334 158.61 55.8949 156.826C57.0531 155.041 59.3762 154.15 62.854 154.15H93.1802C96.079 154.15 98.5451 155.147 100.575 157.14C102.605 159.132 103.62 161.705 103.62 164.858V191.006C103.62 193.995 104.905 195.489 107.473 195.489H121.269C123.837 195.489 125.121 193.995 125.121 191.006V164.858C125.121 161.705 126.136 159.129 128.166 157.14C130.196 155.147 132.659 154.15 135.561 154.15H164.273C167.754 154.15 170.07 155.044 171.232 156.826C172.39 158.61 173.136 161.93 173.47 166.786C173.8 171.641 173.967 182.161 173.967 198.349C173.967 214.536 173.633 226.281 172.973 233.587H172.969Z" fill="white"/>
<path d="M268.676 160.125L309.32 228.98C310.975 231.72 311.806 234.024 311.806 235.89C311.806 237.757 311.06 239.149 309.568 240.06C308.076 240.974 306.336 241.428 304.347 241.428H264.323C260.262 241.428 257.653 240.681 256.491 239.186C256.158 238.688 255.705 237.818 255.126 236.573L251.522 228.854C250.445 226.449 247.918 225.077 243.939 224.746H220.446C218.705 224.746 217.38 224.913 216.468 225.244C215.555 225.575 214.809 226.322 214.23 227.486L209.382 237.572C208.555 239.067 207.642 240.084 206.647 240.623C205.653 241.162 204.201 241.432 202.297 241.432H191.111C187.879 241.432 186.138 240.271 185.889 237.944C185.804 237.613 185.767 237.282 185.767 236.948C185.767 235.041 186.387 233.212 187.63 231.471L226.533 162.742C230.263 156.269 236.309 153.031 244.678 153.031H254.621C261.25 153.031 265.934 155.396 268.666 160.129L268.676 160.125ZM228.403 191.999L222.684 203.331C222.35 204.078 222.187 204.743 222.187 205.323C222.187 207.483 223.222 208.562 225.293 208.562H236.606C238.346 208.562 239.545 208.125 240.209 207.255C240.87 206.385 241.204 205.617 241.204 204.952C241.204 204.286 241.081 203.624 240.833 202.959L236.108 192.251C235.114 190.095 233.829 189.013 232.256 189.013C230.682 189.013 229.398 190.009 228.403 192.002V191.999Z" fill="white"/>
<path d="M367.489 243.923C352.573 243.923 340.784 240.125 332.128 232.529C323.469 224.934 319.14 214.205 319.14 200.342C319.14 191.876 320.526 184.448 323.303 178.053C326.079 171.662 329.992 166.557 335.047 162.739C345.072 155.188 358.292 151.407 374.697 151.407C385.304 151.407 395.908 152.861 406.515 155.764C410.575 157.092 412.605 160.371 412.605 165.602C412.605 172.74 410.367 176.309 405.895 176.309C405.149 176.309 402.703 175.978 398.561 175.313C394.416 174.651 391.517 174.317 389.862 174.317C383.975 174.317 379.442 176.371 376.25 180.479C373.058 184.587 371.464 189.487 371.464 195.172C371.464 200.857 372.956 205.859 375.94 210.176C378.924 214.492 382.981 216.734 388.121 216.898C391.602 217.065 397.774 217.147 406.641 217.147C410.95 217.147 413.31 219.181 413.726 223.248C413.975 224.742 414.097 226.257 414.097 227.793C414.097 229.328 413.971 230.884 413.726 232.461C413.229 235.45 410.909 237.627 406.767 238.999C402.621 240.367 396.657 241.531 388.87 242.486C381.08 243.438 373.954 243.919 367.492 243.919L367.489 243.923Z" fill="white"/>
<path d="M499.861 239.316L485.319 221.883C483.828 220.057 482.295 219.143 480.721 219.143C478.813 219.143 477.863 220.719 477.863 223.876V235.702C477.863 237.197 477.199 238.402 475.874 239.313C474.549 240.227 472.972 240.766 471.149 240.93C465.927 241.261 460.024 241.428 453.437 241.428C446.849 241.428 440.612 241.264 434.729 240.93C432.243 240.766 430.253 239.913 428.761 238.378C427.269 236.842 426.442 235.122 426.275 233.212C425.611 225.909 425.28 214.557 425.28 199.158C425.28 183.758 425.468 173.32 425.839 167.844C426.21 162.364 426.956 158.733 428.077 156.948C429.194 155.164 431.493 154.273 434.974 154.273H468.285C471.02 154.273 473.299 155.352 475.121 157.511C476.943 159.671 477.856 162.326 477.856 165.479L477.979 179.425C477.979 181.168 478.432 182.038 479.345 182.038C479.924 182.038 481.085 181.336 482.826 179.923L507.188 157.136C509.177 155.229 511.558 154.253 514.334 154.208C517.11 154.167 520.071 154.147 523.221 154.147L532.793 154.273C534.118 154.273 535.031 154.894 535.528 156.14C536.026 157.385 535.777 158.504 534.782 159.501C525.251 169.048 515.724 177.886 506.193 186.021C505.366 186.768 504.95 187.536 504.95 188.324C504.95 189.112 505.403 189.965 506.316 190.876L513.026 197.598C516.422 201.004 519.219 203.781 521.416 205.941C523.61 208.101 526.202 210.715 529.186 213.786C535.15 219.928 539.708 224.91 542.859 228.728C544.514 230.721 545.345 232.754 545.345 234.829C545.345 235.576 545.219 236.368 544.974 237.194C544.061 240.016 542.072 241.428 539.006 241.428H505.57C503.002 241.428 501.094 240.725 499.851 239.313L499.861 239.316Z" fill="white"/>
<path d="M574.374 241.558C568.201 239.981 563.848 238.405 561.324 236.825C558.797 235.249 557.117 234.129 556.29 233.464C554.134 231.72 553.057 229.315 553.057 226.244C553.057 223.838 553.347 221.555 553.926 219.395C555.002 215.328 556.951 213.294 559.768 213.294C560.677 213.38 563.6 214.332 568.532 216.157C573.461 217.986 577.337 218.897 580.154 218.897C584.381 218.897 586.493 217.239 586.493 213.915C586.493 211.923 585.458 210.077 583.387 208.374C581.316 206.675 578.809 205.033 575.866 203.457C572.923 201.881 569.963 200.076 566.979 198.042C563.995 196.008 561.467 193.186 559.396 189.576C557.325 185.966 556.29 181.752 556.29 176.937C556.29 168.97 560.183 162.725 567.973 158.197C575.76 153.673 585.829 151.41 598.177 151.41C610.525 151.41 620.321 152.676 627.573 155.208C634.822 157.74 638.449 161.248 638.449 165.728C638.449 168.966 637.704 171.809 636.212 174.255C634.72 176.705 633.146 177.93 631.487 177.93C630.908 177.93 628.98 177.289 625.707 175.999C622.433 174.712 619.47 174.068 616.82 174.068C611.598 174.068 608.988 176.101 608.988 180.169C608.988 182.161 610.232 183.987 612.718 185.649C615.205 187.31 618.206 188.907 621.731 190.443C625.254 191.978 628.796 193.701 632.359 195.609C635.922 197.52 638.947 200.134 641.433 203.454C643.92 206.774 645.163 210.8 645.163 215.529C645.163 220.259 643.651 224.579 640.626 228.479C637.601 232.382 633.602 235.409 628.633 237.569C618.771 241.804 607.336 243.919 594.328 243.919C587.202 243.919 580.549 243.131 574.377 241.554L574.374 241.558Z" fill="white"/>
<path d="M61.7844 94.2728C60.7387 90.1713 56.6682 87.6497 52.5738 88.4857C50.6152 85.7593 47.5189 84.0259 44.1569 83.7939C42.8148 79.3239 38.1788 76.6658 33.6212 77.8327C33.0626 77.976 32.5346 78.1705 32.0339 78.4094C29.2986 75.6011 25.1872 74.2909 21.1201 75.3316C16.7771 76.444 13.6671 79.9312 12.8258 84.0532C12.727 84.0771 12.6316 84.0942 12.5328 84.1215C6.47302 85.6706 2.81466 91.8501 4.36112 97.9205C5.90758 103.991 12.0764 107.656 18.1362 106.106C19.2807 105.813 20.34 105.356 21.2938 104.762C24.0291 107.638 28.1915 108.993 32.3064 107.942C34.4012 107.406 36.2066 106.318 37.6134 104.871C40.1068 106.352 43.1622 106.881 46.1904 106.106C48.0605 105.629 49.7023 104.707 51.0308 103.486C52.5772 104.155 54.3451 104.335 56.0993 103.885C60.3197 102.807 62.8676 98.504 61.7912 94.2728H61.7844Z" fill="white"/>
<path d="M456.523 11.6732C456.649 11.6425 456.771 11.6152 456.897 11.5879C457.974 6.32626 461.942 1.8699 467.488 0.453832C472.679 -0.873522 477.928 0.798466 481.419 4.3813C482.06 4.07761 482.738 3.82852 483.446 3.64767C489.264 2.15994 495.184 5.54828 496.898 11.2569C501.193 11.5504 505.141 13.7649 507.644 17.2454C512.873 16.1773 518.068 19.3985 519.403 24.6328C520.779 30.0309 517.526 35.5212 512.137 36.8997C509.896 37.473 507.638 37.241 505.665 36.3913C503.969 37.9507 501.874 39.1245 499.486 39.7353C495.62 40.7248 491.72 40.0492 488.538 38.1623C486.747 40.0083 484.437 41.397 481.767 42.0829C476.514 43.4273 471.197 41.6973 467.709 38.0258C466.49 38.7799 465.137 39.3668 463.676 39.7387C455.94 41.7178 448.068 37.0396 446.093 29.2905C444.117 21.5413 448.787 13.6557 456.523 11.6766V11.6732Z" fill="white"/>
<path d="M722.084 229.949C723.307 225.152 728.072 222.197 732.865 223.176C735.158 219.986 738.782 217.956 742.719 217.686C744.29 212.452 749.716 209.343 755.05 210.708C755.704 210.875 756.324 211.104 756.91 211.38C760.112 208.094 764.925 206.562 769.684 207.777C774.766 209.077 778.407 213.161 779.392 217.986C779.508 218.014 779.62 218.034 779.736 218.065C786.828 219.88 791.109 227.111 789.297 234.215C787.485 241.319 780.267 245.608 773.175 243.793C771.837 243.452 770.597 242.912 769.479 242.22C766.281 245.588 761.406 247.174 756.59 245.943C754.137 245.315 752.025 244.042 750.38 242.349C747.464 244.083 743.888 244.7 740.342 243.793C738.152 243.233 736.234 242.155 734.677 240.729C732.869 241.51 730.801 241.722 728.743 241.196C723.804 239.934 720.82 234.897 722.084 229.949Z" fill="white"/>
<path d="M254.632 53.159C255.442 49.9788 258.6 48.0236 261.775 48.6719C263.294 46.5598 265.695 45.2119 268.301 45.0345C269.343 41.5677 272.937 39.5067 276.473 40.4109C276.905 40.5201 277.318 40.6737 277.706 40.8579C279.828 38.6809 283.016 37.6641 286.167 38.4728C289.536 39.3361 291.948 42.0386 292.598 45.2358C292.673 45.2529 292.748 45.2699 292.826 45.287C297.527 46.4881 300.361 51.2789 299.162 55.9877C297.963 60.6966 293.181 63.5356 288.48 62.3344C287.591 62.1058 286.77 61.751 286.031 61.2937C283.912 63.5253 280.683 64.5763 277.491 63.7608C275.867 63.3445 274.467 62.5017 273.377 61.379C271.445 62.5255 269.074 62.935 266.724 62.3344C265.273 61.9625 264.002 61.2494 262.97 60.3042C261.771 60.8228 260.402 60.9627 259.039 60.6147C255.766 59.7787 253.79 56.4416 254.628 53.1624L254.632 53.159Z" fill="white"/>
<path d="M277.134 161.517C277.944 158.337 281.102 156.382 284.277 157.03C285.796 154.918 288.197 153.57 290.803 153.393C291.845 149.926 295.439 147.865 298.975 148.769C299.407 148.879 299.82 149.032 300.208 149.216C302.33 147.039 305.518 146.023 308.669 146.831C312.038 147.695 314.45 150.397 315.1 153.594C315.175 153.611 315.25 153.628 315.328 153.645C320.029 154.847 322.863 159.637 321.664 164.346C320.465 169.055 315.683 171.894 310.982 170.693C310.093 170.464 309.272 170.109 308.533 169.652C306.414 171.884 303.185 172.935 299.993 172.119C298.368 171.703 296.968 170.86 295.878 169.737C293.947 170.884 291.576 171.293 289.226 170.693C287.775 170.321 286.504 169.608 285.472 168.663C284.273 169.181 282.904 169.321 281.541 168.973C278.268 168.137 276.292 164.8 277.13 161.521L277.134 161.517Z" fill="white"/>
<path d="M701.602 88.4277C702.924 83.2445 708.071 80.0541 713.248 81.1119C715.725 77.6655 719.638 75.4715 723.889 75.1814C725.586 69.5274 731.448 66.1698 737.212 67.6438C737.917 67.8247 738.588 68.0704 739.221 68.3706C742.679 64.8219 747.877 63.167 753.017 64.4807C758.508 65.8865 762.439 70.2951 763.505 75.509C763.627 75.5363 763.753 75.5636 763.876 75.5943C771.537 77.5529 776.163 85.3635 774.204 93.0376C772.249 100.712 764.452 105.345 756.791 103.383C755.343 103.011 754.005 102.435 752.799 101.688C749.341 105.325 744.079 107.038 738.877 105.707C736.23 105.032 733.945 103.653 732.17 101.827C729.019 103.697 725.157 104.366 721.328 103.387C718.964 102.783 716.89 101.619 715.21 100.077C713.258 100.92 711.021 101.148 708.803 100.582C703.469 99.2171 700.246 93.778 701.609 88.4311L701.602 88.4277Z" fill="white"/>
<path d="M48.8064 230.56C47.9957 227.38 44.8381 225.425 41.6634 226.073C40.1442 223.961 37.7427 222.613 35.1369 222.436C34.0946 218.969 30.501 216.908 26.9652 217.812C26.5326 217.921 26.1205 218.075 25.7321 218.259C23.61 216.082 20.4217 215.065 17.2709 215.874C13.9021 216.737 11.4904 219.44 10.8398 222.637C10.7649 222.654 10.69 222.671 10.6116 222.688C5.91093 223.889 3.07689 228.68 4.2759 233.389C5.47492 238.098 10.2574 240.937 14.958 239.736C15.8471 239.507 16.668 239.152 17.4072 238.695C19.5259 240.927 22.755 241.978 25.9467 241.162C27.5715 240.746 28.9715 239.903 30.0616 238.78C31.9929 239.927 34.3637 240.336 36.714 239.736C38.1651 239.364 39.4357 238.651 40.4678 237.705C41.6668 238.224 43.0361 238.364 44.3986 238.016C47.6721 237.18 49.6477 233.843 48.8098 230.564L48.8064 230.56Z" fill="white"/>
<path d="M757.602 197.547C754.863 198.096 752.07 198.523 749.246 198.82C744.586 199.311 739.974 199.441 735.471 199.219C735.345 201.758 734.763 204.266 733.747 206.705C739.508 207.501 745.669 207.579 751.927 206.92C759.761 206.098 767.201 204.167 773.622 201.348C773.976 200.983 774.32 200.618 774.654 200.256C772.991 198.359 771.564 196.233 770.426 193.916C766.37 195.431 762.061 196.65 757.605 197.544L757.602 197.547Z" fill="#EFC360"/>
<path d="M721.75 220.88C714.72 225.967 705.639 229.714 695.628 231.724C693.076 232.236 690.467 232.635 687.814 232.915C669.859 234.805 653.778 230.936 643.855 223.388C634.42 227.046 628.8 232.27 628.793 237.419C628.786 242.418 633.936 247.499 642.248 250.696C658.118 255.811 684.366 251.392 714.301 238.559C728.021 232.679 741.367 225.476 752.513 218.136C743.524 219.024 734.654 218.577 726.608 216.829C725.157 218.232 723.539 219.587 721.754 220.88H721.75Z" fill="#0066FF"/>
<path d="M654.956 214.236C662.355 217.307 671.998 218.413 682.118 217.348C692.238 216.284 701.442 213.192 708.04 208.647C713.545 204.856 716.471 200.495 716.072 196.687C715.674 192.879 711.906 189.225 705.734 186.662C698.336 183.591 688.692 182.486 678.572 183.55C676.338 183.786 674.144 184.12 672.015 184.547C664.511 186.051 657.791 188.709 652.65 192.251C650.797 193.527 649.237 194.868 647.997 196.23C645.773 199.069 644.622 202.007 644.707 204.784C645.409 208.384 649.098 211.8 654.956 214.233V214.236Z" fill="#EFC360"/>
<path d="M754.58 134.53C754.539 134.592 754.495 134.653 754.451 134.714C751.699 138.516 749.393 143.119 746.954 147.995C746.412 149.076 745.864 150.168 745.305 151.271C759.451 150.697 773.489 138.041 778.336 133.667C780.632 131.596 784.174 131.78 786.245 134.083C788.316 136.386 788.129 139.932 785.83 142.006C777.089 149.892 769.135 155.345 761.512 158.675C754.301 161.828 747.536 163.026 740.826 162.336C728.57 161.077 719.247 153.755 710.234 146.671C699.143 137.959 689.561 130.432 675.381 133.278C658.686 136.625 647.827 152.956 651.169 169.676C651.724 172.457 652.637 175.101 653.887 177.579C661.5 173.573 670.837 170.744 681.178 169.652C705.053 167.137 725.617 174.811 732.787 187.771C737.726 188.238 742.856 188.208 748.074 187.658C754.941 186.935 761.567 185.352 767.48 183.031C766.438 168.516 776.34 155.102 790.949 152.171C791.12 152.137 791.29 152.107 791.46 152.076C791.614 152.042 791.77 152.008 791.927 151.977C798.682 150.622 805.365 151.81 810.989 154.877C812.147 143.651 807.071 132.398 797.394 125.938C783.227 116.483 764.019 120.335 754.58 134.527V134.53Z" fill="#0066FF"/>
<path d="M813.921 175.078C811.66 167.117 803.968 161.906 795.776 162.739C795.476 162.824 795.166 162.889 794.846 162.923C794.451 162.964 794.056 163.026 793.661 163.09C784.682 165.151 778.898 174.04 780.717 183.144C782.57 192.405 791.597 198.431 800.841 196.575C809.939 194.749 815.904 185.959 814.327 176.855C814.255 176.541 814.177 176.227 814.088 175.92C814.007 175.641 813.959 175.357 813.921 175.078Z" fill="#EFC360"/>
<path d="M820.662 163.52C825.809 145.937 818.946 126.842 803.604 116.602C784.327 103.738 758.208 108.952 745.322 128.214C742.062 132.732 739.576 137.704 736.943 142.965C735.955 144.941 734.943 146.954 733.88 148.971C728.12 146.463 722.738 142.238 717.145 137.843C705.554 128.74 692.419 118.418 673.184 122.277C650.436 126.842 635.633 149.094 640.19 171.88C641.035 176.111 642.489 180.114 644.52 183.83C642.67 185.396 641.028 187.054 639.608 188.788C635.019 193.865 632.873 199.57 633.483 205.381C633.504 205.586 633.531 205.791 633.562 205.996C633.579 206.211 633.592 206.426 633.616 206.641C633.909 209.432 634.747 212.069 636.058 214.519C630.952 216.898 626.82 219.75 623.748 223.026C619.729 227.312 617.603 232.28 617.593 237.395C617.576 247.348 625.352 256.258 638.392 261.226C638.477 261.257 638.562 261.287 638.647 261.315C648.672 264.59 661.391 264.863 676.447 262.134C677.281 261.983 678.123 261.823 678.971 261.652C691.176 259.202 704.852 254.807 718.705 248.87C743.673 238.169 766.901 223.651 780.138 210.687C781.923 209.838 783.639 208.927 785.278 207.958C790.52 210.193 796.461 210.926 802.456 209.722C818.295 206.545 828.599 191.05 825.428 175.183C825.404 175.061 825.373 174.934 825.346 174.811C825.309 174.61 825.275 174.409 825.234 174.207C824.44 170.242 822.849 166.636 820.666 163.517L820.662 163.52ZM751.923 206.92C745.669 207.579 739.504 207.5 733.744 206.705C734.759 204.266 735.342 201.758 735.468 199.219C739.974 199.441 744.583 199.311 749.243 198.82C752.067 198.523 754.86 198.096 757.598 197.547C762.054 196.653 766.363 195.435 770.42 193.92C771.557 196.233 772.985 198.359 774.647 200.26C774.313 200.621 773.969 200.983 773.615 201.352C767.194 204.17 759.754 206.098 751.92 206.924L751.923 206.92ZM647.997 196.23C649.237 194.868 650.797 193.527 652.65 192.251C657.79 188.709 664.511 186.051 672.015 184.546C674.144 184.12 676.334 183.786 678.572 183.55C688.689 182.485 698.336 183.591 705.734 186.662C711.903 189.225 715.674 192.879 716.072 196.687C716.471 200.495 713.545 204.856 708.04 208.647C701.442 213.192 692.238 216.284 682.118 217.348C672.002 218.413 662.355 217.307 654.956 214.236C649.098 211.803 645.409 208.384 644.707 204.788C644.622 202.01 645.773 199.072 647.997 196.233V196.23ZM794.843 162.92C795.163 162.886 795.473 162.821 795.773 162.736C803.968 161.903 811.656 167.113 813.918 175.074C813.955 175.354 814.003 175.637 814.085 175.917C814.173 176.224 814.252 176.538 814.323 176.852C815.9 185.959 809.936 194.746 800.838 196.571C791.593 198.427 782.566 192.401 780.713 183.141C778.894 174.037 784.678 165.148 793.657 163.087C794.052 163.019 794.448 162.961 794.843 162.92ZM651.169 169.679C647.827 152.956 658.686 136.629 675.381 133.281C689.561 130.436 699.14 137.963 710.234 146.674C719.247 153.755 728.57 161.077 740.826 162.34C747.536 163.029 754.301 161.831 761.512 158.678C769.135 155.345 777.089 149.892 785.83 142.01C788.129 139.935 788.313 136.39 786.245 134.087C784.174 131.783 780.635 131.599 778.336 133.67C773.485 138.045 759.451 150.701 745.305 151.274C745.867 150.172 746.412 149.08 746.954 147.998C749.393 143.122 751.695 138.519 754.451 134.718C754.495 134.656 754.539 134.595 754.58 134.534C764.019 120.342 783.224 116.486 797.394 125.945C807.071 132.404 812.147 143.661 810.989 154.884C805.365 151.816 798.682 150.629 791.927 151.984C791.77 152.014 791.617 152.049 791.46 152.083C791.29 152.113 791.12 152.144 790.949 152.178C776.34 155.109 766.438 168.523 767.48 183.038C761.567 185.355 754.941 186.942 748.074 187.665C742.856 188.215 737.726 188.249 732.787 187.778C725.62 174.818 705.056 167.144 681.178 169.659C670.837 170.747 661.503 173.576 653.887 177.586C652.637 175.108 651.724 172.464 651.169 169.683V169.679ZM714.297 238.558C684.363 251.388 658.114 255.807 642.244 250.696C633.933 247.499 628.782 242.418 628.789 237.419C628.796 232.27 634.42 227.046 643.852 223.388C653.774 230.936 669.856 234.805 687.81 232.915C690.464 232.635 693.073 232.236 695.624 231.724C705.632 229.717 714.717 225.967 721.747 220.88C723.532 219.587 725.15 218.235 726.601 216.829C734.647 218.573 743.52 219.024 752.506 218.136C741.36 225.476 728.015 232.679 714.294 238.558H714.297Z" fill="#272525"/>
<path d="M693.199 206.9C693.199 207.326 693.052 207.719 692.76 208.081C692.467 208.439 692.044 208.664 691.496 208.749C689.997 208.975 688.757 209.128 687.783 209.213C686.809 209.299 685.654 209.353 684.322 209.377C683.304 209.374 682.731 208.978 682.605 208.19C682.561 207.879 682.507 207.47 682.442 206.965C682.381 206.46 682.316 206.016 682.255 205.631C682.193 205.245 682.064 204.952 681.873 204.747C681.679 204.542 681.362 204.457 680.919 204.498L678.852 204.679C678.409 204.716 678.112 204.856 677.956 205.091C677.799 205.327 677.724 205.641 677.731 206.03C677.738 206.419 677.751 206.869 677.779 207.378C677.806 207.886 677.823 208.299 677.83 208.613C677.843 209.411 677.349 209.899 676.345 210.08C675.03 210.288 673.824 210.438 672.727 210.537C671.634 210.633 670.326 210.701 668.81 210.742C668.255 210.752 667.802 210.609 667.451 210.305C667.1 210.002 666.889 209.64 666.814 209.22C666.524 207.613 666.224 205.01 665.911 201.42C665.598 197.827 665.431 195.489 665.41 194.404C665.39 193.319 665.492 192.569 665.714 192.149C665.935 191.729 666.436 191.487 667.206 191.419L673.936 190.828C674.58 190.77 675.146 190.944 675.636 191.347C676.127 191.75 676.399 192.302 676.46 193.002L676.968 198.806C677.026 199.468 677.339 199.775 677.912 199.727L680.974 199.458C681.543 199.407 681.802 199.052 681.744 198.386L681.236 192.582C681.175 191.883 681.352 191.292 681.764 190.811C682.176 190.33 682.704 190.061 683.348 190.003L689.721 189.446C690.494 189.378 691.026 189.532 691.319 189.907C691.612 190.282 691.84 191.002 692.007 192.074C692.174 193.145 692.416 195.476 692.729 199.069C693.042 202.662 693.196 205.276 693.189 206.91L693.199 206.9Z" fill="#272525"/>
<path d="M793.041 181.851L793.122 172.334C793.14 171.406 793.16 170.812 793.187 170.543C793.221 169.884 793.388 169.41 793.691 169.116C793.995 168.823 794.577 168.686 795.442 168.7L803.706 168.854C804.568 168.871 805.147 169.031 805.44 169.335C805.733 169.638 805.882 170.12 805.893 170.782C805.91 172.078 805.903 173.641 805.869 175.463C805.835 177.285 805.753 179.493 805.624 182.086C805.487 186.099 803.372 188.709 799.281 189.91C796.924 190.61 793.916 190.924 790.258 190.856C789.437 190.842 788.895 190.583 788.636 190.085C788.378 189.586 788.262 188.723 788.282 187.498C788.306 186.273 788.79 185.618 789.737 185.533C790.891 185.41 791.726 184.935 792.247 184.11C792.765 183.284 793.031 182.533 793.044 181.854L793.041 181.851Z" fill="#272525"/>
</g>
<defs>
<filter id="filter0_d_72_134" x="0" y="0" width="830" height="272" filterUnits="userSpaceOnUse" color-interpolation-filters="sRGB">
<feFlood flood-opacity="0" result="BackgroundImageFix"/>
<feColorMatrix in="SourceAlpha" type="matrix" values="0 0 0 0 0 0 0 0 0 0 0 0 0 0 0 0 0 0 127 0" result="hardAlpha"/>
<feOffset dy="4"/>
<feGaussianBlur stdDeviation="2"/>
<feComposite in2="hardAlpha" operator="out"/>
<feColorMatrix type="matrix" values="0 0 0 0 0 0 0 0 0 0 0 0 0 0 0 0 0 0 0.25 0"/>
<feBlend mode="normal" in2="BackgroundImageFix" result="effect1_dropShadow_72_134"/>
<feBlend mode="normal" in="SourceGraphic" in2="effect1_dropShadow_72_134" result="shape"/>
</filter>
<clipPath id="clip0_72_134">
<rect width="822" height="264" fill="white" transform="translate(4)"/>
</clipPath>
</defs>
</svg>
